<svg id="Layer_18" data-name="Layer 18" xmlns="http://www.w3.org/2000/svg" viewBox="0 0 1598 1228"><defs><style>.cls-1,.cls-6{fill:#fefeea;}.cls-2{fill:#feecca;}.cls-3{fill:#c9dfb0;}.cls-4{fill:#eaddc1;}.cls-5{fill:#edd2d0;}.cls-31,.cls-6{fill-rule:evenodd;}.cls-12,.cls-13,.cls-15,.cls-17,.cls-18,.cls-20,.cls-22,.cls-24,.cls-7,.cls-8{fill:none;}.cls-7,.cls-8{stroke:#fff;}.cls-8{stroke-width:3.08px;}.cls-14,.cls-16,.cls-19,.cls-21,.cls-23,.cls-25,.cls-9{fill:#fff;}.cls-10,.cls-11{font-size:12px;}.cls-10{font-family:Helvetica Bold;font-weight:700;}.cls-11{font-family:Helvetica;}.cls-12{stroke:#d8f0fc;stroke-width:20px;}.cls-12,.cls-13,.cls-14,.cls-15,.cls-16,.cls-17,.cls-18,.cls-19,.cls-20,.cls-21,.cls-22,.cls-23,.cls-24,.cls-25,.cls-32{stroke-miterlimit:10;}.cls-13,.cls-14{stroke:#e6196e;}.cls-13,.cls-15,.cls-17,.cls-18,.cls-20,.cls-22,.cls-24{stroke-width:10px;}.cls-14,.cls-16,.cls-19,.cls-21,.cls-23,.cls-25{stroke-width:5px;}.cls-15,.cls-16{stroke:#ff8200;}.cls-17{stroke:#a9008f;}.cls-18,.cls-19{stroke:#00a9a6;}.cls-20,.cls-21{stroke:#fab914;}.cls-22,.cls-23{stroke:#5082c3;}.cls-24,.cls-25{stroke:#000;}.cls-26{fill:#e6196e;}.cls-27{fill:#ff8200;}.cls-28{fill:#00a9a6;}.cls-29{fill:#fab914;}.cls-30{fill:#5082c3;}.cls-31{fill:#f05a30;}.cls-32{fill:#0050a2;stroke:#0050a2;stroke-width:3px;}</style></defs><title>Mapa_full</title><rect class="cls-1" width="1598" height="1228"/><polygon class="cls-2" points="873 546.04 873 691 813.5 691 780 657.04 706.01 731.5 537.51 566.06 688.92 414.64 715.09 442.6 739.84 412.92 873 546.04"/><rect class="cls-3" x="739.4" y="644.99" width="46.23" height="199" transform="translate(-303.1 757.23) rotate(-45)"/><polygon class="cls-3" points="791 668.48 791 641 836 641 836 691 813.5 691 791 668.48"/><polygon class="cls-4" points="778 639 756 639 734 617 734 573 778 573 778 639"/><rect class="cls-5" x="901" y="350" width="56" height="66"/><rect class="cls-4" x="945" y="652" width="30" height="50"/><rect class="cls-4" x="466" y="154" width="30" height="40"/><rect class="cls-5" x="294" y="796" width="66" height="66"/><polygon class="cls-4" points="949 1016 949 1038 927 1060 883 1060 883 1016 949 1016"/><path class="cls-1" d="M485.19,179.5a2.77,2.77,0,0,0,2.16-2.68V166.73a2.79,2.79,0,0,0-2.82-2.73h-7a2.79,2.79,0,0,0-2.82,2.73v10.08a2.77,2.77,0,0,0,2.16,2.68l-3.25,4.5h1.88l2.33-3h6.38l2.33,3h1.88Zm-6.3-14.55a0.49,0.49,0,0,1,.55-0.36h3.23a0.49,0.49,0,0,1,.54.36v0.64a0.48,0.48,0,0,1-.54.37h-3.23a0.49,0.49,0,0,1-.55-0.37v-0.64ZM477.6,178a1.24,1.24,0,1,1,1.24-1.24A1.24,1.24,0,0,1,477.6,178Zm0.06-6.55a1.35,1.35,0,0,1-1.41-1.41v-1.82a1.34,1.34,0,0,1,1.41-1.41h6.77a1.34,1.34,0,0,1,1.41,1.41v1.82a1.35,1.35,0,0,1-1.41,1.41h-6.77Zm5.56,5.31a1.24,1.24,0,1,1,1.24,1.24A1.24,1.24,0,0,1,483.23,176.79Z"/><polygon class="cls-1" points="925.67 393 932.33 393 932.33 386.34 939 386.34 939 379.66 932.33 379.66 932.33 373 925.67 373 925.67 379.66 919 379.66 919 386.34 925.67 386.34 925.67 393"/><polygon class="cls-1" points="323.67 839 330.33 839 330.32 832.34 337 832.34 337 825.66 330.32 825.66 330.33 819 323.67 819 323.68 825.66 317 825.66 317 832.34 323.68 832.34 323.67 839"/><path class="cls-1" d="M821.57,666.6l-5.25-4.86h2.93l-4.54-4.51,2.17,0.38-3.38-4.69-3.38,4.69,2.17-.38-4.54,4.51h2.93l-5.25,4.86,7.1-.33v6.31a0.33,0.33,0,0,0,.33.33h1.26a0.33,0.33,0,0,0,.33-0.33v-6.3Z"/><path class="cls-6" d="M755.28,597.71l10.88,3.39h0v3.56c0.69,0.29,1.46,3.17-.44,3.11-2.25-.06-1.12-2.82-0.44-3.11v-3.17l-9.45,4.16-10.72-4.13Z"/><polygon class="cls-6" points="749.68 604.5 755.89 606.81 761.45 604.5 761.45 609.71 749.68 609.71 749.68 604.5"/><path class="cls-6" d="M911.79,1032l10.88,3.39h0V1039c0.69,0.29,1.46,3.17-.44,3.11-2.25-.06-1.12-2.82-0.44-3.11v-3.17l-9.45,4.16-10.72-4.13Z"/><polygon class="cls-6" points="906.2 1038.79 912.41 1041.11 917.96 1038.79 917.96 1044 906.2 1044 906.2 1038.79"/><polygon class="cls-7" points="952.49 687 952.49 667 967.51 667 967.51 676.98 967.51 687 952.49 687"/><path class="cls-8" d="M952.49,677"/><circle class="cls-8" cx="960" cy="677" r="1.54"/><rect class="cls-7" x="956.62" y="667" width="6.73" height="2.79"/><rect class="cls-7" x="958.5" y="667" width="3.04" height="0.94"/><rect class="cls-7" x="956.62" y="684.21" width="6.73" height="2.79"/><rect class="cls-7" x="958.44" y="686.06" width="3.04" height="0.94"/><circle class="cls-9" cx="960" cy="677" r="0.13"/><line class="cls-7" x1="967.51" y1="676.98" x2="952.49" y2="676.98"/><polygon class="cls-3" points="458 412.19 427.36 443.14 310 443.01 310 232 458 231 458 412.19"/><path class="cls-1" d="M392.07,340.76l-5.25-4.86h2.93l-4.54-4.51,2.17,0.38L384,327.07l-3.38,4.69,2.17-.38-4.54,4.51h2.93l-5.25,4.86,7.1-.33v6.31a0.33,0.33,0,0,0,.33.33h1.26a0.33,0.33,0,0,0,.33-0.33v-6.3Z"/><text class="cls-10" transform="translate(499.91 210.48)">Estação <tspan x="40.7" y="0">C</tspan><tspan x="47.53" y="0">oimb</tspan><tspan x="73.76" y="0">r</tspan><tspan x="77.63" y="0">a-B</tspan></text><text class="cls-10" transform="translate(128.95 826.56)">CHUC <tspan x="32.05" y="0">(</tspan><tspan x="35.32" y="0">C</tspan><tspan x="42.14" y="0">o</tspan><tspan x="48.65" y="0">v</tspan><tspan x="54.3" y="0">ões)</tspan></text><text class="cls-10" transform="translate(458.27 773.95)">S<tspan x="5.95" y="0">a</tspan><tspan x="11.74" y="0">n</tspan><tspan x="18.35" y="0">ta Cla</tspan><tspan x="46.22" y="0">r</tspan><tspan x="50.09" y="0">a</tspan></text><text class="cls-10" transform="translate(1222.97 546.4)">T<tspan x="5.11" y="0">o</tspan><tspan x="11.62" y="0">vim</tspan></text><text class="cls-10" transform="translate(905.91 766.86)">Estádio</text><text class="cls-10" transform="translate(945.55 810.58)">Bai<tspan x="15.1" y="0">r</tspan><tspan x="19.07" y="0">r</tspan><tspan x="22.87" y="0">o</tspan><tspan x="-54.95" y="12">No</tspan><tspan x="-40.46" y="12">r</tspan><tspan x="-36.25" y="12">t</tspan><tspan x="-32.35" y="12">on de </tspan><tspan x="-1.24" y="12">M</tspan><tspan x="8.48" y="12">a</tspan><tspan x="14.22" y="12">t</tspan><tspan x="18.12" y="12">os</tspan></text><text class="cls-10" transform="translate(685.42 398.84)">Rua da <tspan x="36.49" y="0">S</tspan><tspan x="42.48" y="0">ofia</tspan></text><text class="cls-10" transform="translate(688.05 499.47)">A<tspan x="7.31" y="0">r</tspan><tspan x="11.28" y="0">nado</tspan></text><text class="cls-10" transform="translate(814.43 603.78)">UC</text><text class="cls-10" transform="translate(894.1 1078)">UC - <tspan x="23.5" y="0">P</tspan><tspan x="29.58" y="0">ólo II</tspan></text><text class="cls-11" transform="translate(855.53 507.56)">P<tspan x="6.19" y="0">r</tspan><tspan x="10.06" y="0">aça da</tspan><tspan x="0" y="12">R</tspan><tspan x="6.5" y="12">epública</tspan></text><text class="cls-11" transform="translate(971.01 387.8)">CHUC</text><text class="cls-11" transform="translate(228.83 556.99)">F<tspan x="5.47" y="0">órum </tspan><tspan x="35.15" y="0">C</tspan><tspan x="41.98" y="0">oimb</tspan><tspan x="68.21" y="0">r</tspan><tspan x="72.07" y="0">a</tspan></text><text class="cls-11" transform="translate(950.34 1004.08)">Q<tspan x="8.3" y="0">ui</tspan><tspan x="17.72" y="0">n</tspan><tspan x="24.34" y="0">ta da </tspan><tspan x="51.73" y="0">P</tspan><tspan x="57.81" y="0">o</tspan><tspan x="64.4" y="0">r</tspan><tspan x="68.61" y="0">t</tspan><tspan x="72.52" y="0">ela</tspan></text><text class="cls-11" transform="translate(554.62 439.61)">R<tspan x="6.5" y="0">od</tspan><tspan x="19.86" y="0">o</tspan><tspan x="26.36" y="0">viá</tspan><tspan x="40.73" y="0">r</tspan><tspan x="44.7" y="0">io</tspan></text><path d="M548.43,443.46v1.18a1.51,1.51,0,0,1-.94,1.51,0.69,0.69,0,0,1-.33,0,1.41,1.41,0,0,1-1.22-1.55v-1.18h-8v1.18a1.44,1.44,0,0,1-1.27,1.55,0.59,0.59,0,0,1-.28,0,1.48,1.48,0,0,1-1-1.51v-1.18h-1.6a64.81,64.81,0,0,1,1-16.52,28.49,28.49,0,0,1,7.11-.75,29,29,0,0,1,7.11.75,60.78,60.78,0,0,1,1,16.52h-1.6Zm-3.39-16a0.21,0.21,0,0,0-.14-0.14h-6a0.21,0.21,0,0,0-.14.14v1a0.15,0.15,0,0,0,.14.14h6a0.15,0.15,0,0,0,.14-0.14v-1Zm2.4,2.4H536.29a52.83,52.83,0,0,0-.52,6.21H548a53.36,53.36,0,0,0-.52-6.21m-0.28,8.52a1.36,1.36,0,0,0-1.27,1.41,1.26,1.26,0,1,0,2.49,0,1.36,1.36,0,0,0-1.22-1.41m-10.59,0a1.36,1.36,0,0,0-1.22,1.41,1.26,1.26,0,1,0,2.49,0,1.36,1.36,0,0,0-1.27-1.41"/><text class="cls-11" transform="translate(318.05 223.41)">M<tspan x="9.72" y="0">a</tspan><tspan x="15.46" y="0">ta Nacional do Choupal</tspan></text><text class="cls-11" transform="translate(978.5 544.46)">C<tspan x="6.92" y="0">ruz de </tspan><tspan x="40.46" y="0">C</tspan><tspan x="47.29" y="0">elas</tspan></text><text class="cls-11" transform="translate(882.19 867.94)">C<tspan x="6.83" y="0">o</tspan><tspan x="13.42" y="0">n</tspan><tspan x="20.03" y="0">tine</tspan><tspan x="39.48" y="0">n</tspan><tspan x="46.09" y="0">t</tspan><tspan x="49.99" y="0">e</tspan></text><g id="rio"><polyline class="cls-12" points="1233.42 857.85 970.49 1121 822 1121 822 850.6 426.47 455 131 455"/></g><g id="linha_24_24T" data-name="linha 24/24T"><polygon class="cls-13" points="691.56 419.08 556.98 553.58 844 840.88 844 895 923.11 895 1065 752.29 1065 726 860 726 860 587.48 691.56 419.08"/><g id="tempo-24_24T" data-name="tempo-24/24T"><circle class="cls-14" cx="691.56" cy="419.08" r="7.5"/><circle class="cls-14" cx="994.56" cy="822.08" r="7.5"/></g></g><g id="linha_38" data-name="linha 38"><path class="cls-15" d="M860.23,833.8"/><polyline class="cls-15" points="860 878 1149 878 1149 909.15 960.77 1098 860 1098 860 837.71 860 833.8 717.77 691.46 675.28 648.91 631.79 692.33 512.61 572.87 474 611.78 474 708.98 533.76 769.38"/><g id="tempo-38"><circle class="cls-16" cx="533.51" cy="769.62" r="7.5"/><circle class="cls-16" cx="912.51" cy="1097.62" r="7.5"/></g></g><g id="linha_14_14T" data-name="linha 14/14T"><path class="cls-17" d="M455.36,429.54"/><polyline class="cls-18" points="464.9 414.95 172 708.98 172 764.86 276.77 869 460.31 869 560.11 769.6 491.01 700.47 491 618 491 617.4 511.98 596.4 631.86 716.34 698.51 649.62 465 416.18 465 215"/><g id="tempo-14_14T" data-name="tempo-14/14T"><circle class="cls-19" cx="698.51" cy="649.62" r="7.5"/><circle class="cls-19" cx="222.51" cy="815.62" r="7.5"/></g></g><g id="linha_34" data-name="linha 34"><polyline class="cls-20" points="877 617 802 617 802 575.34 836.92 539.95 877 580.2 877 709 1082 709 1082 757.18 929.18 911 876 911 876 1082"/><g id="tempo-34"><circle class="cls-21" cx="876" cy="1082" r="7.5"/><circle class="cls-21" cx="802" cy="617" r="7.5"/></g></g><g id="linha_7_7T" data-name="linha 7/7T"><polygon class="cls-22" points="856.29 783 946.9 783 1204 541.93 1204 430 1065.25 430 991.14 355 964 355 964 556 875.73 556 739.65 419.88 616.15 543.32 856.24 783 856.29 783"/><g id="tempo-7_7T" data-name="tempo-7/7T"><circle class="cls-23" cx="1204.05" cy="541.92" r="7.5"/><circle class="cls-23" cx="678.05" cy="481.33" r="7.5"/></g></g><g id="linha_5" data-name="linha 5"><path class="cls-24" d="M481.48,428.94"/><polyline class="cls-24" points="481 206 481 408.89 603.87 531.46 715.93 419.37 825.71 528.97 785 569.26 785 634 843 634 843 743 960 743"/><g id="tempo-5"><circle class="cls-25" cx="481.05" cy="206.33" r="7.5"/><circle class="cls-25" cx="960.05" cy="743.33" r="7.5"/></g></g><circle class="cls-9" cx="963.98" cy="383.21" r="4.09"/><circle class="cls-9" cx="963.98" cy="540.21" r="4.09"/><circle class="cls-9" cx="959.98" cy="726.21" r="4.09"/><circle class="cls-9" cx="959.98" cy="709.21" r="4.09"/><circle class="cls-9" cx="1056.98" cy="1001.21" r="4.09"/><circle class="cls-9" cx="325.98" cy="554.21" r="4.09"/><circle class="cls-9" cx="848.98" cy="529.21" r="4.09"/><circle class="cls-9" cx="824.98" cy="529.21" r="4.09"/><circle class="cls-9" cx="836.98" cy="541.21" r="4.09"/><circle class="cls-9" cx="842.98" cy="663.21" r="4.09"/><circle class="cls-9" cx="701.5" cy="675.21" r="4.09"/><circle class="cls-9" cx="690" cy="686.8" r="4.09"/><circle class="cls-9" cx="464.98" cy="220.21" r="4.09"/><circle class="cls-9" cx="715.98" cy="421.21" r="4.09"/><circle class="cls-9" cx="739.98" cy="421.21" r="4.09"/><circle class="cls-9" cx="509.98" cy="461.21" r="4.09"/><circle class="cls-9" cx="521.98" cy="449.21" r="4.09"/><circle class="cls-9" cx="1006.5" cy="833.21" r="4.09"/><circle class="cls-9" cx="950" cy="868" r="4.09"/><circle class="cls-9" cx="940" cy="878" r="4.09"/><circle class="cls-9" cx="962" cy="878" r="4.09"/><rect class="cls-26" x="1394" y="426" width="70" height="4"/><rect class="cls-9" x="1464" y="420" width="26" height="16"/><path class="cls-26" d="M1493,438h-31V418h31v20Zm-27-4h23V423h-23v11Z"/><rect class="cls-9" x="1435" y="420" width="19" height="16"/><path class="cls-26" d="M1456,438h-23V418h23v20Zm-19-4h15V423h-15v11Z"/><path class="cls-26" d="M1438.76,430.93a4.64,4.64,0,0,1,1.66-1.77,12,12,0,0,0,1.47-1.16,1.72,1.72,0,0,0,.51-1.2,1.33,1.33,0,0,0-.29-0.88,1.2,1.2,0,0,0-1.86.21,2.74,2.74,0,0,0-.18,1h-1.59a4,4,0,0,1,.39-1.72,2.4,2.4,0,0,1,2.33-1.25,3,3,0,0,1,2.11.73,2.53,2.53,0,0,1,.78,1.94,2.63,2.63,0,0,1-.55,1.65,5.51,5.51,0,0,1-1.19,1.06l-0.66.47q-0.62.44-.84,0.63a1.84,1.84,0,0,0-.38.45h3.64v1.44h-5.71A3.9,3.9,0,0,1,1438.76,430.93Z"/><path class="cls-26" d="M1450.72,430.77h-0.94v1.8h-1.61v-1.8h-3.3v-1.43l3.07-5.06h1.84v5.21h0.94v1.28Zm-2.55-1.28V425.9l-2.08,3.59h2.08Z"/><path class="cls-26" d="M1467.73,431a4.65,4.65,0,0,1,1.66-1.77,12.16,12.16,0,0,0,1.47-1.16,1.72,1.72,0,0,0,.51-1.2,1.33,1.33,0,0,0-.29-0.88,1,1,0,0,0-.84-0.35,1,1,0,0,0-1,.56,2.74,2.74,0,0,0-.18,1h-1.59a4,4,0,0,1,.39-1.72,2.4,2.4,0,0,1,2.33-1.25,3,3,0,0,1,2.11.73,2.54,2.54,0,0,1,.78,1.94,2.63,2.63,0,0,1-.55,1.65,5.48,5.48,0,0,1-1.19,1.06l-0.66.47c-0.41.29-.69,0.5-0.84,0.63a1.85,1.85,0,0,0-.38.45h3.64v1.44h-5.71A3.9,3.9,0,0,1,1467.73,431Z"/><path class="cls-26" d="M1479.69,430.82h-0.94v1.79h-1.6v-1.79h-3.3v-1.43l3.07-5.06h1.84v5.21h0.94v1.28Zm-2.55-1.28v-3.59l-2.08,3.59h2.08Z"/><path class="cls-26" d="M1487.14,424.14v1.5h-2.54v7h-1.78v-7h-2.55v-1.5h6.87Z"/><rect class="cls-27" x="1394" y="404" width="45" height="4"/><rect class="cls-9" x="1435" y="399" width="19" height="15"/><path class="cls-27" d="M1456,416h-23V397h23v19Zm-19-4h15V401h-15v11Z"/><path class="cls-27" d="M1440,408a1.89,1.89,0,0,0,.16.83,1.1,1.1,0,0,0,1.09.6,1.2,1.2,0,0,0,.84-0.33,1.24,1.24,0,0,0,.36-1,1.07,1.07,0,0,0-.67-1.1,3.37,3.37,0,0,0-1.19-.16V405.7a3.07,3.07,0,0,0,1.11-.16,1,1,0,0,0,.54-1,1.1,1.1,0,0,0-.28-0.78,1,1,0,0,0-.78-0.3,1,1,0,0,0-.85.37,1.56,1.56,0,0,0-.26,1h-1.53a4.15,4.15,0,0,1,.21-1.18,2.67,2.67,0,0,1,.63-0.9,2.22,2.22,0,0,1,.77-0.45,3.3,3.3,0,0,1,1.09-.16,2.89,2.89,0,0,1,1.93.62,2.06,2.06,0,0,1,.73,1.66,1.84,1.84,0,0,1-.44,1.24,1.49,1.49,0,0,1-.58.43,1.18,1.18,0,0,1,.64.39,2.06,2.06,0,0,1,.63,1.59,2.68,2.68,0,0,1-.73,1.86,2.79,2.79,0,0,1-2.17.8,2.62,2.62,0,0,1-2.46-1.16,3.47,3.47,0,0,1-.4-1.61H1440Z"/><path class="cls-27" d="M1445.24,407a2,2,0,0,1,.93-0.86,1.94,1.94,0,0,1-.79-0.87,2.44,2.44,0,0,1-.18-0.88,2,2,0,0,1,.69-1.55,3.25,3.25,0,0,1,3.88,0,2,2,0,0,1,.69,1.55,2.44,2.44,0,0,1-.18.88,1.68,1.68,0,0,1-.79.81,2.32,2.32,0,0,1,.93.91,2.6,2.6,0,0,1,.31,1.27,2.38,2.38,0,0,1-.78,1.79,3,3,0,0,1-2.18.74,2.83,2.83,0,0,1-2.12-.74,2.47,2.47,0,0,1-.72-1.79A2.57,2.57,0,0,1,1445.24,407Zm1.71,2.12a1.32,1.32,0,0,0,1.77,0,1.34,1.34,0,0,0,.32-1,1.33,1.33,0,0,0-.32-1,1.33,1.33,0,0,0-1.75,0A1.6,1.6,0,0,0,1446.94,409.07Zm0.1-3.8a1,1,0,0,0,.78.29,1,1,0,0,0,.78-0.29,1,1,0,0,0,.27-0.74,1.06,1.06,0,0,0-.27-0.77,1,1,0,0,0-.78-0.28,1,1,0,0,0-1.06,1.05A1,1,0,0,0,1447,405.28Z"/><rect class="cls-28" x="1394" y="382" width="70" height="5"/><rect class="cls-9" x="1464" y="377" width="26" height="15"/><path class="cls-28" d="M1493,394h-31V375h31v19Zm-27-4h23V379h-23v11Z"/><rect class="cls-9" x="1435" y="377" width="19" height="15"/><path class="cls-28" d="M1456,394h-23V375h23v19Zm-19-4h15V379h-15v11Z"/><path class="cls-28" d="M1438.6,383v-1.12a7.17,7.17,0,0,0,1.08-.1,1.53,1.53,0,0,0,.8-0.44,1.42,1.42,0,0,0,.32-0.6,1.38,1.38,0,0,0,.06-0.33h1.37v8.34h-1.68V383h-2Z"/><path class="cls-28" d="M1450.49,386.92h-0.94v1.8h-1.61v-1.8h-3.3v-1.43l3.07-5.06h1.84v5.21h0.94v1.28Zm-2.55-1.28V382l-2.08,3.59h2.08Z"/><path class="cls-28" d="M1467.57,383v-1.12a7.33,7.33,0,0,0,1.08-.1,1.53,1.53,0,0,0,.8-0.44,1.45,1.45,0,0,0,.32-0.6,1.38,1.38,0,0,0,.06-0.33h1.37v8.34h-1.68V383h-2Z"/><path class="cls-28" d="M1479.47,387h-0.94v1.79h-1.6V387h-3.3v-1.43l3.07-5.06h1.84v5.21h0.94V387Zm-2.55-1.28v-3.59l-2.08,3.59h2.08Z"/><path class="cls-28" d="M1486.92,380.3v1.5h-2.54v7h-1.78v-7H1480v-1.5h6.87Z"/><rect class="cls-29" x="1394" y="361" width="45" height="4"/><rect class="cls-9" x="1435" y="355" width="19" height="15"/><path class="cls-29" d="M1456,372h-23V353h23v19Zm-19-4h15V357h-15v11Z"/><path class="cls-29" d="M1440,364.15a1.89,1.89,0,0,0,.16.83,1.1,1.1,0,0,0,1.09.6,1.2,1.2,0,0,0,.84-0.33,1.23,1.23,0,0,0,.36-1,1.07,1.07,0,0,0-.67-1.1,3.37,3.37,0,0,0-1.19-.16v-1.17a3.08,3.08,0,0,0,1.11-.16,1,1,0,0,0,.54-1,1.1,1.1,0,0,0-.28-0.78,1,1,0,0,0-.78-0.3,1,1,0,0,0-.85.37,1.56,1.56,0,0,0-.26,1h-1.53a4.18,4.18,0,0,1,.21-1.18,2.69,2.69,0,0,1,.63-0.9,2.21,2.21,0,0,1,.76-0.45,3.31,3.31,0,0,1,1.09-.16,2.89,2.89,0,0,1,1.93.62,2.06,2.06,0,0,1,.73,1.66,1.84,1.84,0,0,1-.44,1.24,1.49,1.49,0,0,1-.58.43,1.18,1.18,0,0,1,.64.39,2.06,2.06,0,0,1,.63,1.59,2.68,2.68,0,0,1-.73,1.86,2.79,2.79,0,0,1-2.17.8,2.62,2.62,0,0,1-2.46-1.16,3.45,3.45,0,0,1-.4-1.61H1440Z"/><path class="cls-29" d="M1450.75,364.92h-0.94v1.79h-1.61v-1.79h-3.3v-1.43l3.07-5.06h1.84v5.21h0.94v1.28Zm-2.55-1.28V360l-2.08,3.59h2.08Z"/><rect class="cls-30" x="1394" y="339" width="70" height="4"/><rect class="cls-9" x="1464" y="333" width="26" height="15"/><path class="cls-30" d="M1493,350h-31V331h31v19Zm-27-4h23V335h-23v11Z"/><rect class="cls-9" x="1435" y="333" width="19" height="15"/><path class="cls-30" d="M1456,350h-23V331h23v19Zm-19-4h15V335h-15v11Z"/><path class="cls-30" d="M1447.58,337.8a10.51,10.51,0,0,0-1.05,1.33,11,11,0,0,0-1.78,3.92,8.12,8.12,0,0,0-.29,1.89h-1.75a10.28,10.28,0,0,1,1.51-4.79,11.32,11.32,0,0,1,1.55-2.15h-4.27l0-1.51h6v1.32Z"/><path class="cls-30" d="M1476.63,337.8a10.51,10.51,0,0,0-1.05,1.33,10.88,10.88,0,0,0-1.78,3.92,8,8,0,0,0-.29,1.89h-1.75a10.27,10.27,0,0,1,1.51-4.79,11.28,11.28,0,0,1,1.55-2.15h-4.27l0-1.51h6v1.32Z"/><path class="cls-30" d="M1483.93,336.48V338h-2.53v7h-1.78v-7h-2.54v-1.5h6.85Z"/><rect x="1394" y="317" width="45" height="4"/><rect class="cls-9" x="1435" y="311" width="19" height="16"/><path d="M1456,328h-23V309h23v19Zm-19-4h15V313h-15v11Z"/><path d="M1443.3,320.57a1.59,1.59,0,0,0,.37.83,1.06,1.06,0,0,0,.8.29,1.09,1.09,0,0,0,.93-0.43,1.77,1.77,0,0,0,.32-1.08,1.88,1.88,0,0,0-.3-1.08,1,1,0,0,0-.93-0.44,1.58,1.58,0,0,0-.52.07,1,1,0,0,0-.58.51l-1.47-.07,0.59-4.61h4.59V316h-3.41l-0.3,1.82a3.4,3.4,0,0,1,.59-0.33,2.5,2.5,0,0,1,.87-0.13,2.52,2.52,0,0,1,2.57,2.72,3.17,3.17,0,0,1-.74,2.07,2.7,2.7,0,0,1-2.22.91,3,3,0,0,1-2-.64,2.48,2.48,0,0,1-.85-1.81h1.63Z"/><path class="cls-31" d="M1370.29,243.86A112,112,0,0,0,1553,157c0-29.49-10.95-56.36-29.58-76.37l-40.83,0A86.91,86.91,0,0,1,1441,243.86h-70.71Z"/><path class="cls-31" d="M1399.62,233.22a86.76,86.76,0,0,1,41.39-163l5.07,0.15h65.86a112,112,0,0,0-153,162.9h40.68Z"/><path class="cls-32" d="M1376,130.57h19.42a51.44,51.44,0,0,1,8.6.52,12,12,0,0,1,5.07,2.18,13.16,13.16,0,0,1,3.73,4.42,12.7,12.7,0,0,1,1.5,6.18,13.09,13.09,0,0,1-1.84,6.82,11.73,11.73,0,0,1-5,4.65,12.75,12.75,0,0,1,6.83,4.79,13.48,13.48,0,0,1,2.39,8,16.85,16.85,0,0,1-1.54,7,13.88,13.88,0,0,1-4.21,5.44,13.1,13.1,0,0,1-6.58,2.5q-2.45.29-11.83,0.36H1376V130.57Zm9.81,8.8v12.22h6.43q5.73,0,7.13-.18a6.25,6.25,0,0,0,4-1.89,5.84,5.84,0,0,0,1.44-4.13,6.15,6.15,0,0,0-1.24-4,5.46,5.46,0,0,0-3.7-1.86q-1.46-.18-8.38-0.18h-5.63Zm0,21v14.13h9.08a40.33,40.33,0,0,0,6.73-.33,5.94,5.94,0,0,0,3.56-2.11,6.85,6.85,0,0,0,1.37-4.48,7.39,7.39,0,0,0-1.06-4,6.09,6.09,0,0,0-3.07-2.41q-2-.76-8.7-0.76h-7.92Z"/><path class="cls-32" d="M1423.22,130.57h9.64v28.14a63.75,63.75,0,0,0,.36,8.68,8.51,8.51,0,0,0,3,5.12,9.68,9.68,0,0,0,6.37,1.93q4.11,0,6.19-1.82a7.33,7.33,0,0,0,2.51-4.48,63.34,63.34,0,0,0,.43-8.83V130.57h9.64v27.29a76.24,76.24,0,0,1-.78,13.22,15.18,15.18,0,0,1-2.89,6.53,14.62,14.62,0,0,1-5.62,4.24,22.68,22.68,0,0,1-9.19,1.58q-6.84,0-10.38-1.72a15,15,0,0,1-5.59-4.46,14.78,14.78,0,0,1-2.7-5.76,68.44,68.44,0,0,1-.95-13.19V130.57Z"/><path class="cls-32" d="M1467.82,165.9l9.23-1q0.82,5,3.37,7.42a9.7,9.7,0,0,0,6.87,2.37q4.58,0,6.91-2.1a6.47,6.47,0,0,0,2.32-4.93,4.89,4.89,0,0,0-1-3.08,7.71,7.71,0,0,0-3.41-2.21q-1.67-.63-7.59-2.23-7.62-2.05-10.69-5a13.81,13.81,0,0,1-4.33-10.28,14,14,0,0,1,2-7.3,13,13,0,0,1,5.86-5.17,21.81,21.81,0,0,1,9.24-1.78q8.84,0,13.3,4.21a15.44,15.44,0,0,1,4.69,11.25l-9.48.46q-0.61-3.94-2.61-5.67c-1.34-1.14-3.34-1.72-6-1.72a10.21,10.21,0,0,0-6.47,1.85,3.83,3.83,0,0,0-1.5,3.17,4.06,4.06,0,0,0,1.41,3.1q1.79,1.64,8.71,3.41a43.84,43.84,0,0,1,10.23,3.68,13.68,13.68,0,0,1,5.18,5.19,16.19,16.19,0,0,1,1.88,8.14,16,16,0,0,1-2.24,8.22,13.76,13.76,0,0,1-6.34,5.7,24.62,24.62,0,0,1-10.22,1.87q-8.9,0-13.67-4.47T1467.82,165.9Z"/></svg>