<?xml version="1.0" encoding="utf-8"?>
<!-- Generator: Adobe Illustrator 19.2.1, SVG Export Plug-In . SVG Version: 6.00 Build 0)  -->
<svg version="1.1" id="Layer_1" xmlns="http://www.w3.org/2000/svg" xmlns:xlink="http://www.w3.org/1999/xlink" x="0px" y="0px"
	 viewBox="0 0 526 526" style="enable-background:new 0 0 526 526;" xml:space="preserve">
<style type="text/css">
	.st0{fill:#F05A30;}
	.st1{fill:#0050A2;}
</style>
<g>
	<path class="st0" d="M96.9,467c45.3,36.9,103.1,59,166.1,59c145.3,0,263-117.8,263-263c0-69.3-25.7-132.4-69.5-179.3l-95.9,0.1
		c63.5,34.6,106.2,101.9,106.2,179.2c0,112.6-91.3,204-203.9,204H96.9z"/>
	<path class="st0" d="M165.8,442C102.2,407.5,59.1,340.4,59.1,263c0-112.6,91.3-203.9,203.9-203.9l11.9,0.3h154.7
		C384.2,22.3,326.2,0,263,0C117.7,0,0,117.8,0,263c0,69.1,26.7,132.1,70.3,179H165.8z"/>
</g>
<g>
	<g>
		<path class="st1" d="M102,197.6h48.1c9.5,0,16.6,0.4,21.3,1.3s8.9,2.7,12.6,5.4c3.7,2.7,6.8,6.4,9.2,10.9
			c2.5,4.6,3.7,9.7,3.7,15.3c0,6.1-1.5,11.8-4.6,16.9c-3,5.1-7.2,9-12.4,11.5c7.3,2.3,13,6.3,16.9,11.9s5.9,12.2,5.9,19.7
			c0,5.9-1.3,11.7-3.8,17.4c-2.5,5.6-6,10.1-10.4,13.5s-9.8,5.4-16.3,6.2c-4,0.5-13.8,0.8-29.3,0.9H102V197.6z M126.3,219.4v30.3
			h15.9c9.5,0,15.3-0.1,17.6-0.4c4.1-0.5,7.4-2.1,9.8-4.7c2.4-2.6,3.6-6,3.6-10.2c0-4-1-7.3-3.1-9.9c-2.1-2.5-5.1-4.1-9.2-4.6
			c-2.4-0.3-9.3-0.4-20.8-0.4L126.3,219.4L126.3,219.4z M126.3,271.4v35h22.5c8.7,0,14.3-0.3,16.7-0.8c3.6-0.7,6.6-2.4,8.8-5.2
			c2.3-2.8,3.4-6.5,3.4-11.1c0-3.9-0.9-7.3-2.6-10c-1.8-2.7-4.3-4.7-7.6-6c-3.3-1.2-10.5-1.9-21.5-1.9H126.3z"/>
		<path class="st1" d="M102,331h-2.5V195.1h50.6c9.9,0,17,0.4,21.8,1.3c5,1,9.6,2.9,13.6,5.8c4,2.9,7.3,6.9,9.9,11.7
			c2.6,4.9,4,10.4,4,16.5c0,6.7-1.7,12.8-5,18.2c-2.3,3.9-5.3,7.2-8.8,9.7c5.5,2.6,10,6.2,13.2,10.9c4.2,6,6.3,13.2,6.3,21.1
			c0,6.1-1.3,12.3-4,18.4c-2.6,5.9-6.4,10.8-11.2,14.5c-4.7,3.6-10.4,5.8-17.5,6.7c-4.1,0.5-13.8,0.8-29.6,0.9H102z M104.5,326h38.4
			c15.4-0.1,25.1-0.4,29-0.9c6.2-0.8,11.1-2.6,15.1-5.7c4.1-3.2,7.3-7.4,9.6-12.5c2.4-5.4,3.6-10.9,3.6-16.4
			c0-6.9-1.8-13.1-5.5-18.3c-3.6-5.1-8.8-8.8-15.6-10.9l-6-1.9l5.7-2.7c4.8-2.3,8.6-5.8,11.3-10.5c2.8-4.7,4.3-9.9,4.3-15.6
			c0-5.3-1.1-9.9-3.4-14.1c-2.3-4.2-5.1-7.6-8.5-10.1c-3.4-2.5-7.3-4.1-11.6-5c-4.4-0.8-11.2-1.3-20.8-1.3h-45.6V326z M148.8,308.9
			h-25v-40H146c11.1,0,18.6,0.7,22.4,2.1c3.8,1.5,6.7,3.8,8.8,7c2,3.2,3,7,3,11.4c0,5.2-1.3,9.5-4,12.7c-2.5,3.2-6,5.2-10.3,6.1
			C163.3,308.6,157.5,308.9,148.8,308.9z M128.8,303.9h20c11,0,14.9-0.5,16.2-0.7c3.1-0.6,5.6-2.1,7.3-4.3c1.9-2.4,2.9-5.5,2.9-9.6
			c0-3.4-0.7-6.3-2.2-8.7c-1.5-2.2-3.6-3.9-6.4-5c-1.7-0.6-6.8-1.7-20.6-1.7h-17.2V303.9z M142.2,252.2h-18.4v-32.8h2.5V217h13.8
			c12.6,0,18.7,0.1,21.1,0.4c4.6,0.6,8.2,2.4,10.8,5.5c2.5,3,3.7,6.9,3.7,11.5c0,4.8-1.4,8.8-4.3,11.9c-2.8,3.1-6.6,4.9-11.3,5.5
			C157.8,252.1,152.6,252.2,142.2,252.2z M128.8,247.2h13.4c6.7,0,14.7,0,17.3-0.4c3.5-0.4,6.3-1.7,8.3-3.9c2-2.1,2.9-4.9,2.9-8.5
			c0-3.5-0.8-6.2-2.5-8.3c-1.7-2.1-4.2-3.3-7.6-3.7c-2.7-0.3-12.4-0.4-20.5-0.4h-11.3V247.2z"/>
	</g>
	<g>
		<path class="st1" d="M219,197.6h23.9v69.7c0,11.1,0.3,18.2,0.9,21.5c1,5.3,3.5,9.5,7.3,12.7s9.1,4.8,15.8,4.8
			c6.8,0,11.9-1.5,15.3-4.5c3.4-3,5.5-6.7,6.2-11.1s1.1-11.7,1.1-21.9v-71.2h23.9v67.6c0,15.4-0.6,26.4-1.9,32.7
			c-1.3,6.4-3.7,11.8-7.1,16.2c-3.5,4.4-8.1,7.9-13.9,10.5c-5.8,2.6-13.4,3.9-22.8,3.9c-11.3,0-19.9-1.4-25.7-4.3
			c-5.8-2.8-10.5-6.5-13.8-11.1c-3.4-4.5-5.6-9.3-6.7-14.3c-1.6-7.4-2.3-18.3-2.3-32.7v-68.5H219z"/>
		<path class="st1" d="M267.7,331c-11.9,0-20.7-1.5-26.8-4.6c-6.3-3-11.2-7-14.7-11.9c-3.5-4.6-5.9-9.8-7.1-15.2
			c-1.6-7.3-2.4-18.2-2.4-33.2v-68.5v-2.5h2.3h26.4v72.2c0,10.8,0.3,17.9,0.9,21.1c0.9,4.6,3,8.3,6.5,11.2c3.3,2.8,8.1,4.2,14.2,4.2
			c6.1,0,10.7-1.3,13.6-3.9c3-2.7,4.8-5.8,5.4-9.6c0.7-4.4,1.1-11.8,1.1-21.5v-73.7h28.9v70.1c0,16-0.6,26.8-2,33.2
			c-1.4,6.7-3.9,12.5-7.6,17.2c-3.8,4.7-8.8,8.5-14.9,11.3C285.4,329.6,277.4,331,267.7,331z M221.7,200.1v66
			c0,14.7,0.7,25.2,2.2,32.2c1,4.7,3.1,9.2,6.3,13.3c3,4.2,7.3,7.7,12.9,10.4c5.4,2.7,13.7,4.1,24.6,4.1c9,0,16.3-1.2,21.8-3.7
			c5.4-2.4,9.7-5.6,13-9.8c3.2-4.1,5.4-9.2,6.6-15.1c1.2-6,1.9-16.8,1.9-32.2v-65.1H292v68.7c0,10.1-0.4,17.6-1.1,22.3
			c-0.8,4.9-3.1,9.2-7,12.6c-3.9,3.4-9.6,5.1-17,5.1c-7.3,0-13.2-1.8-17.4-5.4c-4.3-3.6-7.1-8.4-8.1-14.1c-0.6-3.5-0.9-10.7-0.9-22
			v-67.2H221.7z"/>
	</g>
	<g>
		<path class="st1" d="M329.4,285l22.8-2.4c1.4,8.3,4.2,14.5,8.4,18.4s9.9,5.9,17,5.9c7.6,0,13.3-1.7,17.1-5.2s5.7-7.6,5.7-12.2
			c0-3-0.8-5.5-2.4-7.6c-1.6-2.1-4.4-3.9-8.4-5.5c-2.8-1-9-2.9-18.8-5.5c-12.6-3.4-21.4-7.6-26.5-12.5c-7.1-7-10.7-15.4-10.7-25.5
			c0-6.4,1.7-12.5,5-18.1c3.4-5.6,8.2-9.9,14.5-12.8s13.9-4.4,22.9-4.4c14.6,0,25.6,3.5,32.9,10.4c7.4,7,11.3,16.2,11.6,27.9
			L397,237c-1-6.5-3.2-11.2-6.5-14s-8.3-4.3-14.9-4.3c-6.8,0-12.2,1.5-16,4.6c-2.5,2-3.7,4.6-3.7,7.8c0,3,1.2,5.6,3.5,7.7
			c3,2.7,10.2,5.5,21.6,8.4c11.4,3,19.9,6,25.3,9.1c5.5,3.1,9.8,7.4,12.8,12.9c3.1,5.4,4.7,12.1,4.7,20.1c0,7.2-1.8,14-5.6,20.4
			c-3.7,6.3-8.9,11-15.7,14.1s-15.2,4.6-25.3,4.6c-14.7,0-26-3.7-33.9-11.1C335.7,310,331,299.2,329.4,285z"/>
		<path class="st1" d="M377.2,330.9c-15.3,0-27.3-4-35.6-11.8c-8.1-7.8-13-19.1-14.7-33.8l-0.3-2.5l27.6-2.9l0.4,2.3
			c1.3,7.8,3.9,13.5,7.6,17c3.7,3.5,8.9,5.2,15.3,5.2c7,0,12.1-1.5,15.4-4.5c3.3-3,4.9-6.4,4.9-10.4c0-2.4-0.6-4.4-1.9-6.1
			c-1.3-1.7-3.7-3.3-7.3-4.7c-1.2-0.4-6.3-2.2-18.5-5.4c-12.9-3.5-22.1-7.9-27.6-13.1c-7.6-7.5-11.5-16.7-11.5-27.3
			c0-6.8,1.8-13.3,5.3-19.4c3.7-6.1,9-10.7,15.6-13.8c6.7-3.1,14.7-4.6,23.9-4.6c15.2,0,26.8,3.7,34.6,11.1
			c7.9,7.5,12.1,17.5,12.4,29.7l0.1,2.4l-28.2,1.3l-0.3-2.2c-0.9-5.9-2.8-10.1-5.6-12.5c-2.9-2.5-7.4-3.7-13.3-3.7
			c-6.3,0-11.1,1.4-14.4,4c-1.9,1.5-2.8,3.4-2.8,5.9c0,2.3,0.9,4.2,2.7,5.9c1.8,1.6,6.9,4.4,20.5,7.8c12,3.2,20.5,6.2,25.9,9.4
			c5.9,3.3,10.5,8,13.7,13.9c3.3,5.8,5,13,5,21.3c0,7.7-2,15-6,21.7c-4,6.7-9.6,11.8-16.8,15.1C396.4,329.3,387.8,330.9,377.2,330.9
			z M332.2,287.2c1.8,12.3,6.1,21.8,12.8,28.3c7.4,6.9,18.2,10.4,32.2,10.4c9.9,0,17.8-1.4,24.3-4.4c6.3-2.9,11.1-7.2,14.6-13.1
			c3.5-6,5.3-12.2,5.3-19.1c0-7.5-1.5-13.8-4.4-18.9c-2.8-5.1-6.8-9.1-11.9-12c-5.1-2.9-13.2-5.8-24.7-8.9c-11.9-3-19.3-6-22.6-9
			c-2.8-2.6-4.3-5.9-4.3-9.6c0-4,1.6-7.3,4.6-9.8c4.2-3.4,10.1-5.1,17.6-5.1c7.1,0,12.7,1.6,16.5,4.9c3.4,2.9,5.7,7.3,7,13.3
			l18.8-0.9c-0.7-9.8-4.2-17.6-10.7-23.7c-6.8-6.4-17.3-9.7-31.2-9.7c-8.5,0-15.8,1.4-21.9,4.2c-5.7,2.6-10.2,6.6-13.4,11.8
			c-3.1,5.2-4.6,10.9-4.6,16.8c0,9.4,3.3,17.1,10,23.7c4.8,4.6,13.4,8.6,25.4,11.9c8.3,2.2,15.4,4.3,19,5.6c4.6,1.8,7.7,3.9,9.5,6.3
			c1.9,2.5,2.9,5.6,2.9,9.1c0,5.3-2.2,10.1-6.5,14c-4.3,3.9-10.4,5.9-18.8,5.9c-7.7,0-14-2.2-18.7-6.6c-4.2-3.9-7.1-9.8-8.7-17.5
			L332.2,287.2z"/>
	</g>
</g>
</svg>
