<?xml version="1.0" encoding="utf-8"?>
<!-- Generator: Adobe Illustrator 19.2.1, SVG Export Plug-In . SVG Version: 6.00 Build 0)  -->
<svg version="1.1" id="Layer_1" xmlns="http://www.w3.org/2000/svg" xmlns:xlink="http://www.w3.org/1999/xlink" x="0px" y="0px"
	 viewBox="0 0 1141.5 977" style="enable-background:new 0 0 1141.5 977;" xml:space="preserve">
<style type="text/css">
	.st0{fill:#FEECCA;}
	.st1{fill:#C9DFB0;}
	.st2{fill:#EADDC1;}
	.st3{fill:#EDD2D0;}
	.st4{fill:#FEFEEA;}
	.st5{fill-rule:evenodd;clip-rule:evenodd;fill:#FEFEEA;}
	.st6{fill:none;stroke:#FFFFFF;}
	.st7{fill:none;stroke:#FFFFFF;stroke-width:3.0821;}
	.st8{fill:#FFFFFF;}
	.st9{fill:#D8F0FC;}
	.st10{fill:#E6196E;}
	.st11{fill:none;stroke:#FF8200;stroke-width:10;stroke-miterlimit:10;}
	.st12{fill:#FF8200;}
	.st13{fill:none;stroke:#A9008F;stroke-width:10;stroke-miterlimit:10;}
	.st14{fill:#00A9A6;}
	.st15{fill:#FAB914;}
	.st16{fill:#5082C3;}
	.st17{fill:none;stroke:#000000;stroke-width:10;stroke-miterlimit:10;}
</style>
<polygon class="st0" points="757.8,392 757.8,537 698.3,537 664.8,503 590.8,577.5 422.3,412.1 573.7,260.6 599.9,288.6 
	624.6,258.9 "/>
<rect x="624.2" y="491" transform="matrix(0.7071 -0.7071 0.7071 0.7071 -227.9499 630.6608)" class="st1" width="46.2" height="199"/>
<polygon class="st1" points="675.8,514.5 675.8,487 720.8,487 720.8,537 698.3,537 "/>
<polygon class="st2" points="662.8,485 640.8,485 618.8,463 618.8,419 662.8,419 "/>
<rect x="785.8" y="196" class="st3" width="56" height="66"/>
<rect x="829.8" y="498" class="st2" width="30" height="50"/>
<rect x="350.8" class="st2" width="30" height="40"/>
<rect x="178.8" y="642" class="st3" width="66" height="66"/>
<polygon class="st2" points="833.8,862 833.8,884 811.8,906 767.8,906 767.8,862 "/>
<path class="st4" d="M370,25.5c1.1-0.2,2.2-1.3,2.2-2.7V12.7c0-1.4-1.2-2.7-2.8-2.7l-3.5,0l-3.5,0c-1.6,0-2.8,1.3-2.8,2.7v10.1
	c0,1.4,1.1,2.5,2.2,2.7l-3.3,4.5h1.9l2.3-3h6.4l2.3,3h1.9L370,25.5z M363.7,10.9c0-0.2,0.3-0.4,0.5-0.4h3.2c0.3,0,0.5,0.2,0.5,0.4
	v0.6c0,0.2-0.2,0.4-0.5,0.4h-3.2c-0.3,0-0.5-0.2-0.5-0.4V10.9z M362.4,24c-0.7,0-1.2-0.6-1.2-1.2c0-0.7,0.6-1.2,1.2-1.2
	c0.7,0,1.2,0.6,1.2,1.2C363.6,23.5,363.1,24,362.4,24z M362.5,17.5c-0.8,0-1.4-0.5-1.4-1.4v-1.8c0-0.8,0.5-1.4,1.4-1.4h6.8
	c0.9,0,1.4,0.7,1.4,1.4v1.8c0,0.9-0.6,1.4-1.4,1.4H362.5z M368,22.8c0-0.7,0.6-1.2,1.2-1.2c0.7,0,1.2,0.6,1.2,1.2
	c0,0.7-0.6,1.2-1.2,1.2C368.6,24,368,23.5,368,22.8z"/>
<polygon class="st4" points="810.5,239 817.1,239 817.1,232.3 823.8,232.3 823.8,225.7 817.1,225.7 817.1,219 810.5,219 
	810.5,225.7 803.8,225.7 803.8,232.3 810.5,232.3 "/>
<polygon class="st4" points="208.5,685 215.1,685 215.1,678.3 221.8,678.3 221.8,671.7 215.1,671.7 215.1,665 208.5,665 
	208.5,671.7 201.8,671.7 201.8,678.3 208.5,678.3 "/>
<path class="st4" d="M706.4,512.6l-5.2-4.9h2.9l-4.5-4.5l2.2,0.4l-3.4-4.7l-3.4,4.7l2.2-0.4l-4.5,4.5h2.9l-5.2,4.9l7.1-0.3v6.3
	c0,0.2,0.1,0.3,0.3,0.3h1.3c0.2,0,0.3-0.1,0.3-0.3v-6.3L706.4,512.6z"/>
<g>
	<path class="st5" d="M640.1,443.7l10.9,3.4h0v0v3.6c0.7,0.3,1.5,3.2-0.4,3.1c-2.2-0.1-1.1-2.8-0.4-3.1v-3.2l-9.5,4.2l-10.7-4.1
		L640.1,443.7z"/>
	<polygon class="st5" points="634.5,450.5 640.7,452.8 646.2,450.5 646.2,455.7 634.5,455.7 	"/>
</g>
<g>
	<path class="st5" d="M796.6,878l10.9,3.4h0v0v3.6c0.7,0.3,1.5,3.2-0.4,3.1c-2.2-0.1-1.1-2.8-0.4-3.1v-3.2l-9.5,4.2l-10.7-4.1
		L796.6,878z"/>
	<polygon class="st5" points="791,884.8 797.2,887.1 802.8,884.8 802.8,890 791,890 	"/>
</g>
<g>
	<polygon class="st6" points="837.3,533 837.3,513 852.3,513 852.3,523 852.3,533 	"/>
	<path class="st7" d="M837.3,523"/>
	<circle class="st7" cx="844.8" cy="523" r="1.5"/>
	<rect x="841.4" y="513" class="st6" width="6.7" height="2.8"/>
	<rect x="843.3" y="513" class="st6" width="3" height="0.9"/>
	<rect x="841.4" y="530.2" class="st6" width="6.7" height="2.8"/>
	<rect x="843.2" y="532.1" class="st6" width="3" height="0.9"/>
	<circle class="st8" cx="844.8" cy="523" r="0.1"/>
	<line class="st6" x1="852.3" y1="523" x2="837.3" y2="523"/>
</g>
<polygon class="st1" points="342.8,258.2 312.1,289.1 194.8,289 194.8,78 342.8,77 "/>
<path class="st4" d="M276.9,186.8l-5.2-4.9h2.9l-4.5-4.5l2.2,0.4l-3.4-4.7l-3.4,4.7l2.2-0.4l-4.5,4.5h2.9l-5.2,4.9l7.1-0.3v6.3
	c0,0.2,0.1,0.3,0.3,0.3h1.3c0.2,0,0.3-0.1,0.3-0.3v-6.3L276.9,186.8z"/>
<g>
	<path d="M392,49.4h-4.6v1.8h4.2v1.5h-4.2v2.2h4.8v1.6h-6.5v-8.6h6.3V49.4z"/>
	<path d="M394.8,54.4c0,0.3,0.1,0.5,0.2,0.6c0.2,0.2,0.6,0.3,1.2,0.3c0.3,0,0.6,0,0.8-0.1c0.2-0.1,0.3-0.2,0.3-0.4
		c0-0.2-0.1-0.3-0.2-0.4c-0.2-0.1-0.7-0.3-1.7-0.5c-0.7-0.2-1.2-0.4-1.5-0.7c-0.3-0.3-0.4-0.6-0.4-1.1c0-0.6,0.2-1.1,0.7-1.5
		c0.5-0.4,1.1-0.6,2-0.6c0.8,0,1.4,0.2,2,0.5s0.8,0.9,0.9,1.6h-1.7c0-0.2-0.1-0.4-0.2-0.5c-0.2-0.2-0.5-0.3-0.9-0.3
		c-0.4,0-0.6,0.1-0.8,0.2c-0.2,0.1-0.2,0.2-0.2,0.4c0,0.2,0.1,0.3,0.2,0.4c0.2,0.1,0.7,0.2,1.7,0.5c0.7,0.2,1.2,0.4,1.5,0.7
		c0.3,0.3,0.5,0.7,0.5,1.2c0,0.6-0.2,1.1-0.7,1.5c-0.5,0.4-1.2,0.6-2.2,0.6c-1,0-1.7-0.2-2.2-0.6c-0.5-0.4-0.7-1-0.7-1.6H394.8z"/>
	<path d="M399.5,51.3v-1.2h0.9v-1.8h1.7v1.8h1v1.2h-1v3.4c0,0.3,0,0.4,0.1,0.5s0.3,0.1,0.6,0.1c0.1,0,0.1,0,0.2,0s0.1,0,0.2,0v1.2
		l-0.8,0c-0.8,0-1.3-0.1-1.6-0.4c-0.2-0.2-0.3-0.5-0.3-0.9v-3.9H399.5z"/>
	<path d="M406.7,52.6c0.3,0,0.5-0.1,0.7-0.1c0.2-0.1,0.4-0.3,0.4-0.5c0-0.3-0.1-0.4-0.3-0.5s-0.5-0.1-0.8-0.1
		c-0.4,0-0.7,0.1-0.8,0.3c-0.1,0.1-0.2,0.3-0.2,0.6h-1.6c0-0.6,0.2-1,0.5-1.4c0.4-0.6,1.2-0.8,2.3-0.8c0.7,0,1.3,0.1,1.9,0.4
		c0.5,0.3,0.8,0.8,0.8,1.6v2.9c0,0.2,0,0.4,0,0.7c0,0.2,0,0.4,0.1,0.4s0.1,0.1,0.2,0.2v0.2h-1.8c-0.1-0.1-0.1-0.2-0.1-0.4
		s0-0.2,0-0.4c-0.2,0.2-0.5,0.5-0.8,0.6c-0.4,0.2-0.8,0.3-1.2,0.3c-0.6,0-1.1-0.2-1.4-0.5c-0.4-0.3-0.6-0.8-0.6-1.4
		c0-0.8,0.3-1.4,0.9-1.7c0.3-0.2,0.8-0.3,1.5-0.4L406.7,52.6z M407.7,53.4c-0.1,0.1-0.2,0.1-0.3,0.2c-0.1,0-0.3,0.1-0.4,0.1
		l-0.4,0.1c-0.4,0.1-0.6,0.1-0.8,0.2c-0.3,0.2-0.4,0.4-0.4,0.7c0,0.3,0.1,0.5,0.2,0.6c0.2,0.1,0.4,0.2,0.6,0.2c0.4,0,0.7-0.1,1-0.3
		c0.3-0.2,0.5-0.6,0.5-1.2V53.4z"/>
	<path d="M414.6,52.4c0-0.2-0.1-0.5-0.2-0.6c-0.2-0.3-0.5-0.4-0.9-0.4c-0.6,0-0.9,0.3-1.2,0.8c-0.1,0.3-0.2,0.7-0.2,1.2
		c0,0.5,0.1,0.8,0.2,1.1c0.2,0.5,0.6,0.8,1.1,0.8c0.4,0,0.7-0.1,0.8-0.3s0.3-0.5,0.3-0.8h1.7c0,0.5-0.2,1-0.6,1.4
		c-0.5,0.7-1.2,1.1-2.1,1.1l-0.4,0.5c0.1,0,0.2,0,0.3-0.1s0.1,0,0.2,0c0.3,0,0.6,0.1,0.8,0.2c0.2,0.2,0.3,0.4,0.3,0.7
		c0,0.4-0.1,0.6-0.4,0.9s-0.7,0.3-1.1,0.3c-0.2,0-0.4,0-0.7-0.1c-0.1,0-0.3-0.1-0.5-0.2l0.2-0.5c0.2,0.1,0.4,0.1,0.5,0.1
		c0.2,0,0.3,0.1,0.5,0.1c0.2,0,0.4-0.1,0.5-0.2s0.2-0.2,0.2-0.3c0-0.2-0.1-0.3-0.2-0.3s-0.2-0.1-0.4-0.1c-0.1,0-0.2,0-0.2,0
		c-0.1,0-0.2,0-0.3,0.1l-0.3-0.2l0.6-0.9c-0.7,0-1.3-0.3-1.8-0.9c-0.5-0.6-0.7-1.4-0.7-2.4c0-1.1,0.3-1.9,0.8-2.6
		c0.5-0.6,1.3-0.9,2.2-0.9c0.8,0,1.5,0.2,2,0.5s0.8,1,0.9,1.9H414.6z"/>
	<path d="M420,52.6c0.3,0,0.5-0.1,0.7-0.1c0.2-0.1,0.4-0.3,0.4-0.5c0-0.3-0.1-0.4-0.3-0.5s-0.5-0.1-0.8-0.1c-0.4,0-0.7,0.1-0.8,0.3
		c-0.1,0.1-0.2,0.3-0.2,0.6h-1.6c0-0.6,0.2-1,0.5-1.4c0.4-0.6,1.2-0.8,2.3-0.8c0.7,0,1.3,0.1,1.9,0.4c0.5,0.3,0.8,0.8,0.8,1.6v2.9
		c0,0.2,0,0.4,0,0.7c0,0.2,0,0.4,0.1,0.4s0.1,0.1,0.2,0.2v0.2h-1.8c-0.1-0.1-0.1-0.2-0.1-0.4s0-0.2,0-0.4c-0.2,0.2-0.5,0.5-0.8,0.6
		c-0.4,0.2-0.8,0.3-1.2,0.3c-0.6,0-1.1-0.2-1.4-0.5c-0.4-0.3-0.6-0.8-0.6-1.4c0-0.8,0.3-1.4,0.9-1.7c0.3-0.2,0.8-0.3,1.5-0.4
		L420,52.6z M419.7,47.7c0.1,0,0.2,0,0.3,0.1l0.6,0.2c0.2,0.1,0.3,0.1,0.3,0.1c0.1,0,0.1,0,0.2,0c0.2,0,0.3,0,0.4-0.1
		s0.1-0.2,0.2-0.4h0.8c-0.1,0.4-0.2,0.8-0.4,1s-0.5,0.4-0.9,0.4c-0.1,0-0.3,0-0.5-0.1c-0.1,0-0.3-0.1-0.4-0.1l-0.5-0.2
		c-0.1,0-0.1,0-0.2-0.1c-0.1,0-0.1,0-0.2,0c-0.1,0-0.3,0-0.4,0.1c-0.1,0.1-0.2,0.2-0.2,0.4h-0.8c0.1-0.4,0.2-0.7,0.3-0.9
		c0.2-0.4,0.6-0.6,1.1-0.6C419.4,47.7,419.5,47.7,419.7,47.7z M421.1,53.4c-0.1,0.1-0.2,0.1-0.3,0.2c-0.1,0-0.3,0.1-0.4,0.1
		l-0.4,0.1c-0.4,0.1-0.6,0.1-0.8,0.2c-0.3,0.2-0.4,0.4-0.4,0.7c0,0.3,0.1,0.5,0.2,0.6c0.2,0.1,0.4,0.2,0.6,0.2c0.4,0,0.7-0.1,1-0.3
		c0.3-0.2,0.5-0.6,0.5-1.2V53.4z"/>
	<path d="M429.5,55.7c-0.5,0.7-1.4,1-2.5,1s-1.9-0.3-2.5-1s-0.8-1.5-0.8-2.4c0-0.9,0.3-1.7,0.8-2.4c0.5-0.7,1.4-1,2.5-1
		s1.9,0.3,2.5,1c0.5,0.7,0.8,1.5,0.8,2.4C430.3,54.2,430,55,429.5,55.7z M428.2,54.8c0.3-0.3,0.4-0.8,0.4-1.5s-0.1-1.1-0.4-1.5
		c-0.3-0.3-0.6-0.5-1.1-0.5s-0.9,0.2-1.1,0.5c-0.3,0.3-0.4,0.8-0.4,1.5s0.1,1.1,0.4,1.5s0.6,0.5,1.1,0.5S427.9,55.1,428.2,54.8z"/>
	<path d="M435.8,48.7c0.7-0.7,1.6-1.1,2.7-1.1c1.4,0,2.5,0.5,3.2,1.4c0.4,0.5,0.6,1.1,0.6,1.6h-1.8c-0.1-0.4-0.3-0.7-0.4-0.9
		c-0.3-0.4-0.8-0.6-1.4-0.6c-0.6,0-1.2,0.3-1.5,0.8s-0.6,1.3-0.6,2.2s0.2,1.7,0.6,2.2c0.4,0.5,0.9,0.7,1.5,0.7
		c0.6,0,1.1-0.2,1.4-0.6c0.2-0.2,0.3-0.6,0.4-1h1.8c-0.2,0.9-0.5,1.7-1.2,2.3s-1.5,0.9-2.4,0.9c-1.2,0-2.2-0.4-2.9-1.2
		c-0.7-0.8-1.1-1.9-1.1-3.3C434.6,50.7,435,49.6,435.8,48.7z"/>
	<path d="M448.8,55.7c-0.5,0.7-1.4,1-2.5,1s-1.9-0.3-2.5-1s-0.8-1.5-0.8-2.4c0-0.9,0.3-1.7,0.8-2.4c0.5-0.7,1.4-1,2.5-1
		s1.9,0.3,2.5,1c0.5,0.7,0.8,1.5,0.8,2.4C449.6,54.2,449.4,55,448.8,55.7z M447.5,54.8c0.3-0.3,0.4-0.8,0.4-1.5s-0.1-1.1-0.4-1.5
		c-0.3-0.3-0.6-0.5-1.1-0.5s-0.9,0.2-1.1,0.5c-0.3,0.3-0.4,0.8-0.4,1.5s0.1,1.1,0.4,1.5s0.6,0.5,1.1,0.5S447.2,55.1,447.5,54.8z"/>
	<path d="M452.6,49.3h-1.7v-1.5h1.7V49.3z M450.9,50.1h1.7v6.4h-1.7V50.1z"/>
	<path d="M462.1,50.1c0.3,0.1,0.5,0.3,0.7,0.6c0.2,0.2,0.3,0.5,0.4,0.8c0,0.2,0.1,0.5,0.1,0.9l0,4h-1.7v-4.1c0-0.2,0-0.4-0.1-0.6
		c-0.1-0.3-0.4-0.4-0.8-0.4c-0.5,0-0.8,0.2-1,0.6c-0.1,0.2-0.1,0.4-0.1,0.7v3.8h-1.7v-3.8c0-0.4,0-0.7-0.1-0.8
		c-0.1-0.3-0.4-0.5-0.8-0.5c-0.5,0-0.8,0.2-1,0.5c-0.1,0.2-0.1,0.4-0.1,0.8v3.8h-1.7v-6.4h1.6V51c0.2-0.3,0.4-0.6,0.6-0.7
		c0.3-0.2,0.7-0.4,1.3-0.4c0.5,0,0.9,0.1,1.2,0.3c0.2,0.2,0.4,0.5,0.6,0.8c0.2-0.4,0.5-0.7,0.8-0.8c0.3-0.2,0.7-0.3,1.1-0.3
		C461.6,50,461.9,50,462.1,50.1z"/>
	<path d="M470.3,50.9c0.5,0.6,0.7,1.4,0.7,2.3c0,1-0.2,1.8-0.7,2.5c-0.5,0.7-1.1,1-2,1c-0.5,0-1-0.1-1.3-0.3
		c-0.2-0.1-0.4-0.3-0.6-0.7v0.8h-1.6v-8.6h1.7v3.1c0.2-0.3,0.4-0.5,0.7-0.7c0.3-0.2,0.7-0.3,1.2-0.3C469.2,50,469.8,50.3,470.3,50.9
		z M468.9,54.8c0.2-0.3,0.4-0.8,0.4-1.4c0-0.5-0.1-0.8-0.2-1.1c-0.2-0.6-0.6-0.8-1.2-0.8c-0.6,0-1,0.3-1.3,0.8
		c-0.1,0.3-0.2,0.7-0.2,1.1c0,0.5,0.1,1,0.4,1.4s0.6,0.5,1.1,0.5C468.3,55.3,468.7,55.1,468.9,54.8z"/>
	<path d="M475.7,49.9c0,0,0.1,0,0.1,0v1.7c-0.1,0-0.2,0-0.3,0s-0.1,0-0.2,0c-0.7,0-1.1,0.2-1.4,0.7c-0.1,0.2-0.2,0.6-0.2,1.1v3.1
		h-1.7v-6.4h1.6v1.1c0.3-0.4,0.5-0.7,0.7-0.9C474.7,50.1,475.1,49.9,475.7,49.9C475.7,49.9,475.7,49.9,475.7,49.9z"/>
	<path d="M479.4,52.6c0.3,0,0.5-0.1,0.7-0.1c0.2-0.1,0.4-0.3,0.4-0.5c0-0.3-0.1-0.4-0.3-0.5s-0.5-0.1-0.8-0.1
		c-0.4,0-0.7,0.1-0.8,0.3c-0.1,0.1-0.2,0.3-0.2,0.6h-1.6c0-0.6,0.2-1,0.5-1.4c0.4-0.6,1.2-0.8,2.3-0.8c0.7,0,1.3,0.1,1.9,0.4
		c0.5,0.3,0.8,0.8,0.8,1.6v2.9c0,0.2,0,0.4,0,0.7c0,0.2,0,0.4,0.1,0.4s0.1,0.1,0.2,0.2v0.2h-1.8c-0.1-0.1-0.1-0.2-0.1-0.4
		s0-0.2,0-0.4c-0.2,0.2-0.5,0.5-0.8,0.6c-0.4,0.2-0.8,0.3-1.2,0.3c-0.6,0-1.1-0.2-1.4-0.5c-0.4-0.3-0.6-0.8-0.6-1.4
		c0-0.8,0.3-1.4,0.9-1.7c0.3-0.2,0.8-0.3,1.5-0.4L479.4,52.6z M480.4,53.4c-0.1,0.1-0.2,0.1-0.3,0.2c-0.1,0-0.3,0.1-0.4,0.1
		l-0.4,0.1c-0.4,0.1-0.6,0.1-0.8,0.2c-0.3,0.2-0.4,0.4-0.4,0.7c0,0.3,0.1,0.5,0.2,0.6c0.2,0.1,0.4,0.2,0.6,0.2c0.4,0,0.7-0.1,1-0.3
		c0.3-0.2,0.5-0.6,0.5-1.2V53.4z"/>
	<path d="M483,52.3h3.3v1.6H483V52.3z"/>
	<path d="M494.1,48.8c0.3,0.4,0.4,0.8,0.4,1.3c0,0.5-0.1,1-0.4,1.3c-0.1,0.2-0.4,0.3-0.7,0.5c0.4,0.2,0.8,0.4,1,0.8
		c0.2,0.3,0.3,0.8,0.3,1.3c0,0.5-0.1,1-0.4,1.4c-0.2,0.3-0.4,0.5-0.6,0.7c-0.3,0.2-0.6,0.4-1,0.4s-0.8,0.1-1.2,0.1h-3.9v-8.6h4.2
		C492.9,47.9,493.6,48.2,494.1,48.8z M489.4,49.3v1.9h2.1c0.4,0,0.7-0.1,0.9-0.2c0.2-0.1,0.4-0.4,0.4-0.8c0-0.4-0.2-0.7-0.5-0.8
		c-0.3-0.1-0.6-0.1-1-0.1H489.4z M489.4,52.7V55h2.1c0.4,0,0.7-0.1,0.9-0.2c0.4-0.2,0.6-0.5,0.6-1.1c0-0.4-0.2-0.8-0.5-0.9
		c-0.2-0.1-0.5-0.1-0.9-0.1H489.4z"/>
</g>
<g>
	<path d="M1.2,664.8c0.7-0.7,1.6-1.1,2.7-1.1c1.4,0,2.5,0.5,3.2,1.4c0.4,0.5,0.6,1.1,0.6,1.6H5.8c-0.1-0.4-0.3-0.7-0.4-0.9
		c-0.3-0.4-0.8-0.6-1.4-0.6c-0.6,0-1.2,0.3-1.5,0.8s-0.6,1.3-0.6,2.2s0.2,1.7,0.6,2.2s0.9,0.7,1.5,0.7c0.6,0,1.1-0.2,1.4-0.6
		c0.2-0.2,0.3-0.6,0.4-1h1.8c-0.2,0.9-0.5,1.7-1.2,2.3c-0.6,0.6-1.4,0.9-2.4,0.9c-1.2,0-2.2-0.4-2.9-1.2c-0.7-0.8-1.1-1.9-1.1-3.3
		C0,666.8,0.4,665.6,1.2,664.8z"/>
	<path d="M9,672.6v-8.6h1.8v3.3h3.4v-3.3H16v8.6h-1.8v-3.9h-3.4v3.9H9z"/>
	<path d="M17.7,663.9h1.8v5.3c0,0.6,0.1,1,0.2,1.3c0.2,0.5,0.7,0.7,1.4,0.7c0.7,0,1.2-0.2,1.4-0.7c0.1-0.3,0.2-0.7,0.2-1.3v-5.3h1.8
		v5.3c0,0.9-0.1,1.6-0.4,2.1c-0.5,0.9-1.5,1.4-3,1.4c-1.5,0-2.5-0.5-3-1.4c-0.3-0.5-0.4-1.2-0.4-2.1V663.9z"/>
	<path d="M27.2,664.8c0.7-0.7,1.6-1.1,2.7-1.1c1.4,0,2.5,0.5,3.2,1.4c0.4,0.5,0.6,1.1,0.6,1.6h-1.8c-0.1-0.4-0.3-0.7-0.4-0.9
		c-0.3-0.4-0.8-0.6-1.4-0.6c-0.6,0-1.2,0.3-1.5,0.8s-0.6,1.3-0.6,2.2s0.2,1.7,0.6,2.2s0.9,0.7,1.5,0.7c0.6,0,1.1-0.2,1.4-0.6
		c0.2-0.2,0.3-0.6,0.4-1h1.8c-0.2,0.9-0.5,1.7-1.2,2.3c-0.6,0.6-1.4,0.9-2.4,0.9c-1.2,0-2.2-0.4-2.9-1.2c-0.7-0.8-1.1-1.9-1.1-3.3
		C26,666.8,26.4,665.6,27.2,664.8z"/>
	<path d="M38.7,666.1c0.3-0.7,0.8-1.5,1.4-2.3h1.3l-0.4,0.7c-0.5,0.9-0.8,1.8-1,2.8c-0.1,0.6-0.2,1.4-0.2,2.1c0,1.2,0.2,2.3,0.5,3.3
		c0.2,0.6,0.6,1.4,1.1,2.3h-1.2l-0.4-0.6c-0.3-0.3-0.6-0.9-0.9-1.5c-0.5-1.2-0.8-2.4-0.8-3.6C38,668.2,38.2,667.2,38.7,666.1z"/>
	<path d="M43.2,664.8c0.7-0.7,1.6-1.1,2.7-1.1c1.4,0,2.5,0.5,3.2,1.4c0.4,0.5,0.6,1.1,0.6,1.6h-1.8c-0.1-0.4-0.3-0.7-0.4-0.9
		c-0.3-0.4-0.8-0.6-1.4-0.6c-0.6,0-1.2,0.3-1.5,0.8s-0.6,1.3-0.6,2.2s0.2,1.7,0.6,2.2s0.9,0.7,1.5,0.7c0.6,0,1.1-0.2,1.4-0.6
		c0.2-0.2,0.3-0.6,0.4-1h1.8c-0.2,0.9-0.5,1.7-1.2,2.3c-0.6,0.6-1.4,0.9-2.4,0.9c-1.2,0-2.2-0.4-2.9-1.2c-0.7-0.8-1.1-1.9-1.1-3.3
		C42,666.8,42.4,665.6,43.2,664.8z"/>
	<path d="M56.2,671.8c-0.5,0.7-1.4,1-2.5,1s-1.9-0.3-2.5-1s-0.8-1.5-0.8-2.4c0-0.9,0.3-1.7,0.8-2.4c0.5-0.7,1.4-1,2.5-1
		s1.9,0.3,2.5,1c0.5,0.7,0.8,1.5,0.8,2.4C57,670.3,56.8,671.1,56.2,671.8z M54.9,670.9c0.3-0.3,0.4-0.8,0.4-1.5s-0.1-1.1-0.4-1.5
		s-0.6-0.5-1.1-0.5s-0.9,0.2-1.1,0.5s-0.4,0.8-0.4,1.5s0.1,1.1,0.4,1.5s0.6,0.5,1.1,0.5S54.6,671.2,54.9,670.9z"/>
	<path d="M62.2,666.2H64l-2.3,6.4h-1.8l-2.3-6.4h1.9l1.3,4.7L62.2,666.2z"/>
	<path d="M70.2,671.8c-0.5,0.7-1.4,1-2.5,1s-1.9-0.3-2.5-1s-0.8-1.5-0.8-2.4c0-0.9,0.3-1.7,0.8-2.4c0.5-0.7,1.4-1,2.5-1
		s1.9,0.3,2.5,1c0.5,0.7,0.8,1.5,0.8,2.4C71,670.3,70.8,671.1,70.2,671.8z M67.3,663.8c0.1,0,0.2,0,0.3,0.1l0.6,0.2
		c0.2,0.1,0.3,0.1,0.3,0.1c0.1,0,0.1,0,0.2,0c0.2,0,0.3,0,0.4-0.1s0.1-0.2,0.2-0.4H70c-0.1,0.4-0.2,0.8-0.4,1s-0.5,0.4-0.9,0.4
		c-0.1,0-0.3,0-0.5-0.1c-0.1,0-0.3-0.1-0.4-0.1l-0.5-0.2c-0.1,0-0.1,0-0.2-0.1s-0.1,0-0.2,0c-0.1,0-0.3,0-0.4,0.1
		c-0.1,0.1-0.2,0.2-0.2,0.4h-0.8c0.1-0.4,0.2-0.7,0.3-0.9c0.2-0.4,0.6-0.6,1.1-0.6C67.1,663.7,67.2,663.8,67.3,663.8z M68.9,670.9
		c0.3-0.3,0.4-0.8,0.4-1.5s-0.1-1.1-0.4-1.5s-0.6-0.5-1.1-0.5s-0.9,0.2-1.1,0.5s-0.4,0.8-0.4,1.5s0.1,1.1,0.4,1.5s0.6,0.5,1.1,0.5
		S68.6,671.2,68.9,670.9z"/>
	<path d="M76.4,666.3c0.4,0.2,0.8,0.5,1.1,0.9c0.3,0.4,0.4,0.8,0.5,1.3c0,0.3,0.1,0.7,0.1,1.3h-4.7c0,0.6,0.2,1.1,0.7,1.3
		c0.3,0.2,0.6,0.2,0.9,0.2c0.4,0,0.7-0.1,0.9-0.3c0.1-0.1,0.2-0.3,0.3-0.4H78c0,0.4-0.3,0.8-0.6,1.2c-0.6,0.6-1.4,0.9-2.4,0.9
		c-0.8,0-1.6-0.3-2.2-0.8c-0.6-0.5-1-1.4-1-2.6c0-1.1,0.3-2,0.9-2.5c0.6-0.6,1.3-0.9,2.3-0.9C75.5,666,76,666.1,76.4,666.3z
		 M73.9,667.7c-0.2,0.2-0.4,0.6-0.4,1h2.9c0-0.4-0.2-0.8-0.4-1c-0.3-0.2-0.6-0.3-1-0.3C74.5,667.4,74.1,667.5,73.9,667.7z"/>
	<path d="M80.2,670.5c0,0.3,0.1,0.5,0.2,0.6c0.2,0.2,0.6,0.3,1.2,0.3c0.3,0,0.6,0,0.8-0.1s0.3-0.2,0.3-0.4c0-0.2-0.1-0.3-0.2-0.4
		s-0.7-0.3-1.7-0.5c-0.7-0.2-1.2-0.4-1.5-0.7c-0.3-0.3-0.4-0.6-0.4-1.1c0-0.6,0.2-1.1,0.7-1.5s1.1-0.6,2-0.6c0.8,0,1.4,0.2,2,0.5
		c0.5,0.3,0.8,0.9,0.9,1.6h-1.7c0-0.2-0.1-0.4-0.2-0.5c-0.2-0.2-0.5-0.3-0.9-0.3c-0.4,0-0.6,0.1-0.8,0.2s-0.2,0.2-0.2,0.4
		c0,0.2,0.1,0.3,0.2,0.4c0.2,0.1,0.7,0.2,1.7,0.5c0.7,0.2,1.2,0.4,1.5,0.7c0.3,0.3,0.5,0.7,0.5,1.2c0,0.6-0.2,1.1-0.7,1.5
		s-1.2,0.6-2.2,0.6c-1,0-1.7-0.2-2.2-0.6s-0.7-1-0.7-1.6H80.2z"/>
	<path d="M87.6,666.1c0.5,1.1,0.7,2.1,0.7,3.2c0,1.2-0.3,2.4-0.8,3.6c-0.3,0.7-0.6,1.2-0.9,1.5l-0.4,0.6h-1.2
		c0.5-0.9,0.9-1.7,1.1-2.3c0.3-1,0.5-2.1,0.5-3.3c0-0.8-0.1-1.5-0.2-2.1c-0.2-1-0.5-1.9-1-2.8l-0.4-0.7h1.3
		C86.8,664.6,87.3,665.4,87.6,666.1z"/>
</g>
<g>
	<path d="M335.1,617.3c0.1,0.4,0.2,0.7,0.3,0.9c0.3,0.4,0.8,0.5,1.5,0.5c0.4,0,0.8,0,1.1-0.1c0.5-0.2,0.8-0.5,0.8-1
		c0-0.3-0.1-0.5-0.4-0.7c-0.3-0.2-0.7-0.3-1.2-0.4l-0.9-0.2c-0.9-0.2-1.6-0.4-1.9-0.7c-0.6-0.4-0.9-1-0.9-1.9c0-0.8,0.3-1.4,0.9-1.9
		s1.4-0.8,2.5-0.8c0.9,0,1.7,0.2,2.4,0.7c0.7,0.5,1,1.2,1,2.1h-1.7c0-0.5-0.3-0.9-0.7-1.1c-0.3-0.1-0.6-0.2-1.1-0.2
		c-0.5,0-0.9,0.1-1.1,0.3s-0.4,0.4-0.4,0.8c0,0.3,0.1,0.5,0.4,0.7c0.2,0.1,0.6,0.2,1.1,0.4l1.5,0.4c0.7,0.2,1.2,0.4,1.5,0.6
		c0.5,0.4,0.8,1,0.8,1.8c0,0.8-0.3,1.4-0.9,2c-0.6,0.5-1.5,0.8-2.6,0.8c-1.1,0-2-0.3-2.7-0.8s-1-1.2-1-2.1H335.1z"/>
	<path d="M344.2,616.1c0.3,0,0.5-0.1,0.7-0.1c0.2-0.1,0.4-0.3,0.4-0.5c0-0.3-0.1-0.4-0.3-0.5c-0.2-0.1-0.5-0.1-0.8-0.1
		c-0.4,0-0.7,0.1-0.8,0.3c-0.1,0.1-0.2,0.3-0.2,0.6h-1.6c0-0.6,0.2-1,0.5-1.4c0.4-0.6,1.2-0.8,2.3-0.8c0.7,0,1.3,0.1,1.9,0.4
		s0.8,0.8,0.8,1.6v2.9c0,0.2,0,0.4,0,0.7c0,0.2,0,0.4,0.1,0.4s0.1,0.1,0.2,0.2v0.2h-1.8c-0.1-0.1-0.1-0.2-0.1-0.4s0-0.2,0-0.4
		c-0.2,0.2-0.5,0.5-0.8,0.6c-0.4,0.2-0.8,0.3-1.2,0.3c-0.6,0-1.1-0.2-1.4-0.5c-0.4-0.3-0.6-0.8-0.6-1.4c0-0.8,0.3-1.4,0.9-1.7
		c0.3-0.2,0.8-0.3,1.5-0.4L344.2,616.1z M345.2,616.8c-0.1,0.1-0.2,0.1-0.3,0.2s-0.3,0.1-0.4,0.1l-0.4,0.1c-0.4,0.1-0.6,0.1-0.8,0.2
		c-0.3,0.2-0.4,0.4-0.4,0.7c0,0.3,0.1,0.5,0.2,0.6c0.2,0.1,0.4,0.2,0.6,0.2c0.4,0,0.7-0.1,1-0.3s0.5-0.6,0.5-1.2V616.8z"/>
	<path d="M353.5,613.9c0.4,0.3,0.6,0.9,0.6,1.7v4.3h-1.7v-3.9c0-0.3,0-0.6-0.1-0.8c-0.2-0.3-0.5-0.5-0.9-0.5c-0.6,0-0.9,0.2-1.2,0.7
		c-0.1,0.3-0.2,0.6-0.2,1v3.5h-1.7v-6.4h1.6v0.9c0.2-0.3,0.4-0.6,0.6-0.7c0.3-0.3,0.8-0.4,1.3-0.4
		C352.6,613.4,353.1,613.6,353.5,613.9z"/>
	<path d="M355,614.8v-1.2h0.9v-1.8h1.7v1.8h1v1.2h-1v3.4c0,0.3,0,0.4,0.1,0.5s0.3,0.1,0.6,0.1c0.1,0,0.1,0,0.2,0s0.1,0,0.2,0v1.2
		l-0.8,0c-0.8,0-1.3-0.1-1.6-0.4c-0.2-0.2-0.3-0.5-0.3-0.9v-3.9H355z"/>
	<path d="M362.2,616.1c0.3,0,0.5-0.1,0.7-0.1c0.2-0.1,0.4-0.3,0.4-0.5c0-0.3-0.1-0.4-0.3-0.5c-0.2-0.1-0.5-0.1-0.8-0.1
		c-0.4,0-0.7,0.1-0.8,0.3c-0.1,0.1-0.2,0.3-0.2,0.6h-1.6c0-0.6,0.2-1,0.5-1.4c0.4-0.6,1.2-0.8,2.3-0.8c0.7,0,1.3,0.1,1.9,0.4
		s0.8,0.8,0.8,1.6v2.9c0,0.2,0,0.4,0,0.7c0,0.2,0,0.4,0.1,0.4s0.1,0.1,0.2,0.2v0.2h-1.8c-0.1-0.1-0.1-0.2-0.1-0.4s0-0.2,0-0.4
		c-0.2,0.2-0.5,0.5-0.8,0.6c-0.4,0.2-0.8,0.3-1.2,0.3c-0.6,0-1.1-0.2-1.4-0.5c-0.4-0.3-0.6-0.8-0.6-1.4c0-0.8,0.3-1.4,0.9-1.7
		c0.3-0.2,0.8-0.3,1.5-0.4L362.2,616.1z M363.2,616.8c-0.1,0.1-0.2,0.1-0.3,0.2s-0.3,0.1-0.4,0.1l-0.4,0.1c-0.4,0.1-0.6,0.1-0.8,0.2
		c-0.3,0.2-0.4,0.4-0.4,0.7c0,0.3,0.1,0.5,0.2,0.6c0.2,0.1,0.4,0.2,0.6,0.2c0.4,0,0.7-0.1,1-0.3s0.5-0.6,0.5-1.2V616.8z"/>
	<path d="M370.7,612.2c0.7-0.7,1.6-1.1,2.7-1.1c1.4,0,2.5,0.5,3.2,1.4c0.4,0.5,0.6,1.1,0.6,1.6h-1.8c-0.1-0.4-0.3-0.7-0.4-0.9
		c-0.3-0.4-0.8-0.6-1.4-0.6c-0.6,0-1.2,0.3-1.5,0.8s-0.6,1.3-0.6,2.2s0.2,1.7,0.6,2.2s0.9,0.7,1.5,0.7c0.6,0,1.1-0.2,1.4-0.6
		c0.2-0.2,0.3-0.6,0.4-1h1.8c-0.2,0.9-0.5,1.7-1.2,2.3c-0.6,0.6-1.4,0.9-2.4,0.9c-1.2,0-2.2-0.4-2.9-1.2c-0.7-0.8-1.1-1.9-1.1-3.3
		C369.5,614.2,369.9,613,370.7,612.2z"/>
	<path d="M380.1,619.9h-1.7v-8.6h1.7V619.9z"/>
	<path d="M384.2,616.1c0.3,0,0.5-0.1,0.7-0.1c0.2-0.1,0.4-0.3,0.4-0.5c0-0.3-0.1-0.4-0.3-0.5c-0.2-0.1-0.5-0.1-0.8-0.1
		c-0.4,0-0.7,0.1-0.8,0.3c-0.1,0.1-0.2,0.3-0.2,0.6h-1.6c0-0.6,0.2-1,0.5-1.4c0.4-0.6,1.2-0.8,2.3-0.8c0.7,0,1.3,0.1,1.9,0.4
		s0.8,0.8,0.8,1.6v2.9c0,0.2,0,0.4,0,0.7c0,0.2,0,0.4,0.1,0.4s0.1,0.1,0.2,0.2v0.2h-1.8c-0.1-0.1-0.1-0.2-0.1-0.4s0-0.2,0-0.4
		c-0.2,0.2-0.5,0.5-0.8,0.6c-0.4,0.2-0.8,0.3-1.2,0.3c-0.6,0-1.1-0.2-1.4-0.5c-0.4-0.3-0.6-0.8-0.6-1.4c0-0.8,0.3-1.4,0.9-1.7
		c0.3-0.2,0.8-0.3,1.5-0.4L384.2,616.1z M385.2,616.8c-0.1,0.1-0.2,0.1-0.3,0.2s-0.3,0.1-0.4,0.1l-0.4,0.1c-0.4,0.1-0.6,0.1-0.8,0.2
		c-0.3,0.2-0.4,0.4-0.4,0.7c0,0.3,0.1,0.5,0.2,0.6c0.2,0.1,0.4,0.2,0.6,0.2c0.4,0,0.7-0.1,1-0.3s0.5-0.6,0.5-1.2V616.8z"/>
	<path d="M391.9,613.4c0,0,0.1,0,0.1,0v1.7c-0.1,0-0.2,0-0.3,0s-0.1,0-0.2,0c-0.7,0-1.1,0.2-1.4,0.7c-0.1,0.2-0.2,0.6-0.2,1.1v3.1
		h-1.7v-6.4h1.6v1.1c0.3-0.4,0.5-0.7,0.7-0.9C390.9,613.5,391.3,613.4,391.9,613.4C391.9,613.4,391.9,613.4,391.9,613.4z"/>
	<path d="M395.6,616.1c0.3,0,0.5-0.1,0.7-0.1c0.2-0.1,0.4-0.3,0.4-0.5c0-0.3-0.1-0.4-0.3-0.5c-0.2-0.1-0.5-0.1-0.8-0.1
		c-0.4,0-0.7,0.1-0.8,0.3c-0.1,0.1-0.2,0.3-0.2,0.6h-1.6c0-0.6,0.2-1,0.5-1.4c0.4-0.6,1.2-0.8,2.3-0.8c0.7,0,1.3,0.1,1.9,0.4
		s0.8,0.8,0.8,1.6v2.9c0,0.2,0,0.4,0,0.7c0,0.2,0,0.4,0.1,0.4s0.1,0.1,0.2,0.2v0.2h-1.8c-0.1-0.1-0.1-0.2-0.1-0.4s0-0.2,0-0.4
		c-0.2,0.2-0.5,0.5-0.8,0.6c-0.4,0.2-0.8,0.3-1.2,0.3c-0.6,0-1.1-0.2-1.4-0.5c-0.4-0.3-0.6-0.8-0.6-1.4c0-0.8,0.3-1.4,0.9-1.7
		c0.3-0.2,0.8-0.3,1.5-0.4L395.6,616.1z M396.6,616.8c-0.1,0.1-0.2,0.1-0.3,0.2s-0.3,0.1-0.4,0.1l-0.4,0.1c-0.4,0.1-0.6,0.1-0.8,0.2
		c-0.3,0.2-0.4,0.4-0.4,0.7c0,0.3,0.1,0.5,0.2,0.6c0.2,0.1,0.4,0.2,0.6,0.2c0.4,0,0.7-0.1,1-0.3s0.5-0.6,0.5-1.2V616.8z"/>
</g>
<g>
	<path d="M1114.9,383.8v1.5h-2.6v7.1h-1.8v-7.1h-2.6v-1.5H1114.9z"/>
	<path d="M1120.3,391.6c-0.5,0.7-1.4,1-2.5,1s-1.9-0.3-2.5-1s-0.8-1.5-0.8-2.4c0-0.9,0.3-1.7,0.8-2.4c0.5-0.7,1.4-1,2.5-1
		s1.9,0.3,2.5,1c0.5,0.7,0.8,1.5,0.8,2.4C1121.1,390.2,1120.8,391,1120.3,391.6z M1119,390.7c0.3-0.3,0.4-0.8,0.4-1.5
		s-0.1-1.1-0.4-1.5c-0.3-0.3-0.6-0.5-1.1-0.5s-0.9,0.2-1.1,0.5c-0.3,0.3-0.4,0.8-0.4,1.5s0.1,1.1,0.4,1.5s0.6,0.5,1.1,0.5
		S1118.7,391,1119,390.7z"/>
	<path d="M1126.2,386h1.8l-2.3,6.4h-1.8l-2.3-6.4h1.9l1.3,4.7L1126.2,386z"/>
	<path d="M1130.7,385.3h-1.7v-1.5h1.7V385.3z M1129,386h1.7v6.4h-1.7V386z"/>
	<path d="M1140.3,386c0.3,0.1,0.5,0.3,0.7,0.6c0.2,0.2,0.3,0.5,0.4,0.8c0,0.2,0.1,0.5,0.1,0.9l0,4h-1.7v-4.1c0-0.2,0-0.4-0.1-0.6
		c-0.1-0.3-0.4-0.4-0.8-0.4c-0.5,0-0.8,0.2-1,0.6c-0.1,0.2-0.1,0.4-0.1,0.7v3.8h-1.7v-3.8c0-0.4,0-0.7-0.1-0.8
		c-0.1-0.3-0.4-0.5-0.8-0.5c-0.5,0-0.8,0.2-1,0.5c-0.1,0.2-0.1,0.4-0.1,0.8v3.8h-1.7V386h1.6v0.9c0.2-0.3,0.4-0.6,0.6-0.7
		c0.3-0.2,0.7-0.4,1.3-0.4c0.5,0,0.9,0.1,1.2,0.3c0.2,0.2,0.4,0.5,0.6,0.8c0.2-0.4,0.5-0.7,0.8-0.8c0.3-0.2,0.7-0.3,1.1-0.3
		C1139.7,385.9,1140,385.9,1140.3,386z"/>
</g>
<g>
	<path d="M791.2,605.8h-4.6v1.8h4.2v1.5h-4.2v2.2h4.8v1.6h-6.5v-8.6h6.3V605.8z"/>
	<path d="M794,610.8c0,0.3,0.1,0.5,0.2,0.6c0.2,0.2,0.6,0.3,1.2,0.3c0.3,0,0.6,0,0.8-0.1s0.3-0.2,0.3-0.4c0-0.2-0.1-0.3-0.2-0.4
		c-0.2-0.1-0.7-0.3-1.7-0.5c-0.7-0.2-1.2-0.4-1.5-0.7c-0.3-0.3-0.4-0.6-0.4-1.1c0-0.6,0.2-1.1,0.7-1.5s1.1-0.6,2-0.6
		c0.8,0,1.4,0.2,2,0.5c0.5,0.3,0.8,0.9,0.9,1.7h-1.7c0-0.2-0.1-0.4-0.2-0.5c-0.2-0.2-0.5-0.3-0.9-0.3c-0.4,0-0.6,0.1-0.8,0.2
		s-0.2,0.2-0.2,0.4c0,0.2,0.1,0.3,0.2,0.4c0.2,0.1,0.7,0.2,1.7,0.5c0.7,0.2,1.2,0.4,1.5,0.7c0.3,0.3,0.5,0.7,0.5,1.2
		c0,0.6-0.2,1.1-0.7,1.5s-1.2,0.6-2.2,0.6c-1,0-1.7-0.2-2.2-0.6s-0.7-1-0.7-1.6H794z"/>
	<path d="M798.7,607.7v-1.2h0.9v-1.8h1.7v1.8h1v1.2h-1v3.4c0,0.3,0,0.4,0.1,0.5s0.3,0.1,0.6,0.1c0.1,0,0.1,0,0.2,0s0.1,0,0.2,0v1.2
		l-0.8,0c-0.8,0-1.3-0.1-1.6-0.4c-0.2-0.2-0.3-0.5-0.3-0.9v-3.9H798.7z"/>
	<path d="M805.9,609c0.3,0,0.5-0.1,0.7-0.1c0.2-0.1,0.4-0.3,0.4-0.5c0-0.3-0.1-0.4-0.3-0.5c-0.2-0.1-0.5-0.1-0.8-0.1
		c-0.4,0-0.7,0.1-0.8,0.3c-0.1,0.1-0.2,0.3-0.2,0.6h-1.6c0-0.6,0.2-1,0.5-1.4c0.4-0.6,1.2-0.8,2.3-0.8c0.7,0,1.3,0.1,1.9,0.4
		s0.8,0.8,0.8,1.6v2.9c0,0.2,0,0.4,0,0.7c0,0.2,0,0.4,0.1,0.4s0.1,0.1,0.2,0.2v0.2h-1.8c-0.1-0.1-0.1-0.2-0.1-0.4s0-0.2,0-0.4
		c-0.2,0.2-0.5,0.5-0.8,0.6c-0.4,0.2-0.8,0.3-1.2,0.3c-0.6,0-1.1-0.2-1.4-0.5s-0.6-0.8-0.6-1.4c0-0.8,0.3-1.4,0.9-1.7
		c0.3-0.2,0.8-0.3,1.5-0.4L805.9,609z M806.9,609.8c-0.1,0.1-0.2,0.1-0.3,0.2s-0.3,0.1-0.4,0.1l-0.4,0.1c-0.4,0.1-0.6,0.1-0.8,0.2
		c-0.3,0.2-0.4,0.4-0.4,0.7c0,0.3,0.1,0.5,0.2,0.6s0.4,0.2,0.6,0.2c0.4,0,0.7-0.1,1-0.3s0.5-0.6,0.5-1.2V609.8z M808,603.9l-1.8,1.8
		H805l1.1-1.8H808z"/>
	<path d="M813.4,606.6c0.3,0.2,0.5,0.4,0.7,0.7v-3h1.7v8.6h-1.6V612c-0.2,0.4-0.5,0.7-0.8,0.8s-0.7,0.3-1.1,0.3
		c-0.7,0-1.4-0.3-1.9-0.9s-0.8-1.4-0.8-2.3c0-1.1,0.2-1.9,0.8-2.6s1.2-0.9,2-0.9C812.8,606.3,813.1,606.4,813.4,606.6z M813.9,611.1
		c0.2-0.4,0.4-0.8,0.4-1.4c0-0.8-0.2-1.3-0.6-1.7c-0.2-0.2-0.5-0.3-0.8-0.3c-0.5,0-0.8,0.2-1.1,0.6s-0.3,0.8-0.3,1.4
		c0,0.6,0.1,1.1,0.3,1.4s0.6,0.5,1.1,0.5S813.6,611.5,813.9,611.1z"/>
	<path d="M819.1,605.7h-1.7v-1.5h1.7V605.7z M817.4,606.5h1.7v6.4h-1.7V606.5z"/>
	<path d="M826.1,612.1c-0.5,0.7-1.4,1-2.5,1s-1.9-0.3-2.5-1c-0.5-0.7-0.8-1.5-0.8-2.4c0-0.9,0.3-1.7,0.8-2.4c0.5-0.7,1.4-1,2.5-1
		s1.9,0.3,2.5,1c0.5,0.7,0.8,1.5,0.8,2.4C826.9,610.6,826.6,611.4,826.1,612.1z M824.7,611.2c0.3-0.3,0.4-0.8,0.4-1.5
		c0-0.6-0.1-1.1-0.4-1.5c-0.3-0.3-0.6-0.5-1.1-0.5s-0.9,0.2-1.1,0.5c-0.3,0.3-0.4,0.8-0.4,1.5c0,0.6,0.1,1.1,0.4,1.5
		c0.3,0.3,0.6,0.5,1.1,0.5S824.5,611.5,824.7,611.2z"/>
</g>
<g>
	<path d="M831.8,648.9c0.3,0.4,0.4,0.8,0.4,1.3c0,0.5-0.1,1-0.4,1.3c-0.1,0.2-0.4,0.3-0.7,0.5c0.4,0.2,0.8,0.4,1,0.8
		s0.3,0.8,0.3,1.3c0,0.5-0.1,1-0.4,1.4c-0.2,0.3-0.4,0.5-0.6,0.7c-0.3,0.2-0.6,0.4-1,0.4c-0.4,0.1-0.8,0.1-1.2,0.1h-3.9v-8.6h4.2
		C830.6,648,831.4,648.3,831.8,648.9z M827.1,649.4v1.9h2.1c0.4,0,0.7-0.1,0.9-0.2c0.2-0.1,0.3-0.4,0.3-0.8c0-0.4-0.2-0.7-0.5-0.8
		c-0.3-0.1-0.6-0.1-1-0.1H827.1z M827.1,652.8v2.3h2.1c0.4,0,0.7-0.1,0.9-0.2c0.4-0.2,0.6-0.5,0.6-1.1c0-0.4-0.2-0.8-0.5-0.9
		c-0.2-0.1-0.5-0.1-0.9-0.1H827.1z"/>
	<path d="M836.4,652.7c0.3,0,0.5-0.1,0.7-0.1c0.2-0.1,0.4-0.3,0.4-0.5c0-0.3-0.1-0.4-0.3-0.5c-0.2-0.1-0.5-0.1-0.8-0.1
		c-0.4,0-0.7,0.1-0.8,0.3c-0.1,0.1-0.2,0.3-0.2,0.6h-1.6c0-0.6,0.2-1,0.5-1.4c0.4-0.6,1.2-0.8,2.3-0.8c0.7,0,1.3,0.1,1.9,0.4
		s0.8,0.8,0.8,1.6v2.9c0,0.2,0,0.4,0,0.7c0,0.2,0,0.4,0.1,0.4s0.1,0.1,0.2,0.2v0.2h-1.8c-0.1-0.1-0.1-0.2-0.1-0.4s0-0.2,0-0.4
		c-0.2,0.2-0.5,0.5-0.8,0.6c-0.4,0.2-0.8,0.3-1.2,0.3c-0.6,0-1.1-0.2-1.4-0.5c-0.4-0.3-0.6-0.8-0.6-1.4c0-0.8,0.3-1.4,0.9-1.7
		c0.3-0.2,0.8-0.3,1.5-0.4L836.4,652.7z M837.4,653.5c-0.1,0.1-0.2,0.1-0.3,0.2s-0.3,0.1-0.4,0.1l-0.4,0.1c-0.4,0.1-0.6,0.1-0.8,0.2
		c-0.3,0.2-0.4,0.4-0.4,0.7c0,0.3,0.1,0.5,0.2,0.6c0.2,0.1,0.4,0.2,0.6,0.2c0.4,0,0.7-0.1,1-0.3s0.5-0.6,0.5-1.2V653.5z"/>
	<path d="M842.3,649.4h-1.7v-1.5h1.7V649.4z M840.6,650.2h1.7v6.4h-1.7V650.2z"/>
	<path d="M847.5,650c0,0,0.1,0,0.1,0v1.7c-0.1,0-0.2,0-0.3,0s-0.1,0-0.2,0c-0.7,0-1.1,0.2-1.4,0.7c-0.1,0.2-0.2,0.6-0.2,1.1v3.1
		h-1.7v-6.4h1.6v1.1c0.3-0.4,0.5-0.7,0.7-0.9C846.5,650.2,846.9,650,847.5,650C847.4,650,847.4,650,847.5,650z"/>
	<path d="M852.1,650c0,0,0.1,0,0.1,0v1.7c-0.1,0-0.2,0-0.3,0s-0.1,0-0.2,0c-0.7,0-1.1,0.2-1.4,0.7c-0.1,0.2-0.2,0.6-0.2,1.1v3.1
		h-1.7v-6.4h1.6v1.1c0.3-0.4,0.5-0.7,0.7-0.9C851.1,650.2,851.5,650,852.1,650C852.1,650,852.1,650,852.1,650z"/>
	<path d="M858.6,655.8c-0.5,0.7-1.4,1-2.5,1s-1.9-0.3-2.5-1s-0.8-1.5-0.8-2.4c0-0.9,0.3-1.7,0.8-2.4c0.5-0.7,1.4-1,2.5-1
		s1.9,0.3,2.5,1c0.5,0.7,0.8,1.5,0.8,2.4C859.4,654.3,859.1,655.1,858.6,655.8z M857.2,654.9c0.3-0.3,0.4-0.8,0.4-1.5
		s-0.1-1.1-0.4-1.5s-0.6-0.5-1.1-0.5s-0.9,0.2-1.1,0.5s-0.4,0.8-0.4,1.5s0.1,1.1,0.4,1.5s0.6,0.5,1.1,0.5S857,655.2,857.2,654.9z"/>
	<path d="M766,659.9h1.9l3.4,6v-6h1.7v8.6h-1.8l-3.5-6.1v6.1H766V659.9z"/>
	<path d="M779.9,667.8c-0.5,0.7-1.4,1-2.5,1s-1.9-0.3-2.5-1s-0.8-1.5-0.8-2.4c0-0.9,0.3-1.7,0.8-2.4c0.5-0.7,1.4-1,2.5-1
		s1.9,0.3,2.5,1c0.5,0.7,0.8,1.5,0.8,2.4C780.7,666.3,780.4,667.1,779.9,667.8z M778.6,666.9c0.3-0.3,0.4-0.8,0.4-1.5
		s-0.1-1.1-0.4-1.5s-0.6-0.5-1.1-0.5s-0.9,0.2-1.1,0.5s-0.4,0.8-0.4,1.5s0.1,1.1,0.4,1.5s0.6,0.5,1.1,0.5S778.3,667.2,778.6,666.9z"
		/>
	<path d="M785.5,662c0,0,0.1,0,0.1,0v1.7c-0.1,0-0.2,0-0.3,0s-0.1,0-0.2,0c-0.7,0-1.1,0.2-1.4,0.7c-0.1,0.2-0.2,0.6-0.2,1.1v3.1
		h-1.7v-6.4h1.6v1.1c0.3-0.4,0.5-0.7,0.7-0.9C784.5,662.2,784.9,662,785.5,662C785.4,662,785.4,662,785.5,662z"/>
	<path d="M785.9,663.4v-1.2h0.9v-1.8h1.7v1.8h1v1.2h-1v3.4c0,0.3,0,0.4,0.1,0.5s0.3,0.1,0.6,0.1c0.1,0,0.1,0,0.2,0s0.1,0,0.2,0v1.2
		l-0.8,0c-0.8,0-1.3-0.1-1.6-0.4c-0.2-0.2-0.3-0.5-0.3-0.9v-3.9H785.9z"/>
	<path d="M795.9,667.8c-0.5,0.7-1.4,1-2.5,1s-1.9-0.3-2.5-1s-0.8-1.5-0.8-2.4c0-0.9,0.3-1.7,0.8-2.4c0.5-0.7,1.4-1,2.5-1
		s1.9,0.3,2.5,1c0.5,0.7,0.8,1.5,0.8,2.4C796.7,666.3,796.4,667.1,795.9,667.8z M794.6,666.9c0.3-0.3,0.4-0.8,0.4-1.5
		s-0.1-1.1-0.4-1.5s-0.6-0.5-1.1-0.5s-0.9,0.2-1.1,0.5s-0.4,0.8-0.4,1.5s0.1,1.1,0.4,1.5s0.6,0.5,1.1,0.5S794.3,667.2,794.6,666.9z"
		/>
	<path d="M803.1,662.6c0.4,0.3,0.6,0.9,0.6,1.7v4.3H802v-3.9c0-0.3,0-0.6-0.1-0.8c-0.2-0.3-0.5-0.5-0.9-0.5c-0.6,0-0.9,0.2-1.2,0.7
		c-0.1,0.3-0.2,0.6-0.2,1v3.5h-1.7v-6.4h1.6v0.9c0.2-0.3,0.4-0.6,0.6-0.7c0.3-0.3,0.8-0.4,1.3-0.4
		C802.1,662,802.6,662.2,803.1,662.6z"/>
	<path d="M812,662.3c0.3,0.2,0.5,0.4,0.7,0.7v-3h1.7v8.6h-1.6v-0.9c-0.2,0.4-0.5,0.7-0.8,0.8s-0.7,0.3-1.1,0.3
		c-0.7,0-1.4-0.3-1.9-0.9s-0.8-1.4-0.8-2.3c0-1.1,0.3-1.9,0.8-2.6s1.2-0.9,2-0.9C811.3,662,811.7,662.1,812,662.3z M812.4,666.8
		c0.2-0.4,0.4-0.8,0.4-1.4c0-0.8-0.2-1.3-0.6-1.7c-0.2-0.2-0.5-0.3-0.8-0.3c-0.5,0-0.8,0.2-1.1,0.6s-0.3,0.8-0.3,1.4
		c0,0.6,0.1,1.1,0.3,1.4s0.6,0.5,1.1,0.5S812.1,667.2,812.4,666.8z"/>
	<path d="M820.1,662.3c0.4,0.2,0.8,0.5,1.1,0.9c0.3,0.4,0.4,0.8,0.5,1.3c0,0.3,0.1,0.7,0.1,1.3h-4.7c0,0.6,0.2,1.1,0.7,1.3
		c0.3,0.2,0.6,0.2,0.9,0.2c0.4,0,0.7-0.1,0.9-0.3c0.1-0.1,0.2-0.3,0.3-0.4h1.7c0,0.4-0.3,0.8-0.6,1.2c-0.6,0.6-1.4,0.9-2.4,0.9
		c-0.8,0-1.6-0.3-2.2-0.8c-0.6-0.5-1-1.4-1-2.6c0-1.1,0.3-2,0.9-2.5c0.6-0.6,1.3-0.9,2.3-0.9C819.1,662,819.6,662.1,820.1,662.3z
		 M817.6,663.8c-0.2,0.2-0.4,0.6-0.4,1h2.9c0-0.4-0.2-0.8-0.4-1c-0.3-0.2-0.6-0.3-1-0.3C818.1,663.4,817.8,663.5,817.6,663.8z"/>
	<path d="M831.8,659.9h2.6v8.6h-1.7v-5.8c0-0.2,0-0.4,0-0.7s0-0.5,0-0.7l-1.6,7.2h-1.8l-1.6-7.2c0,0.2,0,0.4,0,0.7s0,0.5,0,0.7v5.8
		H826v-8.6h2.6l1.6,6.8L831.8,659.9z"/>
	<path d="M838.4,664.7c0.3,0,0.5-0.1,0.7-0.1c0.2-0.1,0.4-0.3,0.4-0.5c0-0.3-0.1-0.4-0.3-0.5c-0.2-0.1-0.5-0.1-0.8-0.1
		c-0.4,0-0.7,0.1-0.8,0.3c-0.1,0.1-0.2,0.3-0.2,0.6h-1.6c0-0.6,0.2-1,0.5-1.4c0.4-0.6,1.2-0.8,2.3-0.8c0.7,0,1.3,0.1,1.9,0.4
		s0.8,0.8,0.8,1.6v2.9c0,0.2,0,0.4,0,0.7c0,0.2,0,0.4,0.1,0.4s0.1,0.1,0.2,0.2v0.2h-1.8c-0.1-0.1-0.1-0.2-0.1-0.4s0-0.2,0-0.4
		c-0.2,0.2-0.5,0.5-0.8,0.6c-0.4,0.2-0.8,0.3-1.2,0.3c-0.6,0-1.1-0.2-1.4-0.5c-0.4-0.3-0.6-0.8-0.6-1.4c0-0.8,0.3-1.4,0.9-1.7
		c0.3-0.2,0.8-0.3,1.5-0.4L838.4,664.7z M839.4,665.5c-0.1,0.1-0.2,0.1-0.3,0.2s-0.3,0.1-0.4,0.1l-0.4,0.1c-0.4,0.1-0.6,0.1-0.8,0.2
		c-0.3,0.2-0.4,0.4-0.4,0.7c0,0.3,0.1,0.5,0.2,0.6c0.2,0.1,0.4,0.2,0.6,0.2c0.4,0,0.7-0.1,1-0.3s0.5-0.6,0.5-1.2V665.5z"/>
	<path d="M841.9,663.4v-1.2h0.9v-1.8h1.7v1.8h1v1.2h-1v3.4c0,0.3,0,0.4,0.1,0.5s0.3,0.1,0.6,0.1c0.1,0,0.1,0,0.2,0s0.1,0,0.2,0v1.2
		l-0.8,0c-0.8,0-1.3-0.1-1.6-0.4c-0.2-0.2-0.3-0.5-0.3-0.9v-3.9H841.9z"/>
	<path d="M851.9,667.8c-0.5,0.7-1.4,1-2.5,1s-1.9-0.3-2.5-1s-0.8-1.5-0.8-2.4c0-0.9,0.3-1.7,0.8-2.4c0.5-0.7,1.4-1,2.5-1
		s1.9,0.3,2.5,1c0.5,0.7,0.8,1.5,0.8,2.4C852.7,666.3,852.4,667.1,851.9,667.8z M850.6,666.9c0.3-0.3,0.4-0.8,0.4-1.5
		s-0.1-1.1-0.4-1.5s-0.6-0.5-1.1-0.5s-0.9,0.2-1.1,0.5s-0.4,0.8-0.4,1.5s0.1,1.1,0.4,1.5s0.6,0.5,1.1,0.5S850.3,667.2,850.6,666.9z"
		/>
	<path d="M855.2,666.5c0,0.3,0.1,0.5,0.2,0.6c0.2,0.2,0.6,0.3,1.2,0.3c0.3,0,0.6,0,0.8-0.1s0.3-0.2,0.3-0.4c0-0.2-0.1-0.3-0.2-0.4
		s-0.7-0.3-1.7-0.5c-0.7-0.2-1.2-0.4-1.5-0.7c-0.3-0.3-0.4-0.6-0.4-1.1c0-0.6,0.2-1.1,0.7-1.5s1.1-0.6,2-0.6c0.8,0,1.4,0.2,2,0.5
		c0.5,0.3,0.8,0.9,0.9,1.6h-1.7c0-0.2-0.1-0.4-0.2-0.5c-0.2-0.2-0.5-0.3-0.9-0.3c-0.4,0-0.6,0.1-0.8,0.2s-0.2,0.2-0.2,0.4
		c0,0.2,0.1,0.3,0.2,0.4c0.2,0.1,0.7,0.2,1.7,0.5c0.7,0.2,1.2,0.4,1.5,0.7c0.3,0.3,0.5,0.7,0.5,1.2c0,0.6-0.2,1.1-0.7,1.5
		s-1.2,0.6-2.2,0.6c-1,0-1.7-0.2-2.2-0.6s-0.7-1-0.7-1.6H855.2z"/>
</g>
<g>
	<path d="M570.9,236.4c0.3,0.1,0.6,0.3,0.8,0.6c0.2,0.2,0.3,0.5,0.4,0.7c0.1,0.3,0.2,0.6,0.2,0.9c0,0.4-0.1,0.8-0.3,1.2
		s-0.5,0.7-1,0.8c0.4,0.2,0.7,0.4,0.8,0.7s0.2,0.7,0.2,1.4v0.6c0,0.4,0,0.7,0,0.8c0,0.2,0.2,0.4,0.3,0.5v0.2h-2
		c-0.1-0.2-0.1-0.3-0.1-0.5c0-0.2-0.1-0.5-0.1-0.7l0-0.8c0-0.6-0.1-0.9-0.3-1.1s-0.5-0.3-1-0.3h-1.8v3.4h-1.8v-8.6h4.1
		C570.1,236.2,570.6,236.3,570.9,236.4z M567.2,237.7v2.3h1.9c0.4,0,0.7,0,0.9-0.1c0.3-0.2,0.5-0.5,0.5-1c0-0.5-0.2-0.9-0.5-1.1
		c-0.2-0.1-0.5-0.2-0.8-0.2H567.2z"/>
	<path d="M575.5,238.5v3.8c0,0.4,0,0.6,0.1,0.8c0.2,0.3,0.4,0.5,0.9,0.5c0.6,0,1-0.2,1.2-0.7c0.1-0.2,0.2-0.6,0.2-1v-3.5h1.7v6.4
		H578v-0.9c0,0-0.1,0.1-0.1,0.2s-0.1,0.2-0.2,0.3c-0.3,0.2-0.5,0.4-0.8,0.5c-0.2,0.1-0.5,0.1-0.9,0.1c-0.9,0-1.6-0.3-1.9-1
		c-0.2-0.4-0.3-0.9-0.3-1.7v-3.8H575.5z"/>
	<path d="M583.7,241c0.3,0,0.5-0.1,0.7-0.1c0.2-0.1,0.4-0.3,0.4-0.5c0-0.3-0.1-0.4-0.3-0.5c-0.2-0.1-0.5-0.1-0.8-0.1
		c-0.4,0-0.7,0.1-0.8,0.3c-0.1,0.1-0.2,0.3-0.2,0.6H581c0-0.6,0.2-1,0.5-1.4c0.4-0.6,1.2-0.8,2.3-0.8c0.7,0,1.3,0.1,1.9,0.4
		s0.8,0.8,0.8,1.6v2.9c0,0.2,0,0.4,0,0.7c0,0.2,0,0.4,0.1,0.4s0.1,0.1,0.2,0.2v0.2H585c-0.1-0.1-0.1-0.2-0.1-0.4s0-0.2,0-0.4
		c-0.2,0.2-0.5,0.5-0.8,0.6c-0.4,0.2-0.8,0.3-1.2,0.3c-0.6,0-1.1-0.2-1.4-0.5s-0.6-0.8-0.6-1.4c0-0.8,0.3-1.4,0.9-1.7
		c0.3-0.2,0.8-0.3,1.5-0.4L583.7,241z M584.8,241.7c-0.1,0.1-0.2,0.1-0.3,0.2s-0.3,0.1-0.4,0.1l-0.4,0.1c-0.4,0.1-0.6,0.1-0.8,0.2
		c-0.3,0.2-0.4,0.4-0.4,0.7c0,0.3,0.1,0.5,0.2,0.6s0.4,0.2,0.6,0.2c0.4,0,0.7-0.1,1-0.3s0.5-0.6,0.5-1.2V241.7z"/>
	<path d="M594.6,238.6c0.3,0.2,0.5,0.4,0.7,0.7v-3h1.7v8.6h-1.6V244c-0.2,0.4-0.5,0.7-0.8,0.8s-0.7,0.3-1.1,0.3
		c-0.7,0-1.4-0.3-1.9-0.9s-0.8-1.4-0.8-2.3c0-1.1,0.2-1.9,0.8-2.6s1.2-0.9,2-0.9C594,238.3,594.3,238.4,594.6,238.6z M595,243.1
		c0.2-0.4,0.4-0.8,0.4-1.4c0-0.8-0.2-1.3-0.6-1.7c-0.2-0.2-0.5-0.3-0.8-0.3c-0.5,0-0.8,0.2-1.1,0.6s-0.3,0.8-0.3,1.4
		c0,0.6,0.1,1.1,0.3,1.4s0.6,0.5,1.1,0.5S594.8,243.5,595,243.1z"/>
	<path d="M601.1,241c0.3,0,0.5-0.1,0.7-0.1c0.2-0.1,0.4-0.3,0.4-0.5c0-0.3-0.1-0.4-0.3-0.5c-0.2-0.1-0.5-0.1-0.8-0.1
		c-0.4,0-0.7,0.1-0.8,0.3c-0.1,0.1-0.2,0.3-0.2,0.6h-1.6c0-0.6,0.2-1,0.5-1.4c0.4-0.6,1.2-0.8,2.3-0.8c0.7,0,1.3,0.1,1.9,0.4
		s0.8,0.8,0.8,1.6v2.9c0,0.2,0,0.4,0,0.7c0,0.2,0,0.4,0.1,0.4s0.1,0.1,0.2,0.2v0.2h-1.8c-0.1-0.1-0.1-0.2-0.1-0.4s0-0.2,0-0.4
		c-0.2,0.2-0.5,0.5-0.8,0.6c-0.4,0.2-0.8,0.3-1.2,0.3c-0.6,0-1.1-0.2-1.4-0.5s-0.6-0.8-0.6-1.4c0-0.8,0.3-1.4,0.9-1.7
		c0.3-0.2,0.8-0.3,1.5-0.4L601.1,241z M602.1,241.7c-0.1,0.1-0.2,0.1-0.3,0.2s-0.3,0.1-0.4,0.1l-0.4,0.1c-0.4,0.1-0.6,0.1-0.8,0.2
		c-0.3,0.2-0.4,0.4-0.4,0.7c0,0.3,0.1,0.5,0.2,0.6s0.4,0.2,0.6,0.2c0.4,0,0.7-0.1,1-0.3s0.5-0.6,0.5-1.2V241.7z"/>
	<path d="M610,242.2c0.1,0.4,0.2,0.7,0.3,0.9c0.3,0.4,0.8,0.5,1.5,0.5c0.4,0,0.8,0,1.1-0.1c0.5-0.2,0.8-0.5,0.8-1
		c0-0.3-0.1-0.5-0.4-0.7c-0.3-0.2-0.7-0.3-1.2-0.4l-0.9-0.2c-0.9-0.2-1.5-0.4-1.9-0.7c-0.6-0.4-0.9-1-0.9-1.9c0-0.8,0.3-1.4,0.9-1.9
		s1.4-0.8,2.5-0.8c0.9,0,1.7,0.2,2.4,0.7s1,1.2,1,2.1h-1.7c0-0.5-0.3-0.9-0.7-1.1c-0.3-0.1-0.6-0.2-1.1-0.2c-0.5,0-0.9,0.1-1.1,0.3
		c-0.3,0.2-0.4,0.4-0.4,0.8c0,0.3,0.1,0.5,0.4,0.7c0.2,0.1,0.6,0.2,1.1,0.4l1.5,0.4c0.7,0.2,1.2,0.4,1.5,0.6c0.5,0.4,0.8,1,0.8,1.8
		c0,0.8-0.3,1.4-0.9,2c-0.6,0.5-1.5,0.8-2.6,0.8c-1.1,0-2-0.3-2.7-0.8s-1-1.2-1-2.1H610z"/>
	<path d="M621.9,244.1c-0.5,0.7-1.4,1-2.5,1s-1.9-0.3-2.5-1s-0.8-1.5-0.8-2.4c0-0.9,0.3-1.7,0.8-2.4c0.5-0.7,1.4-1,2.5-1
		s1.9,0.3,2.5,1c0.5,0.7,0.8,1.5,0.8,2.4C622.7,242.6,622.4,243.4,621.9,244.1z M620.5,243.1c0.3-0.3,0.4-0.8,0.4-1.5
		s-0.1-1.1-0.4-1.5c-0.3-0.3-0.6-0.5-1.1-0.5s-0.9,0.2-1.1,0.5c-0.3,0.3-0.4,0.8-0.4,1.5s0.1,1.1,0.4,1.5s0.6,0.5,1.1,0.5
		S620.3,243.5,620.5,243.1z"/>
	<path d="M626.5,236.1c0.1,0,0.2,0,0.4,0v1.4c-0.1,0-0.3,0-0.5,0s-0.4,0-0.5,0.1s-0.1,0.2-0.1,0.3s0,0.3,0,0.5h1.1v1.2h-1.1v5.2
		h-1.7v-5.2h-0.9v-1.2h0.9v-0.4c0-0.7,0.1-1.2,0.3-1.4c0.2-0.4,0.8-0.6,1.8-0.6C626.3,236.1,626.4,236.1,626.5,236.1z"/>
	<path d="M629.6,237.7h-1.7v-1.5h1.7V237.7z M627.9,238.5h1.7v6.4h-1.7V238.5z"/>
	<path d="M633.7,241c0.3,0,0.5-0.1,0.7-0.1c0.2-0.1,0.4-0.3,0.4-0.5c0-0.3-0.1-0.4-0.3-0.5c-0.2-0.1-0.5-0.1-0.8-0.1
		c-0.4,0-0.7,0.1-0.8,0.3c-0.1,0.1-0.2,0.3-0.2,0.6H631c0-0.6,0.2-1,0.5-1.4c0.4-0.6,1.2-0.8,2.3-0.8c0.7,0,1.3,0.1,1.9,0.4
		s0.8,0.8,0.8,1.6v2.9c0,0.2,0,0.4,0,0.7c0,0.2,0,0.4,0.1,0.4s0.1,0.1,0.2,0.2v0.2H635c-0.1-0.1-0.1-0.2-0.1-0.4s0-0.2,0-0.4
		c-0.2,0.2-0.5,0.5-0.8,0.6c-0.4,0.2-0.8,0.3-1.2,0.3c-0.6,0-1.1-0.2-1.4-0.5s-0.6-0.8-0.6-1.4c0-0.8,0.3-1.4,0.9-1.7
		c0.3-0.2,0.8-0.3,1.5-0.4L633.7,241z M634.8,241.7c-0.1,0.1-0.2,0.1-0.3,0.2s-0.3,0.1-0.4,0.1l-0.4,0.1c-0.4,0.1-0.6,0.1-0.8,0.2
		c-0.3,0.2-0.4,0.4-0.4,0.7c0,0.3,0.1,0.5,0.2,0.6s0.4,0.2,0.6,0.2c0.4,0,0.7-0.1,1-0.3s0.5-0.6,0.5-1.2V241.7z"/>
</g>
<g>
	<path d="M576.2,336.8h2l3.1,8.6h-2l-0.6-1.8h-3.2l-0.6,1.8h-1.9L576.2,336.8z M576.1,342.2h2.2l-1.1-3.4L576.1,342.2z"/>
	<path d="M585.8,338.9c0,0,0.1,0,0.1,0v1.7c-0.1,0-0.2,0-0.3,0s-0.1,0-0.2,0c-0.7,0-1.1,0.2-1.4,0.7c-0.1,0.2-0.2,0.6-0.2,1.1v3.1
		h-1.7v-6.4h1.6v1.1c0.3-0.4,0.5-0.7,0.7-0.9C584.8,339.1,585.2,338.9,585.8,338.9C585.8,338.9,585.8,338.9,585.8,338.9z"/>
	<path d="M592.1,339.5c0.4,0.3,0.6,0.9,0.6,1.7v4.3H591v-3.9c0-0.3,0-0.6-0.1-0.8c-0.2-0.3-0.5-0.5-0.9-0.5c-0.6,0-0.9,0.2-1.2,0.7
		c-0.1,0.3-0.2,0.6-0.2,1v3.5H587v-6.4h1.6v0.9c0.2-0.3,0.4-0.6,0.6-0.7c0.3-0.3,0.8-0.4,1.3-0.4
		C591.1,338.9,591.7,339.1,592.1,339.5z"/>
	<path d="M596.8,341.6c0.3,0,0.5-0.1,0.7-0.1c0.2-0.1,0.4-0.3,0.4-0.5c0-0.3-0.1-0.4-0.3-0.5s-0.5-0.1-0.8-0.1
		c-0.4,0-0.7,0.1-0.8,0.3c-0.1,0.1-0.2,0.3-0.2,0.6h-1.6c0-0.6,0.2-1,0.5-1.4c0.4-0.6,1.2-0.8,2.3-0.8c0.7,0,1.3,0.1,1.9,0.4
		c0.5,0.3,0.8,0.8,0.8,1.6v2.9c0,0.2,0,0.4,0,0.7c0,0.2,0,0.4,0.1,0.4s0.1,0.1,0.2,0.2v0.2H598c-0.1-0.1-0.1-0.2-0.1-0.4
		s0-0.2,0-0.4c-0.2,0.2-0.5,0.5-0.8,0.6c-0.4,0.2-0.8,0.3-1.2,0.3c-0.6,0-1.1-0.2-1.4-0.5s-0.6-0.8-0.6-1.4c0-0.8,0.3-1.4,0.9-1.7
		c0.3-0.2,0.8-0.3,1.5-0.4L596.8,341.6z M597.8,342.4c-0.1,0.1-0.2,0.1-0.3,0.2c-0.1,0-0.3,0.1-0.4,0.1l-0.4,0.1
		c-0.4,0.1-0.6,0.1-0.8,0.2c-0.3,0.2-0.4,0.4-0.4,0.7c0,0.3,0.1,0.5,0.2,0.6c0.2,0.1,0.4,0.2,0.6,0.2c0.4,0,0.7-0.1,1-0.3
		c0.3-0.2,0.5-0.6,0.5-1.2V342.4z"/>
	<path d="M604.3,339.2c0.3,0.2,0.5,0.4,0.7,0.7v-3h1.7v8.6h-1.6v-0.9c-0.2,0.4-0.5,0.7-0.8,0.8s-0.7,0.3-1.1,0.3
		c-0.7,0-1.4-0.3-1.9-0.9s-0.8-1.4-0.8-2.3c0-1.1,0.3-1.9,0.8-2.6s1.2-0.9,2-0.9C603.7,338.9,604,339,604.3,339.2z M604.8,343.7
		c0.2-0.4,0.4-0.8,0.4-1.4c0-0.8-0.2-1.3-0.6-1.7c-0.2-0.2-0.5-0.3-0.8-0.3c-0.5,0-0.8,0.2-1.1,0.6s-0.3,0.8-0.3,1.4
		c0,0.6,0.1,1.1,0.3,1.4s0.6,0.5,1.1,0.5S604.5,344.1,604.8,343.7z"/>
	<path d="M613.6,344.7c-0.5,0.7-1.4,1-2.5,1s-1.9-0.3-2.5-1s-0.8-1.5-0.8-2.4c0-0.9,0.3-1.7,0.8-2.4c0.5-0.7,1.4-1,2.5-1
		s1.9,0.3,2.5,1c0.5,0.7,0.8,1.5,0.8,2.4C614.4,343.2,614.2,344,613.6,344.7z M612.3,343.8c0.3-0.3,0.4-0.8,0.4-1.5
		s-0.1-1.1-0.4-1.5c-0.3-0.3-0.6-0.5-1.1-0.5s-0.9,0.2-1.1,0.5c-0.3,0.3-0.4,0.8-0.4,1.5s0.1,1.1,0.4,1.5s0.6,0.5,1.1,0.5
		S612,344.1,612.3,343.8z"/>
</g>
<g>
	<path d="M700.1,441.1h1.8v5.3c0,0.6,0.1,1,0.2,1.3c0.2,0.5,0.7,0.7,1.4,0.7c0.7,0,1.2-0.2,1.4-0.7c0.1-0.3,0.2-0.7,0.2-1.3v-5.3
		h1.8v5.3c0,0.9-0.1,1.6-0.4,2.1c-0.5,0.9-1.5,1.4-3,1.4c-1.5,0-2.5-0.5-3-1.4c-0.3-0.5-0.4-1.2-0.4-2.1V441.1z"/>
	<path d="M709.6,442c0.7-0.7,1.6-1.1,2.7-1.1c1.4,0,2.5,0.5,3.2,1.4c0.4,0.5,0.6,1.1,0.6,1.6h-1.8c-0.1-0.4-0.3-0.7-0.4-0.9
		c-0.3-0.4-0.8-0.6-1.4-0.6c-0.6,0-1.2,0.3-1.5,0.8s-0.6,1.3-0.6,2.2s0.2,1.7,0.6,2.2s0.9,0.7,1.5,0.7c0.6,0,1.1-0.2,1.4-0.6
		c0.2-0.2,0.3-0.6,0.4-1h1.8c-0.2,0.9-0.5,1.7-1.2,2.3c-0.6,0.6-1.4,0.9-2.4,0.9c-1.2,0-2.2-0.4-2.9-1.2c-0.7-0.8-1.1-1.9-1.1-3.3
		C708.4,444,708.8,442.9,709.6,442z"/>
</g>
<g>
	<path d="M779.8,915.4h1.8v5.3c0,0.6,0.1,1,0.2,1.3c0.2,0.5,0.7,0.7,1.4,0.7c0.7,0,1.2-0.2,1.4-0.7c0.1-0.3,0.2-0.7,0.2-1.3v-5.3
		h1.8v5.3c0,0.9-0.1,1.6-0.4,2.1c-0.5,0.9-1.5,1.4-3,1.4s-2.5-0.5-3-1.4c-0.3-0.5-0.4-1.2-0.4-2.1V915.4z"/>
	<path d="M789.3,916.3c0.7-0.7,1.6-1.1,2.7-1.1c1.4,0,2.5,0.5,3.2,1.4c0.4,0.5,0.6,1.1,0.6,1.6h-1.8c-0.1-0.4-0.3-0.7-0.4-0.9
		c-0.3-0.4-0.8-0.6-1.4-0.6c-0.6,0-1.2,0.3-1.5,0.8s-0.6,1.3-0.6,2.2s0.2,1.7,0.6,2.2c0.4,0.5,0.9,0.7,1.5,0.7
		c0.6,0,1.1-0.2,1.4-0.6c0.2-0.2,0.3-0.6,0.4-1h1.8c-0.2,0.9-0.5,1.7-1.2,2.3s-1.5,0.9-2.4,0.9c-1.2,0-2.2-0.4-2.9-1.2
		c-0.7-0.8-1.1-1.9-1.1-3.3C788.1,918.2,788.5,917.1,789.3,916.3z"/>
	<path d="M799.8,919.9h3.3v1.6h-3.3V919.9z"/>
	<path d="M813.6,920.3c-0.5,0.4-1.2,0.6-2.2,0.6h-1.8v3.1h-1.8v-8.6h3.7c0.9,0,1.5,0.2,2,0.7c0.5,0.4,0.8,1.1,0.8,2.1
		C814.4,919.1,814.1,919.8,813.6,920.3z M812.2,917.2c-0.2-0.2-0.5-0.3-1-0.3h-1.6v2.5h1.6c0.4,0,0.7-0.1,1-0.3s0.3-0.5,0.3-1
		S812.4,917.3,812.2,917.2z"/>
	<path d="M821,923.2c-0.5,0.7-1.4,1-2.5,1s-1.9-0.3-2.5-1c-0.5-0.7-0.8-1.5-0.8-2.4c0-0.9,0.3-1.7,0.8-2.4c0.5-0.7,1.4-1,2.5-1
		s1.9,0.3,2.5,1c0.5,0.7,0.8,1.5,0.8,2.4C821.8,921.8,821.5,922.6,821,923.2z M819.7,922.3c0.3-0.3,0.4-0.8,0.4-1.5
		c0-0.6-0.1-1.1-0.4-1.5c-0.3-0.3-0.6-0.5-1.1-0.5s-0.9,0.2-1.1,0.5c-0.3,0.3-0.4,0.8-0.4,1.5c0,0.6,0.1,1.1,0.4,1.5
		c0.3,0.3,0.6,0.5,1.1,0.5S819.4,922.6,819.7,922.3z M820.5,915l-1.8,1.8h-1.2l1.1-1.8H820.5z"/>
	<path d="M824.7,924H823v-8.6h1.7V924z"/>
	<path d="M831.7,923.2c-0.5,0.7-1.4,1-2.5,1s-1.9-0.3-2.5-1c-0.5-0.7-0.8-1.5-0.8-2.4c0-0.9,0.3-1.7,0.8-2.4c0.5-0.7,1.4-1,2.5-1
		s1.9,0.3,2.5,1c0.5,0.7,0.8,1.5,0.8,2.4C832.5,921.8,832.2,922.6,831.7,923.2z M830.3,922.3c0.3-0.3,0.4-0.8,0.4-1.5
		c0-0.6-0.1-1.1-0.4-1.5c-0.3-0.3-0.6-0.5-1.1-0.5s-0.9,0.2-1.1,0.5c-0.3,0.3-0.4,0.8-0.4,1.5c0,0.6,0.1,1.1,0.4,1.5
		c0.3,0.3,0.6,0.5,1.1,0.5S830.1,922.6,830.3,922.3z"/>
	<path d="M838.8,924H837v-8.6h1.8V924z"/>
	<path d="M842.1,924h-1.8v-8.6h1.8V924z"/>
</g>
<g>
	<path d="M741.3,345h3.9c0.8,0,1.4,0.2,1.8,0.6s0.7,1,0.7,1.8c0,0.7-0.2,1.3-0.6,1.8s-1.1,0.7-1.9,0.7h-2.7v3.6h-1.2V345z
		 M745.9,346.1c-0.3-0.1-0.6-0.2-1.1-0.2h-2.3v3h2.3c0.5,0,0.9-0.1,1.3-0.3c0.3-0.2,0.5-0.6,0.5-1.2
		C746.6,346.8,746.3,346.4,745.9,346.1z"/>
	<path d="M749.1,347.3h1v1.1c0.1-0.2,0.3-0.5,0.6-0.8s0.7-0.5,1.1-0.5c0,0,0.1,0,0.1,0s0.1,0,0.2,0v1.1c-0.1,0-0.1,0-0.2,0
		s-0.1,0-0.2,0c-0.5,0-0.9,0.2-1.2,0.5s-0.4,0.7-0.4,1.2v3.6h-1.1V347.3z"/>
	<path d="M756.5,349.8c0.2,0,0.4-0.1,0.5-0.3c0-0.1,0.1-0.2,0.1-0.4c0-0.4-0.1-0.6-0.4-0.8c-0.3-0.2-0.6-0.2-1.1-0.2
		c-0.5,0-0.9,0.1-1.2,0.4c-0.1,0.2-0.2,0.4-0.3,0.7h-1c0-0.8,0.3-1.3,0.8-1.6c0.5-0.3,1-0.5,1.7-0.5c0.7,0,1.3,0.1,1.8,0.4
		c0.5,0.3,0.7,0.7,0.7,1.3v3.6c0,0.1,0,0.2,0.1,0.3c0,0.1,0.1,0.1,0.3,0.1c0,0,0.1,0,0.2,0s0.1,0,0.2,0v0.8c-0.2,0-0.3,0.1-0.4,0.1
		s-0.2,0-0.4,0c-0.4,0-0.6-0.1-0.8-0.4c-0.1-0.1-0.1-0.3-0.2-0.6c-0.2,0.3-0.5,0.5-0.9,0.7s-0.8,0.3-1.3,0.3c-0.6,0-1.1-0.2-1.4-0.5
		s-0.6-0.8-0.6-1.3c0-0.6,0.2-1,0.5-1.4s0.8-0.5,1.4-0.6L756.5,349.8z M754.2,352.6c0.2,0.2,0.5,0.3,0.8,0.3c0.4,0,0.7-0.1,1.1-0.3
		c0.6-0.3,0.9-0.8,0.9-1.4v-0.8c-0.1,0.1-0.3,0.2-0.5,0.2c-0.2,0.1-0.4,0.1-0.6,0.1l-0.6,0.1c-0.4,0.1-0.7,0.1-0.9,0.2
		c-0.3,0.2-0.5,0.5-0.5,0.9C753.9,352.2,754,352.4,754.2,352.6z"/>
	<path d="M763.9,347.6c0.4,0.3,0.7,0.9,0.8,1.8h-1c-0.1-0.4-0.2-0.7-0.4-1s-0.6-0.4-1.1-0.4c-0.7,0-1.2,0.3-1.4,1
		c-0.2,0.4-0.3,0.9-0.3,1.6c0,0.6,0.1,1.2,0.4,1.6s0.7,0.6,1.3,0.6c0.4,0,0.8-0.1,1-0.4s0.4-0.6,0.5-1.1h1c-0.1,0.8-0.4,1.4-0.9,1.8
		s-1,0.6-1.6,0.6l-0.4,0.6c0.1,0,0.3-0.1,0.4-0.1c0.3,0,0.5,0.1,0.7,0.2c0.2,0.2,0.3,0.4,0.3,0.7c0,0.3-0.1,0.6-0.4,0.8
		s-0.6,0.3-1.1,0.3c-0.2,0-0.4,0-0.6-0.1c-0.1,0-0.3-0.1-0.5-0.2l0.2-0.5c0.1,0.1,0.3,0.1,0.3,0.1c0.2,0,0.3,0.1,0.4,0.1
		c0.1,0,0.3,0,0.4-0.1c0.2-0.1,0.3-0.2,0.3-0.4c0-0.1-0.1-0.2-0.2-0.3c-0.1-0.1-0.2-0.1-0.4-0.1c-0.1,0-0.2,0-0.2,0s-0.2,0-0.2,0.1
		l-0.2-0.2l0.6-0.9c-0.6,0-1-0.2-1.5-0.7c-0.6-0.6-0.8-1.5-0.8-2.5c0-1.1,0.3-2,0.8-2.6s1.2-0.9,2-0.9
		C762.9,347.1,763.5,347.3,763.9,347.6z"/>
	<path d="M769.1,349.8c0.2,0,0.4-0.1,0.5-0.3c0-0.1,0.1-0.2,0.1-0.4c0-0.4-0.1-0.6-0.4-0.8c-0.3-0.2-0.6-0.2-1.1-0.2
		c-0.5,0-0.9,0.1-1.2,0.4c-0.1,0.2-0.2,0.4-0.3,0.7h-1c0-0.8,0.3-1.3,0.8-1.6c0.5-0.3,1-0.5,1.7-0.5c0.7,0,1.3,0.1,1.8,0.4
		c0.5,0.3,0.7,0.7,0.7,1.3v3.6c0,0.1,0,0.2,0.1,0.3c0,0.1,0.1,0.1,0.3,0.1c0,0,0.1,0,0.2,0s0.1,0,0.2,0v0.8c-0.2,0-0.3,0.1-0.4,0.1
		s-0.2,0-0.4,0c-0.4,0-0.6-0.1-0.8-0.4c-0.1-0.1-0.1-0.3-0.2-0.6c-0.2,0.3-0.5,0.5-0.9,0.7s-0.8,0.3-1.3,0.3c-0.6,0-1.1-0.2-1.4-0.5
		s-0.6-0.8-0.6-1.3c0-0.6,0.2-1,0.5-1.4s0.8-0.5,1.4-0.6L769.1,349.8z M766.9,352.6c0.2,0.2,0.5,0.3,0.8,0.3c0.4,0,0.7-0.1,1.1-0.3
		c0.6-0.3,0.9-0.8,0.9-1.4v-0.8c-0.1,0.1-0.3,0.2-0.5,0.2c-0.2,0.1-0.4,0.1-0.6,0.1l-0.6,0.1c-0.4,0.1-0.7,0.1-0.9,0.2
		c-0.3,0.2-0.5,0.5-0.5,0.9C766.6,352.2,766.7,352.4,766.9,352.6z"/>
	<path d="M779.2,347.5c0.2,0.1,0.4,0.3,0.6,0.6v-3.2h1v8.6h-0.9v-0.9c-0.2,0.4-0.5,0.7-0.9,0.8c-0.3,0.2-0.7,0.3-1.2,0.3
		c-0.7,0-1.3-0.3-1.8-0.9s-0.8-1.4-0.8-2.3c0-0.9,0.2-1.7,0.7-2.4s1.1-1,2-1C778.5,347.2,778.9,347.3,779.2,347.5z M776.9,352.2
		c0.3,0.5,0.7,0.7,1.4,0.7c0.5,0,0.9-0.2,1.2-0.6c0.3-0.4,0.5-1,0.5-1.8c0-0.8-0.2-1.4-0.5-1.8c-0.3-0.4-0.7-0.6-1.2-0.6
		c-0.5,0-1,0.2-1.3,0.6s-0.5,1-0.5,1.8C776.4,351.2,776.6,351.7,776.9,352.2z"/>
	<path d="M785.8,349.8c0.2,0,0.4-0.1,0.5-0.3c0-0.1,0.1-0.2,0.1-0.4c0-0.4-0.1-0.6-0.4-0.8c-0.3-0.2-0.6-0.2-1.1-0.2
		c-0.5,0-0.9,0.1-1.2,0.4c-0.1,0.2-0.2,0.4-0.3,0.7h-1c0-0.8,0.3-1.3,0.8-1.6c0.5-0.3,1-0.5,1.7-0.5c0.7,0,1.3,0.1,1.8,0.4
		c0.5,0.3,0.7,0.7,0.7,1.3v3.6c0,0.1,0,0.2,0.1,0.3c0,0.1,0.1,0.1,0.3,0.1c0,0,0.1,0,0.2,0s0.1,0,0.2,0v0.8c-0.2,0-0.3,0.1-0.4,0.1
		s-0.2,0-0.4,0c-0.4,0-0.6-0.1-0.8-0.4c-0.1-0.1-0.1-0.3-0.2-0.6c-0.2,0.3-0.5,0.5-0.9,0.7s-0.8,0.3-1.3,0.3c-0.6,0-1.1-0.2-1.4-0.5
		s-0.6-0.8-0.6-1.3c0-0.6,0.2-1,0.5-1.4s0.8-0.5,1.4-0.6L785.8,349.8z M783.6,352.6c0.2,0.2,0.5,0.3,0.8,0.3c0.4,0,0.7-0.1,1.1-0.3
		c0.6-0.3,0.9-0.8,0.9-1.4v-0.8c-0.1,0.1-0.3,0.2-0.5,0.2c-0.2,0.1-0.4,0.1-0.6,0.1l-0.6,0.1c-0.4,0.1-0.7,0.1-0.9,0.2
		c-0.3,0.2-0.5,0.5-0.5,0.9C783.3,352.2,783.4,352.4,783.6,352.6z"/>
	<path d="M741.4,357h3.9c0.6,0,1.2,0.1,1.6,0.3c0.8,0.4,1.2,1,1.2,2c0,0.5-0.1,0.9-0.3,1.3s-0.5,0.6-0.9,0.8
		c0.3,0.1,0.6,0.3,0.8,0.5s0.3,0.6,0.3,1.1l0,1.2c0,0.3,0,0.6,0.1,0.7c0.1,0.3,0.2,0.4,0.4,0.5v0.2H747c0-0.1-0.1-0.2-0.1-0.3
		s0-0.3-0.1-0.7l-0.1-1.4c0-0.6-0.2-0.9-0.6-1.1c-0.2-0.1-0.6-0.2-1-0.2h-2.6v3.7h-1.2V357z M745.2,360.9c0.5,0,1-0.1,1.3-0.3
		c0.3-0.2,0.5-0.6,0.5-1.2c0-0.6-0.2-1-0.6-1.3c-0.2-0.1-0.5-0.2-0.9-0.2h-2.8v2.9H745.2z"/>
	<path d="M753.6,359.5c0.4,0.2,0.7,0.5,0.9,0.8c0.2,0.3,0.3,0.7,0.4,1.1c0.1,0.3,0.1,0.8,0.1,1.4h-4.6c0,0.6,0.2,1.2,0.4,1.5
		s0.7,0.6,1.3,0.6c0.5,0,1-0.2,1.3-0.5c0.2-0.2,0.3-0.5,0.4-0.7h1c0,0.2-0.1,0.5-0.3,0.8s-0.3,0.5-0.5,0.7c-0.3,0.3-0.7,0.5-1.2,0.6
		c-0.3,0.1-0.5,0.1-0.9,0.1c-0.8,0-1.4-0.3-2-0.9s-0.8-1.4-0.8-2.4c0-1,0.3-1.8,0.8-2.5s1.3-0.9,2.1-0.9
		C752.8,359.1,753.2,359.3,753.6,359.5z M754,361.9c0-0.5-0.1-0.8-0.3-1.1c-0.3-0.5-0.8-0.8-1.4-0.8c-0.5,0-0.9,0.2-1.2,0.5
		c-0.3,0.3-0.5,0.8-0.5,1.3H754z"/>
	<path d="M756.3,359.3h1v0.8c0.2-0.3,0.4-0.5,0.7-0.7c0.4-0.2,0.8-0.4,1.3-0.4c0.7,0,1.3,0.3,1.8,0.8s0.7,1.3,0.7,2.3
		c0,1.4-0.4,2.3-1.1,2.9c-0.5,0.4-1,0.6-1.6,0.6c-0.5,0-0.9-0.1-1.2-0.3c-0.2-0.1-0.4-0.3-0.6-0.6v3.2h-1.1V359.3z M760.3,364.2
		c0.3-0.4,0.5-1,0.5-1.8c0-0.5-0.1-0.9-0.2-1.3c-0.3-0.7-0.8-1-1.5-1c-0.7,0-1.2,0.4-1.5,1.1c-0.1,0.4-0.2,0.9-0.2,1.5
		c0,0.5,0.1,0.9,0.2,1.2c0.3,0.6,0.8,1,1.5,1C759.6,364.9,760,364.6,760.3,364.2z"/>
	<path d="M764.2,359.3v4.2c0,0.3,0,0.6,0.1,0.8c0.2,0.4,0.5,0.6,1,0.6c0.7,0,1.2-0.3,1.5-1c0.1-0.4,0.2-0.8,0.2-1.4v-3.1h1.1v6.3h-1
		l0-0.9c-0.1,0.2-0.3,0.4-0.5,0.6c-0.4,0.3-0.9,0.5-1.4,0.5c-0.9,0-1.5-0.3-1.8-0.9c-0.2-0.3-0.3-0.7-0.3-1.3v-4.3H764.2z
		 M766.9,356.8l-1.6,1.7h-0.8l1.1-1.7H766.9z"/>
	<path d="M769.7,356.9h1v3.1c0.2-0.3,0.5-0.5,0.8-0.7c0.3-0.2,0.7-0.2,1-0.2c0.8,0,1.4,0.3,1.9,0.8s0.7,1.3,0.7,2.4
		c0,1-0.2,1.8-0.7,2.5s-1.2,1-2,1c-0.5,0-0.9-0.1-1.2-0.3c-0.2-0.1-0.4-0.4-0.6-0.7v0.8h-1V356.9z M773.7,364.2
		c0.3-0.5,0.4-1.1,0.4-1.8c0-0.7-0.1-1.2-0.4-1.6c-0.3-0.4-0.7-0.7-1.3-0.7c-0.5,0-0.9,0.2-1.3,0.5s-0.5,0.9-0.5,1.8
		c0,0.6,0.1,1.1,0.2,1.4c0.3,0.7,0.8,1,1.6,1C773,364.8,773.4,364.6,773.7,364.2z"/>
	<path d="M776.5,357h1.1v8.6h-1.1V357z"/>
	<path d="M779.1,357h1.1v1.2h-1.1V357z M779.1,359.3h1.1v6.2h-1.1V359.3z"/>
	<path d="M785.9,359.6c0.4,0.3,0.7,0.9,0.8,1.8h-1c-0.1-0.4-0.2-0.7-0.4-1s-0.6-0.4-1.1-0.4c-0.7,0-1.2,0.3-1.4,1
		c-0.2,0.4-0.3,0.9-0.3,1.6c0,0.6,0.1,1.2,0.4,1.6s0.7,0.6,1.3,0.6c0.4,0,0.8-0.1,1-0.4s0.4-0.6,0.5-1.1h1c-0.1,0.8-0.4,1.4-0.9,1.8
		s-1.1,0.6-1.8,0.6c-0.8,0-1.5-0.3-2-0.9s-0.7-1.3-0.7-2.2c0-1.1,0.3-2,0.8-2.6s1.2-0.9,2-0.9C784.9,359.1,785.5,359.3,785.9,359.6z
		"/>
	<path d="M791.2,361.8c0.2,0,0.4-0.1,0.5-0.3c0-0.1,0.1-0.2,0.1-0.4c0-0.4-0.1-0.6-0.4-0.8c-0.3-0.2-0.6-0.2-1.1-0.2
		c-0.5,0-0.9,0.1-1.2,0.4c-0.1,0.2-0.2,0.4-0.3,0.7h-1c0-0.8,0.3-1.3,0.8-1.6c0.5-0.3,1-0.5,1.7-0.5c0.7,0,1.3,0.1,1.8,0.4
		c0.5,0.3,0.7,0.7,0.7,1.3v3.6c0,0.1,0,0.2,0.1,0.3c0,0.1,0.1,0.1,0.3,0.1c0,0,0.1,0,0.2,0s0.1,0,0.2,0v0.8c-0.2,0-0.3,0.1-0.4,0.1
		s-0.2,0-0.4,0c-0.4,0-0.6-0.1-0.8-0.4c-0.1-0.1-0.1-0.3-0.2-0.6c-0.2,0.3-0.5,0.5-0.9,0.7s-0.8,0.3-1.3,0.3c-0.6,0-1.1-0.2-1.4-0.5
		s-0.6-0.8-0.6-1.3c0-0.6,0.2-1,0.5-1.4s0.8-0.5,1.4-0.6L791.2,361.8z M788.9,364.6c0.2,0.2,0.5,0.3,0.8,0.3c0.4,0,0.7-0.1,1.1-0.3
		c0.6-0.3,0.9-0.8,0.9-1.4v-0.8c-0.1,0.1-0.3,0.2-0.5,0.2c-0.2,0.1-0.4,0.1-0.6,0.1l-0.6,0.1c-0.4,0.1-0.7,0.1-0.9,0.2
		c-0.3,0.2-0.5,0.5-0.5,0.9C788.6,364.2,788.7,364.4,788.9,364.6z"/>
</g>
<g>
	<path d="M862.8,225.8c0.6,0.6,0.9,1.2,1,2h-1.1c-0.1-0.6-0.4-1-0.8-1.3s-0.9-0.5-1.6-0.5c-0.8,0-1.5,0.3-2,0.9
		c-0.5,0.6-0.8,1.5-0.8,2.7c0,1,0.2,1.8,0.7,2.5c0.5,0.6,1.2,0.9,2.1,0.9c0.8,0,1.5-0.3,1.9-1c0.2-0.3,0.4-0.8,0.5-1.4h1.1
		c-0.1,0.9-0.4,1.7-1,2.3c-0.7,0.7-1.6,1.1-2.7,1.1c-1,0-1.8-0.3-2.5-0.9c-0.9-0.8-1.3-2-1.3-3.7c0-1.3,0.3-2.3,1-3.1
		c0.7-0.9,1.7-1.3,3-1.3C861.4,225,862.2,225.2,862.8,225.8z"/>
	<path d="M865.4,225.2h1.2v3.6h4.4v-3.6h1.2v8.6H871v-4h-4.4v4h-1.2V225.2z"/>
	<path d="M875.3,225.2v5.3c0,0.6,0.1,1.1,0.4,1.6c0.4,0.6,0.9,0.9,1.8,0.9c1,0,1.7-0.3,2-1c0.2-0.4,0.3-0.9,0.3-1.5v-5.3h1.2v4.8
		c0,1.1-0.1,1.9-0.4,2.4c-0.5,1-1.5,1.6-3,1.6s-2.4-0.5-3-1.6c-0.3-0.6-0.4-1.4-0.4-2.4v-4.8H875.3z"/>
	<path d="M888.8,225.8c0.6,0.6,0.9,1.2,1,2h-1.1c-0.1-0.6-0.4-1-0.8-1.3s-0.9-0.5-1.6-0.5c-0.8,0-1.5,0.3-2,0.9
		c-0.5,0.6-0.8,1.5-0.8,2.7c0,1,0.2,1.8,0.7,2.5c0.5,0.6,1.2,0.9,2.1,0.9c0.8,0,1.5-0.3,1.9-1c0.2-0.3,0.4-0.8,0.5-1.4h1.1
		c-0.1,0.9-0.4,1.7-1,2.3c-0.7,0.7-1.6,1.1-2.7,1.1c-1,0-1.8-0.3-2.5-0.9c-0.9-0.8-1.3-2-1.3-3.7c0-1.3,0.3-2.3,1-3.1
		c0.7-0.9,1.7-1.3,3-1.3C887.4,225,888.2,225.2,888.8,225.8z"/>
</g>
<g>
	<path d="M109.2,394.4h6v1.1h-4.8v2.6h4.2v1h-4.2v3.9h-1.2V394.4z"/>
	<path d="M120.8,397.3c0.6,0.5,0.8,1.3,0.8,2.4c0,1-0.2,1.8-0.7,2.5s-1.2,1-2.3,1c-0.9,0-1.5-0.3-2-0.9c-0.5-0.6-0.8-1.4-0.8-2.4
		c0-1.1,0.3-1.9,0.8-2.5c0.5-0.6,1.2-0.9,2.1-0.9C119.5,396.5,120.2,396.8,120.8,397.3z M120.1,401.5c0.3-0.5,0.4-1.1,0.4-1.8
		c0-0.6-0.1-1.1-0.3-1.4c-0.3-0.6-0.8-0.9-1.5-0.9c-0.6,0-1.1,0.2-1.4,0.7s-0.4,1.1-0.4,1.8c0,0.7,0.1,1.2,0.4,1.7s0.7,0.7,1.4,0.7
		C119.4,402.3,119.9,402,120.1,401.5z M120,394.2l-1.6,1.7h-0.8l1.1-1.7H120z"/>
	<path d="M122.9,396.7h1v1.1c0.1-0.2,0.3-0.5,0.6-0.8s0.7-0.5,1.1-0.5c0,0,0.1,0,0.1,0s0.1,0,0.2,0v1.1c-0.1,0-0.1,0-0.2,0
		s-0.1,0-0.2,0c-0.5,0-0.9,0.2-1.2,0.5s-0.4,0.7-0.4,1.2v3.6h-1.1V396.7z"/>
	<path d="M128,396.7v4.2c0,0.3,0,0.6,0.1,0.8c0.2,0.4,0.5,0.6,1,0.6c0.7,0,1.2-0.3,1.5-1c0.1-0.4,0.2-0.8,0.2-1.4v-3.1h1.1v6.3h-1
		l0-0.9c-0.1,0.2-0.3,0.4-0.5,0.6c-0.4,0.3-0.9,0.5-1.4,0.5c-0.9,0-1.5-0.3-1.8-0.9c-0.2-0.3-0.3-0.7-0.3-1.3v-4.3H128z"/>
	<path d="M133.6,396.7h1v0.9c0.2-0.3,0.5-0.5,0.7-0.7c0.3-0.2,0.7-0.4,1.2-0.4c0.5,0,0.9,0.1,1.2,0.4c0.2,0.1,0.3,0.3,0.5,0.6
		c0.2-0.3,0.5-0.6,0.8-0.7s0.7-0.2,1.1-0.2c0.8,0,1.4,0.3,1.7,0.9c0.2,0.3,0.2,0.8,0.2,1.3v4.2h-1.1v-4.4c0-0.4-0.1-0.7-0.3-0.9
		s-0.5-0.2-0.8-0.2c-0.4,0-0.8,0.1-1.1,0.4s-0.4,0.7-0.4,1.4v3.7h-1.1v-4.1c0-0.4-0.1-0.7-0.2-0.9c-0.2-0.3-0.5-0.4-0.9-0.4
		c-0.4,0-0.8,0.2-1.1,0.5s-0.5,0.9-0.5,1.7v3.3h-1.1V396.7z"/>
	<path d="M153.1,395c0.6,0.6,0.9,1.2,1,2H153c-0.1-0.6-0.4-1-0.8-1.3s-0.9-0.5-1.6-0.5c-0.8,0-1.5,0.3-2,0.9
		c-0.5,0.6-0.8,1.5-0.8,2.7c0,1,0.2,1.8,0.7,2.5c0.5,0.6,1.2,0.9,2.1,0.9c0.8,0,1.5-0.3,1.9-1c0.2-0.3,0.4-0.8,0.5-1.4h1.1
		c-0.1,0.9-0.4,1.7-1,2.3c-0.7,0.7-1.6,1.1-2.7,1.1c-1,0-1.8-0.3-2.5-0.9c-0.9-0.8-1.3-2-1.3-3.7c0-1.3,0.3-2.3,1-3.1
		c0.7-0.9,1.7-1.3,3-1.3C151.7,394.1,152.5,394.4,153.1,395z"/>
	<path d="M160.1,397.3c0.6,0.5,0.8,1.3,0.8,2.4c0,1-0.2,1.8-0.7,2.5s-1.2,1-2.3,1c-0.9,0-1.5-0.3-2-0.9c-0.5-0.6-0.8-1.4-0.8-2.4
		c0-1.1,0.3-1.9,0.8-2.5c0.5-0.6,1.2-0.9,2.1-0.9C158.9,396.5,159.6,396.8,160.1,397.3z M159.5,401.5c0.3-0.5,0.4-1.1,0.4-1.8
		c0-0.6-0.1-1.1-0.3-1.4c-0.3-0.6-0.8-0.9-1.5-0.9c-0.6,0-1.1,0.2-1.4,0.7s-0.4,1.1-0.4,1.8c0,0.7,0.1,1.2,0.4,1.7s0.7,0.7,1.4,0.7
		C158.7,402.3,159.2,402,159.5,401.5z"/>
	<path d="M162.2,394.4h1.1v1.2h-1.1V394.4z M162.2,396.7h1.1v6.2h-1.1V396.7z"/>
	<path d="M164.9,396.7h1v0.9c0.2-0.3,0.5-0.5,0.7-0.7c0.3-0.2,0.7-0.4,1.2-0.4c0.5,0,0.9,0.1,1.2,0.4c0.2,0.1,0.3,0.3,0.5,0.6
		c0.2-0.3,0.5-0.6,0.8-0.7s0.7-0.2,1.1-0.2c0.8,0,1.4,0.3,1.7,0.9c0.2,0.3,0.2,0.8,0.2,1.3v4.2h-1.1v-4.4c0-0.4-0.1-0.7-0.3-0.9
		s-0.5-0.2-0.8-0.2c-0.4,0-0.8,0.1-1.1,0.4s-0.4,0.7-0.4,1.4v3.7h-1.1v-4.1c0-0.4-0.1-0.7-0.2-0.9c-0.2-0.3-0.5-0.4-0.9-0.4
		c-0.4,0-0.8,0.2-1.1,0.5s-0.5,0.9-0.5,1.7v3.3h-1.1V396.7z"/>
	<path d="M174.8,394.4h1v3.1c0.2-0.3,0.5-0.5,0.8-0.7c0.3-0.2,0.7-0.2,1-0.2c0.8,0,1.4,0.3,1.9,0.8s0.7,1.3,0.7,2.4
		c0,1-0.2,1.8-0.7,2.5s-1.2,1-2,1c-0.5,0-0.9-0.1-1.2-0.3c-0.2-0.1-0.4-0.4-0.6-0.7v0.8h-1V394.4z M178.9,401.6
		c0.3-0.5,0.4-1.1,0.4-1.8c0-0.7-0.1-1.2-0.4-1.6c-0.3-0.4-0.7-0.7-1.3-0.7c-0.5,0-0.9,0.2-1.3,0.5c-0.4,0.4-0.5,0.9-0.5,1.8
		c0,0.6,0.1,1.1,0.2,1.4c0.3,0.7,0.8,1,1.6,1C178.1,402.3,178.6,402,178.9,401.6z"/>
	<path d="M181.6,396.7h1v1.1c0.1-0.2,0.3-0.5,0.6-0.8s0.7-0.5,1.1-0.5c0,0,0.1,0,0.1,0s0.1,0,0.2,0v1.1c-0.1,0-0.1,0-0.2,0
		s-0.1,0-0.2,0c-0.5,0-0.9,0.2-1.2,0.5s-0.4,0.7-0.4,1.2v3.6h-1.1V396.7z"/>
	<path d="M188.9,399.2c0.2,0,0.4-0.1,0.5-0.3c0-0.1,0.1-0.2,0.1-0.4c0-0.4-0.1-0.6-0.4-0.8s-0.6-0.2-1.1-0.2c-0.5,0-0.9,0.1-1.2,0.4
		c-0.1,0.2-0.2,0.4-0.3,0.7h-1c0-0.8,0.3-1.3,0.8-1.6c0.5-0.3,1-0.5,1.7-0.5c0.7,0,1.3,0.1,1.8,0.4c0.5,0.3,0.7,0.7,0.7,1.3v3.6
		c0,0.1,0,0.2,0.1,0.3c0,0.1,0.1,0.1,0.3,0.1c0,0,0.1,0,0.2,0s0.1,0,0.2,0v0.8c-0.2,0-0.3,0.1-0.4,0.1s-0.2,0-0.4,0
		c-0.4,0-0.6-0.1-0.8-0.4c-0.1-0.1-0.1-0.3-0.2-0.6c-0.2,0.3-0.5,0.5-0.9,0.7s-0.8,0.3-1.3,0.3c-0.6,0-1.1-0.2-1.4-0.5
		s-0.6-0.8-0.6-1.3c0-0.6,0.2-1,0.5-1.4s0.8-0.5,1.4-0.6L188.9,399.2z M186.7,402c0.2,0.2,0.5,0.3,0.8,0.3c0.4,0,0.7-0.1,1.1-0.3
		c0.6-0.3,0.9-0.8,0.9-1.4v-0.8c-0.1,0.1-0.3,0.2-0.5,0.2c-0.2,0.1-0.4,0.1-0.6,0.1l-0.6,0.1c-0.4,0.1-0.7,0.1-0.9,0.2
		c-0.3,0.2-0.5,0.5-0.5,0.9C186.4,401.6,186.5,401.9,186.7,402z"/>
</g>
<g>
	<path d="M837.7,850.1l-0.6,0.7l-1.3-1c-0.3,0.2-0.7,0.3-1,0.4s-0.8,0.2-1.2,0.2c-1.3,0-2.4-0.4-3.1-1.3c-0.7-0.9-1-1.9-1-3.2
		c0-1.2,0.3-2.2,0.9-3c0.7-1.1,1.8-1.6,3.3-1.6c1.5,0,2.6,0.5,3.4,1.5c0.6,0.8,0.9,1.7,0.9,2.9c0,0.6-0.1,1.1-0.2,1.6
		c-0.2,0.8-0.6,1.4-1,1.9L837.7,850.1z M834.3,849.2c0.2,0,0.4-0.1,0.6-0.2l-1-0.7l0.6-0.7l1.1,0.9c0.4-0.4,0.6-0.9,0.7-1.4
		c0.1-0.5,0.2-1,0.2-1.4c0-1-0.3-1.8-0.8-2.4s-1.3-0.9-2.2-0.9c-0.9,0-1.7,0.3-2.2,0.9s-0.8,1.5-0.8,2.7c0,1,0.3,1.9,0.8,2.5
		c0.5,0.6,1.3,0.9,2.3,0.9C833.9,849.3,834.1,849.3,834.3,849.2z"/>
	<path d="M840,843.8v4.2c0,0.3,0,0.6,0.1,0.8c0.2,0.4,0.5,0.6,1,0.6c0.7,0,1.2-0.3,1.5-1c0.1-0.4,0.2-0.8,0.2-1.4v-3.1h1.1v6.3h-1
		l0-0.9c-0.1,0.2-0.3,0.4-0.5,0.6c-0.4,0.3-0.9,0.5-1.4,0.5c-0.9,0-1.5-0.3-1.8-0.9c-0.2-0.3-0.3-0.7-0.3-1.3v-4.3H840z"/>
	<path d="M845.7,841.5h1.1v1.2h-1.1V841.5z M845.7,843.8h1.1v6.2h-1.1V843.8z"/>
	<path d="M848.3,843.8h1v0.9c0.3-0.4,0.6-0.6,0.9-0.8s0.7-0.2,1.1-0.2c0.9,0,1.5,0.3,1.8,0.9c0.2,0.3,0.3,0.8,0.3,1.5v4h-1.1v-4
		c0-0.4-0.1-0.7-0.2-0.9c-0.2-0.4-0.5-0.6-1-0.6c-0.2,0-0.5,0-0.6,0.1c-0.3,0.1-0.5,0.3-0.8,0.5c-0.2,0.2-0.3,0.4-0.3,0.6
		s-0.1,0.5-0.1,0.9v3.3h-1.1V843.8z"/>
	<path d="M855.2,842.1h1.1v1.8h1v0.9h-1v4.1c0,0.2,0.1,0.4,0.2,0.4c0.1,0,0.2,0.1,0.4,0.1c0.1,0,0.1,0,0.2,0s0.1,0,0.2,0v0.8
		c-0.1,0-0.2,0.1-0.4,0.1s-0.3,0-0.4,0c-0.5,0-0.8-0.1-1-0.4s-0.3-0.6-0.3-1v-4.2h-0.8v-0.9h0.8V842.1z"/>
	<path d="M861.7,846.3c0.2,0,0.4-0.1,0.5-0.3c0-0.1,0.1-0.2,0.1-0.4c0-0.4-0.1-0.6-0.4-0.8c-0.3-0.2-0.6-0.2-1.1-0.2
		c-0.5,0-0.9,0.1-1.2,0.4c-0.1,0.2-0.2,0.4-0.3,0.7h-1c0-0.8,0.3-1.3,0.8-1.6c0.5-0.3,1-0.5,1.7-0.5c0.7,0,1.3,0.1,1.8,0.4
		c0.5,0.3,0.7,0.7,0.7,1.3v3.6c0,0.1,0,0.2,0.1,0.3s0.1,0.1,0.3,0.1c0,0,0.1,0,0.2,0s0.1,0,0.2,0v0.8c-0.2,0-0.3,0.1-0.4,0.1
		s-0.2,0-0.4,0c-0.4,0-0.6-0.1-0.8-0.4c-0.1-0.1-0.1-0.3-0.2-0.6c-0.2,0.3-0.5,0.5-0.9,0.7s-0.8,0.3-1.3,0.3c-0.6,0-1.1-0.2-1.4-0.5
		c-0.4-0.4-0.6-0.8-0.6-1.3c0-0.6,0.2-1,0.5-1.4s0.8-0.5,1.4-0.6L861.7,846.3z M859.5,849.1c0.2,0.2,0.5,0.3,0.8,0.3
		c0.4,0,0.7-0.1,1.1-0.3c0.6-0.3,0.9-0.8,0.9-1.4v-0.8c-0.1,0.1-0.3,0.2-0.5,0.2c-0.2,0.1-0.4,0.1-0.6,0.1l-0.6,0.1
		c-0.4,0.1-0.7,0.1-0.9,0.2c-0.3,0.2-0.5,0.5-0.5,0.9C859.1,848.7,859.2,849,859.5,849.1z"/>
	<path d="M871.8,844c0.2,0.1,0.4,0.3,0.6,0.6v-3.2h1v8.6h-0.9v-0.9c-0.2,0.4-0.5,0.7-0.9,0.8c-0.3,0.2-0.7,0.3-1.2,0.3
		c-0.7,0-1.3-0.3-1.8-0.9s-0.8-1.4-0.8-2.3c0-0.9,0.2-1.7,0.7-2.4s1.1-1,2-1C871.1,843.7,871.5,843.8,871.8,844z M869.4,848.7
		c0.3,0.5,0.7,0.7,1.4,0.7c0.5,0,0.9-0.2,1.2-0.6c0.3-0.4,0.5-1,0.5-1.8c0-0.8-0.2-1.4-0.5-1.8c-0.3-0.4-0.7-0.6-1.2-0.6
		c-0.5,0-1,0.2-1.3,0.6s-0.5,1-0.5,1.8C869,847.7,869.1,848.2,869.4,848.7z"/>
	<path d="M878.4,846.3c0.2,0,0.4-0.1,0.5-0.3c0-0.1,0.1-0.2,0.1-0.4c0-0.4-0.1-0.6-0.4-0.8c-0.3-0.2-0.6-0.2-1.1-0.2
		c-0.5,0-0.9,0.1-1.2,0.4c-0.1,0.2-0.2,0.4-0.3,0.7h-1c0-0.8,0.3-1.3,0.8-1.6c0.5-0.3,1-0.5,1.7-0.5c0.7,0,1.3,0.1,1.8,0.4
		c0.5,0.3,0.7,0.7,0.7,1.3v3.6c0,0.1,0,0.2,0.1,0.3s0.1,0.1,0.3,0.1c0,0,0.1,0,0.2,0s0.1,0,0.2,0v0.8c-0.2,0-0.3,0.1-0.4,0.1
		s-0.2,0-0.4,0c-0.4,0-0.6-0.1-0.8-0.4c-0.1-0.1-0.1-0.3-0.2-0.6c-0.2,0.3-0.5,0.5-0.9,0.7s-0.8,0.3-1.3,0.3c-0.6,0-1.1-0.2-1.4-0.5
		c-0.4-0.4-0.6-0.8-0.6-1.3c0-0.6,0.2-1,0.5-1.4s0.8-0.5,1.4-0.6L878.4,846.3z M876.2,849.1c0.2,0.2,0.5,0.3,0.8,0.3
		c0.4,0,0.7-0.1,1.1-0.3c0.6-0.3,0.9-0.8,0.9-1.4v-0.8c-0.1,0.1-0.3,0.2-0.5,0.2c-0.2,0.1-0.4,0.1-0.6,0.1l-0.6,0.1
		c-0.4,0.1-0.7,0.1-0.9,0.2c-0.3,0.2-0.5,0.5-0.5,0.9C875.8,848.7,875.9,849,876.2,849.1z"/>
	<path d="M885.3,841.5h3.9c0.8,0,1.4,0.2,1.8,0.6s0.7,1,0.7,1.8c0,0.7-0.2,1.3-0.6,1.8s-1.1,0.7-1.9,0.7h-2.7v3.6h-1.2V841.5z
		 M889.8,842.7c-0.3-0.1-0.6-0.2-1.1-0.2h-2.3v3h2.3c0.5,0,0.9-0.1,1.3-0.3c0.3-0.2,0.5-0.6,0.5-1.2
		C890.5,843.3,890.3,842.9,889.8,842.7z"/>
	<path d="M897.6,844.4c0.6,0.5,0.8,1.3,0.8,2.4c0,1-0.2,1.8-0.7,2.5c-0.5,0.7-1.2,1-2.3,1c-0.9,0-1.5-0.3-2-0.9
		c-0.5-0.6-0.8-1.4-0.8-2.4c0-1.1,0.3-1.9,0.8-2.5s1.2-0.9,2.1-0.9C896.3,843.6,897,843.9,897.6,844.4z M896.9,848.6
		c0.3-0.5,0.4-1.1,0.4-1.8c0-0.6-0.1-1.1-0.3-1.4c-0.3-0.6-0.8-0.9-1.5-0.9c-0.6,0-1.1,0.2-1.4,0.7s-0.4,1.1-0.4,1.8
		c0,0.7,0.1,1.2,0.4,1.7s0.7,0.7,1.4,0.7C896.2,849.4,896.7,849.1,896.9,848.6z"/>
	<path d="M899.7,843.8h1v1.1c0.1-0.2,0.3-0.5,0.6-0.8s0.7-0.5,1.1-0.5c0,0,0.1,0,0.1,0s0.1,0,0.2,0v1.1c-0.1,0-0.1,0-0.2,0
		s-0.1,0-0.2,0c-0.5,0-0.9,0.2-1.2,0.5s-0.4,0.7-0.4,1.2v3.6h-1.1V843.8z"/>
	<path d="M903.9,842.1h1.1v1.8h1v0.9h-1v4.1c0,0.2,0.1,0.4,0.2,0.4c0.1,0,0.2,0.1,0.4,0.1c0.1,0,0.1,0,0.2,0s0.1,0,0.2,0v0.8
		c-0.1,0-0.2,0.1-0.4,0.1s-0.3,0-0.4,0c-0.5,0-0.8-0.1-1-0.4s-0.3-0.6-0.3-1v-4.2h-0.8v-0.9h0.8V842.1z"/>
	<path d="M910.9,844c0.4,0.2,0.7,0.5,0.9,0.8c0.2,0.3,0.3,0.7,0.4,1.1c0.1,0.3,0.1,0.8,0.1,1.4h-4.6c0,0.6,0.2,1.2,0.4,1.5
		c0.3,0.4,0.7,0.6,1.3,0.6c0.5,0,1-0.2,1.3-0.5c0.2-0.2,0.3-0.5,0.4-0.7h1c0,0.2-0.1,0.5-0.3,0.8s-0.3,0.5-0.5,0.7
		c-0.3,0.3-0.7,0.5-1.2,0.6c-0.3,0.1-0.5,0.1-0.9,0.1c-0.8,0-1.4-0.3-2-0.9s-0.8-1.4-0.8-2.4c0-1,0.3-1.8,0.8-2.5s1.3-0.9,2.1-0.9
		C910.1,843.7,910.5,843.8,910.9,844z M911.3,846.4c0-0.5-0.1-0.8-0.3-1.1c-0.3-0.5-0.8-0.8-1.4-0.8c-0.5,0-0.9,0.2-1.2,0.5
		c-0.3,0.3-0.5,0.8-0.5,1.3H911.3z"/>
	<path d="M913.7,841.5h1.1v8.6h-1.1V841.5z"/>
	<path d="M919.7,846.3c0.2,0,0.4-0.1,0.5-0.3c0-0.1,0.1-0.2,0.1-0.4c0-0.4-0.1-0.6-0.4-0.8c-0.3-0.2-0.6-0.2-1.1-0.2
		c-0.5,0-0.9,0.1-1.2,0.4c-0.1,0.2-0.2,0.4-0.3,0.7h-1c0-0.8,0.3-1.3,0.8-1.6c0.5-0.3,1-0.5,1.7-0.5c0.7,0,1.3,0.1,1.8,0.4
		c0.5,0.3,0.7,0.7,0.7,1.3v3.6c0,0.1,0,0.2,0.1,0.3s0.1,0.1,0.3,0.1c0,0,0.1,0,0.2,0s0.1,0,0.2,0v0.8c-0.2,0-0.3,0.1-0.4,0.1
		s-0.2,0-0.4,0c-0.4,0-0.6-0.1-0.8-0.4c-0.1-0.1-0.1-0.3-0.2-0.6c-0.2,0.3-0.5,0.5-0.9,0.7s-0.8,0.3-1.3,0.3c-0.6,0-1.1-0.2-1.4-0.5
		c-0.4-0.4-0.6-0.8-0.6-1.3c0-0.6,0.2-1,0.5-1.4s0.8-0.5,1.4-0.6L919.7,846.3z M917.5,849.1c0.2,0.2,0.5,0.3,0.8,0.3
		c0.4,0,0.7-0.1,1.1-0.3c0.6-0.3,0.9-0.8,0.9-1.4v-0.8c-0.1,0.1-0.3,0.2-0.5,0.2c-0.2,0.1-0.4,0.1-0.6,0.1l-0.6,0.1
		c-0.4,0.1-0.7,0.1-0.9,0.2c-0.3,0.2-0.5,0.5-0.5,0.9C917.2,848.7,917.3,849,917.5,849.1z"/>
</g>
<g>
	<path d="M440.5,277h3.9c0.6,0,1.2,0.1,1.6,0.3c0.8,0.4,1.2,1,1.2,2c0,0.5-0.1,0.9-0.3,1.3s-0.5,0.6-0.9,0.8
		c0.3,0.1,0.6,0.3,0.8,0.5s0.3,0.6,0.3,1.1l0,1.2c0,0.3,0,0.6,0.1,0.7c0.1,0.3,0.2,0.4,0.4,0.5v0.2h-1.4c0-0.1-0.1-0.2-0.1-0.3
		s0-0.3-0.1-0.7l-0.1-1.4c0-0.6-0.2-0.9-0.6-1.1c-0.2-0.1-0.6-0.2-1-0.2h-2.6v3.7h-1.2V277z M444.2,281c0.5,0,1-0.1,1.3-0.3
		s0.5-0.6,0.5-1.2c0-0.6-0.2-1-0.6-1.3c-0.2-0.1-0.5-0.2-0.9-0.2h-2.8v2.9H444.2z"/>
	<path d="M453.4,280c0.6,0.5,0.8,1.3,0.8,2.4c0,1-0.2,1.8-0.7,2.5s-1.2,1-2.3,1c-0.9,0-1.5-0.3-2-0.9s-0.8-1.4-0.8-2.4
		c0-1.1,0.3-1.9,0.8-2.5c0.5-0.6,1.2-0.9,2.1-0.9C452.2,279.2,452.8,279.4,453.4,280z M452.7,284.1c0.3-0.5,0.4-1.1,0.4-1.8
		c0-0.6-0.1-1.1-0.3-1.4c-0.3-0.6-0.8-0.9-1.5-0.9c-0.6,0-1.1,0.2-1.4,0.7c-0.3,0.5-0.4,1.1-0.4,1.8c0,0.7,0.1,1.2,0.4,1.7
		c0.3,0.4,0.7,0.7,1.4,0.7C452,284.9,452.5,284.7,452.7,284.1z"/>
	<path d="M459,279.5c0.2,0.1,0.4,0.3,0.6,0.6V277h1v8.6h-0.9v-0.9c-0.2,0.4-0.5,0.7-0.9,0.8c-0.3,0.2-0.7,0.3-1.2,0.3
		c-0.7,0-1.3-0.3-1.8-0.9s-0.8-1.4-0.8-2.3c0-0.9,0.2-1.7,0.7-2.4c0.5-0.7,1.1-1,2-1C458.2,279.2,458.6,279.3,459,279.5z
		 M456.6,284.2c0.3,0.5,0.7,0.7,1.4,0.7c0.5,0,0.9-0.2,1.2-0.6s0.5-1,0.5-1.8c0-0.8-0.2-1.4-0.5-1.8s-0.7-0.6-1.2-0.6
		c-0.5,0-1,0.2-1.3,0.6c-0.3,0.4-0.5,1-0.5,1.8C456.2,283.2,456.3,283.8,456.6,284.2z"/>
	<path d="M466.7,280c0.6,0.5,0.8,1.3,0.8,2.4c0,1-0.2,1.8-0.7,2.5s-1.2,1-2.3,1c-0.9,0-1.5-0.3-2-0.9s-0.8-1.4-0.8-2.4
		c0-1.1,0.3-1.9,0.8-2.5c0.5-0.6,1.2-0.9,2.1-0.9C465.5,279.2,466.2,279.4,466.7,280z M466.1,284.1c0.3-0.5,0.4-1.1,0.4-1.8
		c0-0.6-0.1-1.1-0.3-1.4c-0.3-0.6-0.8-0.9-1.5-0.9c-0.6,0-1.1,0.2-1.4,0.7c-0.3,0.5-0.4,1.1-0.4,1.8c0,0.7,0.1,1.2,0.4,1.7
		c0.3,0.4,0.7,0.7,1.4,0.7C465.4,284.9,465.8,284.7,466.1,284.1z"/>
	<path d="M469.4,279.3l1.7,5.1l1.7-5.1h1.2l-2.4,6.3h-1.1l-2.3-6.3H469.4z"/>
	<path d="M474.9,277h1.1v1.2h-1.1V277z M474.9,279.4h1.1v6.2h-1.1V279.4z"/>
	<path d="M480.9,281.8c0.2,0,0.4-0.1,0.5-0.3c0-0.1,0.1-0.2,0.1-0.4c0-0.4-0.1-0.6-0.4-0.8c-0.3-0.2-0.6-0.2-1.1-0.2
		c-0.6,0-0.9,0.1-1.2,0.4c-0.1,0.2-0.2,0.4-0.3,0.7h-1c0-0.8,0.3-1.3,0.8-1.6c0.5-0.3,1-0.5,1.7-0.5c0.7,0,1.3,0.1,1.8,0.4
		c0.5,0.3,0.7,0.7,0.7,1.3v3.6c0,0.1,0,0.2,0.1,0.3c0,0.1,0.1,0.1,0.3,0.1c0,0,0.1,0,0.2,0s0.1,0,0.2,0v0.8c-0.2,0-0.3,0.1-0.4,0.1
		s-0.2,0-0.4,0c-0.4,0-0.6-0.1-0.8-0.4c-0.1-0.1-0.1-0.3-0.2-0.6c-0.2,0.3-0.5,0.5-0.9,0.7s-0.8,0.3-1.3,0.3c-0.6,0-1.1-0.2-1.4-0.5
		s-0.6-0.8-0.6-1.3c0-0.6,0.2-1,0.5-1.4s0.8-0.5,1.4-0.6L480.9,281.8z M478.7,284.7c0.2,0.2,0.5,0.3,0.8,0.3c0.4,0,0.7-0.1,1.1-0.3
		c0.6-0.3,0.9-0.8,0.9-1.4v-0.8c-0.1,0.1-0.3,0.2-0.5,0.2c-0.2,0.1-0.4,0.1-0.6,0.1l-0.6,0.1c-0.4,0.1-0.7,0.1-0.9,0.2
		c-0.3,0.2-0.5,0.5-0.5,0.9C478.3,284.3,478.5,284.5,478.7,284.7z M481.3,276.8l-1.6,1.7H479l1.1-1.7H481.3z"/>
	<path d="M484.2,279.3h1v1.1c0.1-0.2,0.3-0.5,0.6-0.8s0.7-0.5,1.1-0.5c0,0,0.1,0,0.1,0s0.1,0,0.2,0v1.1c-0.1,0-0.1,0-0.2,0
		s-0.1,0-0.2,0c-0.5,0-0.9,0.2-1.2,0.5s-0.4,0.7-0.4,1.2v3.6h-1.1V279.3z"/>
	<path d="M488.2,277h1.1v1.2h-1.1V277z M488.2,279.4h1.1v6.2h-1.1V279.4z"/>
	<path d="M495.4,280c0.6,0.5,0.8,1.3,0.8,2.4c0,1-0.2,1.8-0.7,2.5s-1.2,1-2.3,1c-0.9,0-1.5-0.3-2-0.9s-0.8-1.4-0.8-2.4
		c0-1.1,0.3-1.9,0.8-2.5c0.5-0.6,1.2-0.9,2.1-0.9C494.2,279.2,494.9,279.4,495.4,280z M494.8,284.1c0.3-0.5,0.4-1.1,0.4-1.8
		c0-0.6-0.1-1.1-0.3-1.4c-0.3-0.6-0.8-0.9-1.5-0.9c-0.6,0-1.1,0.2-1.4,0.7c-0.3,0.5-0.4,1.1-0.4,1.8c0,0.7,0.1,1.2,0.4,1.7
		c0.3,0.4,0.7,0.7,1.4,0.7C494,284.9,494.5,284.7,494.8,284.1z"/>
</g>
<path d="M433.2,289.5v1.2c0,0.8-0.4,1.4-0.9,1.5c-0.1,0-0.2,0-0.3,0c-0.7,0-1.2-0.7-1.2-1.6v-1.2h-8v1.2c0,0.8-0.6,1.6-1.3,1.6
	c-0.1,0-0.2,0-0.3,0c-0.6-0.1-1-0.8-1-1.5v-1.2h-1.6c-0.4-5.1,0-11.5,1-16.5c1.4-0.5,4.5-0.8,7.1-0.8c2.6,0,5.6,0.3,7.1,0.8
	c1.1,5,1.5,11.4,1,16.5H433.2z M429.8,273.5c0,0-0.1-0.1-0.1-0.1h-6c0,0-0.1,0.1-0.1,0.1v1c0,0.1,0.1,0.1,0.1,0.1h6
	c0,0,0.1,0,0.1-0.1V273.5z M432.2,275.9h-11.2c-0.3,2-0.5,4.1-0.5,6.2h12.2C432.7,280,432.5,277.9,432.2,275.9 M431.9,284.4
	c-0.7,0-1.3,0.7-1.3,1.4c0,0.8,0.6,1.4,1.3,1.4c0.7,0,1.2-0.6,1.2-1.4C433.2,285.1,432.6,284.4,431.9,284.4 M421.4,284.4
	c-0.7,0-1.2,0.7-1.2,1.4c0,0.8,0.6,1.4,1.2,1.4c0.7,0,1.3-0.6,1.3-1.4C422.6,285.1,422.1,284.4,421.4,284.4"/>
<g>
	<path d="M198.8,60.8h1.7l2.5,7.3l2.5-7.3h1.7v8.6h-1.1v-5.1c0-0.2,0-0.5,0-0.9s0-0.8,0-1.3l-2.5,7.3h-1.2l-2.5-7.3v0.3
		c0,0.2,0,0.5,0,1s0,0.7,0,1v5.1h-1.1V60.8z"/>
	<path d="M212,65.6c0.2,0,0.4-0.1,0.5-0.3c0-0.1,0.1-0.2,0.1-0.4c0-0.4-0.1-0.6-0.4-0.8c-0.3-0.2-0.6-0.2-1.1-0.2
		c-0.5,0-0.9,0.1-1.2,0.4c-0.1,0.2-0.2,0.4-0.3,0.7h-1c0-0.8,0.3-1.3,0.8-1.6c0.5-0.3,1-0.5,1.7-0.5c0.7,0,1.3,0.1,1.8,0.4
		c0.5,0.3,0.7,0.7,0.7,1.3v3.6c0,0.1,0,0.2,0.1,0.3c0,0.1,0.1,0.1,0.3,0.1c0,0,0.1,0,0.2,0s0.1,0,0.2,0v0.8c-0.2,0-0.3,0.1-0.4,0.1
		s-0.2,0-0.4,0c-0.4,0-0.6-0.1-0.8-0.4c-0.1-0.1-0.1-0.3-0.2-0.6c-0.2,0.3-0.5,0.5-0.9,0.7s-0.8,0.3-1.3,0.3c-0.6,0-1.1-0.2-1.4-0.5
		s-0.6-0.8-0.6-1.3c0-0.6,0.2-1,0.5-1.4s0.8-0.5,1.4-0.6L212,65.6z M209.8,68.5c0.2,0.2,0.5,0.3,0.8,0.3c0.4,0,0.7-0.1,1.1-0.3
		c0.6-0.3,0.9-0.8,0.9-1.4v-0.8c-0.1,0.1-0.3,0.2-0.5,0.2c-0.2,0.1-0.4,0.1-0.6,0.1l-0.6,0.1c-0.4,0.1-0.7,0.1-0.9,0.2
		c-0.3,0.2-0.5,0.5-0.5,0.9C209.5,68,209.6,68.3,209.8,68.5z"/>
	<path d="M215.6,61.4h1.1v1.8h1V64h-1v4.1c0,0.2,0.1,0.4,0.2,0.4c0.1,0,0.2,0.1,0.4,0.1c0.1,0,0.1,0,0.2,0s0.1,0,0.2,0v0.8
		c-0.1,0-0.2,0.1-0.4,0.1s-0.3,0-0.4,0c-0.5,0-0.8-0.1-1-0.4s-0.3-0.6-0.3-1V64h-0.8v-0.9h0.8V61.4z"/>
	<path d="M222,65.6c0.2,0,0.4-0.1,0.5-0.3c0-0.1,0.1-0.2,0.1-0.4c0-0.4-0.1-0.6-0.4-0.8c-0.3-0.2-0.6-0.2-1.1-0.2
		c-0.5,0-0.9,0.1-1.2,0.4c-0.1,0.2-0.2,0.4-0.3,0.7h-1c0-0.8,0.3-1.3,0.8-1.6c0.5-0.3,1-0.5,1.7-0.5c0.7,0,1.3,0.1,1.8,0.4
		c0.5,0.3,0.7,0.7,0.7,1.3v3.6c0,0.1,0,0.2,0.1,0.3c0,0.1,0.1,0.1,0.3,0.1c0,0,0.1,0,0.2,0s0.1,0,0.2,0v0.8c-0.2,0-0.3,0.1-0.4,0.1
		s-0.2,0-0.4,0c-0.4,0-0.6-0.1-0.8-0.4c-0.1-0.1-0.1-0.3-0.2-0.6c-0.2,0.3-0.5,0.5-0.9,0.7s-0.8,0.3-1.3,0.3c-0.6,0-1.1-0.2-1.4-0.5
		s-0.6-0.8-0.6-1.3c0-0.6,0.2-1,0.5-1.4s0.8-0.5,1.4-0.6L222,65.6z M219.8,68.5c0.2,0.2,0.5,0.3,0.8,0.3c0.4,0,0.7-0.1,1.1-0.3
		c0.6-0.3,0.9-0.8,0.9-1.4v-0.8c-0.1,0.1-0.3,0.2-0.5,0.2c-0.2,0.1-0.4,0.1-0.6,0.1l-0.6,0.1c-0.4,0.1-0.7,0.1-0.9,0.2
		c-0.3,0.2-0.5,0.5-0.5,0.9C219.5,68,219.6,68.3,219.8,68.5z"/>
	<path d="M228.8,60.8h1.4l4.3,7v-7h1.1v8.6h-1.3l-4.4-6.9v6.9h-1.1V60.8z"/>
	<path d="M240.7,65.6c0.2,0,0.4-0.1,0.5-0.3c0-0.1,0.1-0.2,0.1-0.4c0-0.4-0.1-0.6-0.4-0.8c-0.3-0.2-0.6-0.2-1.1-0.2
		c-0.5,0-0.9,0.1-1.2,0.4c-0.1,0.2-0.2,0.4-0.3,0.7h-1c0-0.8,0.3-1.3,0.8-1.6c0.5-0.3,1-0.5,1.7-0.5c0.7,0,1.3,0.1,1.8,0.4
		c0.5,0.3,0.7,0.7,0.7,1.3v3.6c0,0.1,0,0.2,0.1,0.3c0,0.1,0.1,0.1,0.3,0.1c0,0,0.1,0,0.2,0s0.1,0,0.2,0v0.8c-0.2,0-0.3,0.1-0.4,0.1
		s-0.2,0-0.4,0c-0.4,0-0.6-0.1-0.8-0.4c-0.1-0.1-0.1-0.3-0.2-0.6c-0.2,0.3-0.5,0.5-0.9,0.7s-0.8,0.3-1.3,0.3c-0.6,0-1.1-0.2-1.4-0.5
		s-0.6-0.8-0.6-1.3c0-0.6,0.2-1,0.5-1.4s0.8-0.5,1.4-0.6L240.7,65.6z M238.5,68.5c0.2,0.2,0.5,0.3,0.8,0.3c0.4,0,0.7-0.1,1.1-0.3
		c0.6-0.3,0.9-0.8,0.9-1.4v-0.8c-0.1,0.1-0.3,0.2-0.5,0.2c-0.2,0.1-0.4,0.1-0.6,0.1l-0.6,0.1c-0.4,0.1-0.7,0.1-0.9,0.2
		c-0.3,0.2-0.5,0.5-0.5,0.9C238.2,68,238.3,68.3,238.5,68.5z"/>
	<path d="M248.2,63.5c0.4,0.3,0.7,0.9,0.8,1.8h-1c-0.1-0.4-0.2-0.7-0.4-1s-0.6-0.4-1.1-0.4c-0.7,0-1.2,0.3-1.4,1
		c-0.2,0.4-0.3,0.9-0.3,1.6c0,0.6,0.1,1.2,0.4,1.6s0.7,0.6,1.3,0.6c0.4,0,0.8-0.1,1-0.4s0.4-0.6,0.5-1.1h1c-0.1,0.8-0.4,1.4-0.9,1.8
		s-1.1,0.6-1.8,0.6c-0.8,0-1.5-0.3-2-0.9s-0.7-1.3-0.7-2.2c0-1.1,0.3-2,0.8-2.6s1.2-0.9,2-0.9C247.2,62.9,247.7,63.1,248.2,63.5z"/>
	<path d="M250,60.8h1.1V62H250V60.8z M250,63.2h1.1v6.2H250V63.2z"/>
	<path d="M257.2,63.8c0.6,0.5,0.8,1.3,0.8,2.4c0,1-0.2,1.8-0.7,2.5c-0.5,0.7-1.2,1-2.3,1c-0.9,0-1.5-0.3-2-0.9s-0.8-1.4-0.8-2.4
		c0-1.1,0.3-1.9,0.8-2.5c0.5-0.6,1.2-0.9,2.1-0.9C256,62.9,256.7,63.2,257.2,63.8z M256.6,67.9c0.3-0.5,0.4-1.1,0.4-1.8
		c0-0.6-0.1-1.1-0.3-1.4c-0.3-0.6-0.8-0.9-1.5-0.9c-0.6,0-1.1,0.2-1.4,0.7c-0.3,0.5-0.4,1.1-0.4,1.8c0,0.7,0.1,1.2,0.4,1.7
		c0.3,0.4,0.8,0.7,1.4,0.7C255.9,68.7,256.3,68.5,256.6,67.9z"/>
	<path d="M259.4,63.1h1V64c0.3-0.4,0.6-0.6,0.9-0.8s0.7-0.2,1.1-0.2c0.9,0,1.5,0.3,1.8,0.9c0.2,0.3,0.3,0.8,0.3,1.5v4h-1.1v-4
		c0-0.4-0.1-0.7-0.2-0.9c-0.2-0.4-0.5-0.6-1-0.6c-0.2,0-0.5,0-0.6,0.1c-0.3,0.1-0.5,0.3-0.8,0.5c-0.2,0.2-0.3,0.4-0.3,0.6
		s-0.1,0.5-0.1,0.9v3.3h-1.1V63.1z"/>
	<path d="M269.4,65.6c0.2,0,0.4-0.1,0.5-0.3c0-0.1,0.1-0.2,0.1-0.4c0-0.4-0.1-0.6-0.4-0.8c-0.3-0.2-0.6-0.2-1.1-0.2
		c-0.5,0-0.9,0.1-1.2,0.4c-0.1,0.2-0.2,0.4-0.3,0.7h-1c0-0.8,0.3-1.3,0.8-1.6c0.5-0.3,1-0.5,1.7-0.5c0.7,0,1.3,0.1,1.8,0.4
		c0.5,0.3,0.7,0.7,0.7,1.3v3.6c0,0.1,0,0.2,0.1,0.3c0,0.1,0.1,0.1,0.3,0.1c0,0,0.1,0,0.2,0s0.1,0,0.2,0v0.8c-0.2,0-0.3,0.1-0.4,0.1
		s-0.2,0-0.4,0c-0.4,0-0.6-0.1-0.8-0.4c-0.1-0.1-0.1-0.3-0.2-0.6c-0.2,0.3-0.5,0.5-0.9,0.7s-0.8,0.3-1.3,0.3c-0.6,0-1.1-0.2-1.4-0.5
		s-0.6-0.8-0.6-1.3c0-0.6,0.2-1,0.5-1.4s0.8-0.5,1.4-0.6L269.4,65.6z M267.2,68.5c0.2,0.2,0.5,0.3,0.8,0.3c0.4,0,0.7-0.1,1.1-0.3
		c0.6-0.3,0.9-0.8,0.9-1.4v-0.8c-0.1,0.1-0.3,0.2-0.5,0.2c-0.2,0.1-0.4,0.1-0.6,0.1l-0.6,0.1c-0.4,0.1-0.7,0.1-0.9,0.2
		c-0.3,0.2-0.5,0.5-0.5,0.9C266.8,68,267,68.3,267.2,68.5z"/>
	<path d="M272.7,60.8h1.1v8.6h-1.1V60.8z"/>
	<path d="M282.2,63.3c0.2,0.1,0.4,0.3,0.6,0.6v-3.2h1v8.6h-0.9v-0.9c-0.2,0.4-0.5,0.7-0.9,0.8s-0.7,0.3-1.1,0.3
		c-0.7,0-1.3-0.3-1.8-0.9s-0.8-1.4-0.8-2.3c0-0.9,0.2-1.7,0.7-2.4s1.1-1,2-1C281.4,63,281.8,63.1,282.2,63.3z M279.8,68
		c0.3,0.5,0.7,0.7,1.4,0.7c0.5,0,0.9-0.2,1.2-0.6s0.5-1,0.5-1.8c0-0.8-0.2-1.4-0.5-1.8s-0.7-0.6-1.2-0.6c-0.5,0-1,0.2-1.3,0.6
		s-0.5,1-0.5,1.8C279.4,67,279.5,67.6,279.8,68z"/>
	<path d="M289.9,63.8c0.6,0.5,0.8,1.3,0.8,2.4c0,1-0.2,1.8-0.7,2.5c-0.5,0.7-1.2,1-2.3,1c-0.9,0-1.5-0.3-2-0.9s-0.8-1.4-0.8-2.4
		c0-1.1,0.3-1.9,0.8-2.5c0.5-0.6,1.2-0.9,2.1-0.9C288.7,62.9,289.4,63.2,289.9,63.8z M289.3,67.9c0.3-0.5,0.4-1.1,0.4-1.8
		c0-0.6-0.1-1.1-0.3-1.4c-0.3-0.6-0.8-0.9-1.5-0.9c-0.6,0-1.1,0.2-1.4,0.7c-0.3,0.5-0.4,1.1-0.4,1.8c0,0.7,0.1,1.2,0.4,1.7
		c0.3,0.4,0.8,0.7,1.4,0.7C288.5,68.7,289,68.5,289.3,67.9z"/>
	<path d="M301.6,61.4c0.6,0.6,0.9,1.2,1,2h-1.1c-0.1-0.6-0.4-1-0.8-1.3c-0.4-0.3-0.9-0.5-1.6-0.5c-0.8,0-1.5,0.3-2,0.9
		c-0.5,0.6-0.8,1.5-0.8,2.7c0,1,0.2,1.8,0.7,2.5c0.5,0.6,1.2,0.9,2.1,0.9c0.8,0,1.5-0.3,1.9-1c0.2-0.3,0.4-0.8,0.5-1.4h1.1
		c-0.1,0.9-0.4,1.7-1,2.3c-0.7,0.7-1.6,1.1-2.7,1.1c-1,0-1.8-0.3-2.5-0.9c-0.9-0.8-1.3-2-1.3-3.7c0-1.3,0.3-2.3,1-3.1
		c0.7-0.9,1.7-1.3,3-1.3C300.2,60.6,301,60.9,301.6,61.4z"/>
	<path d="M304.1,60.8h1.1V64c0.2-0.3,0.5-0.5,0.7-0.7c0.3-0.2,0.8-0.3,1.3-0.3c0.9,0,1.5,0.3,1.9,1c0.2,0.3,0.3,0.8,0.3,1.4v4h-1.1
		v-4c0-0.5-0.1-0.8-0.2-1c-0.2-0.3-0.6-0.5-1.1-0.5c-0.4,0-0.8,0.2-1.2,0.5s-0.5,0.9-0.5,1.7v3.3h-1.1V60.8z"/>
	<path d="M315.3,63.8c0.6,0.5,0.8,1.3,0.8,2.4c0,1-0.2,1.8-0.7,2.5c-0.5,0.7-1.2,1-2.3,1c-0.9,0-1.5-0.3-2-0.9s-0.8-1.4-0.8-2.4
		c0-1.1,0.3-1.9,0.8-2.5c0.5-0.6,1.2-0.9,2.1-0.9C314,62.9,314.7,63.2,315.3,63.8z M314.6,67.9c0.3-0.5,0.4-1.1,0.4-1.8
		c0-0.6-0.1-1.1-0.3-1.4c-0.3-0.6-0.8-0.9-1.5-0.9c-0.6,0-1.1,0.2-1.4,0.7c-0.3,0.5-0.4,1.1-0.4,1.8c0,0.7,0.1,1.2,0.4,1.7
		c0.3,0.4,0.8,0.7,1.4,0.7C313.9,68.7,314.4,68.5,314.6,67.9z"/>
	<path d="M318.5,63.1v4.2c0,0.3,0,0.6,0.1,0.8c0.2,0.4,0.5,0.6,1,0.6c0.7,0,1.2-0.3,1.5-1c0.1-0.4,0.2-0.8,0.2-1.4v-3.1h1.1v6.3h-1
		l0-0.9c-0.1,0.2-0.3,0.4-0.5,0.6c-0.4,0.3-0.9,0.5-1.4,0.5c-0.9,0-1.5-0.3-1.8-0.9c-0.2-0.3-0.3-0.7-0.3-1.3v-4.3H318.5z"/>
	<path d="M324,63.2h1V64c0.2-0.3,0.4-0.5,0.7-0.7c0.4-0.2,0.8-0.4,1.3-0.4c0.7,0,1.3,0.3,1.8,0.8c0.5,0.5,0.7,1.3,0.7,2.3
		c0,1.4-0.4,2.3-1.1,2.9c-0.5,0.4-1,0.6-1.6,0.6c-0.5,0-0.9-0.1-1.2-0.3c-0.2-0.1-0.4-0.3-0.6-0.6v3.2H324V63.2z M328,68.1
		c0.3-0.4,0.5-1,0.5-1.8c0-0.5-0.1-0.9-0.2-1.3c-0.3-0.7-0.8-1-1.5-1c-0.7,0-1.2,0.4-1.5,1.1c-0.1,0.4-0.2,0.9-0.2,1.5
		c0,0.5,0.1,0.9,0.2,1.2c0.3,0.6,0.8,1,1.5,1C327.2,68.7,327.6,68.5,328,68.1z"/>
	<path d="M334.1,65.6c0.2,0,0.4-0.1,0.5-0.3c0-0.1,0.1-0.2,0.1-0.4c0-0.4-0.1-0.6-0.4-0.8c-0.3-0.2-0.6-0.2-1.1-0.2
		c-0.5,0-0.9,0.1-1.2,0.4c-0.1,0.2-0.2,0.4-0.3,0.7h-1c0-0.8,0.3-1.3,0.8-1.6c0.5-0.3,1-0.5,1.7-0.5c0.7,0,1.3,0.1,1.8,0.4
		c0.5,0.3,0.7,0.7,0.7,1.3v3.6c0,0.1,0,0.2,0.1,0.3c0,0.1,0.1,0.1,0.3,0.1c0,0,0.1,0,0.2,0s0.1,0,0.2,0v0.8c-0.2,0-0.3,0.1-0.4,0.1
		s-0.2,0-0.4,0c-0.4,0-0.6-0.1-0.8-0.4c-0.1-0.1-0.1-0.3-0.2-0.6c-0.2,0.3-0.5,0.5-0.9,0.7s-0.8,0.3-1.3,0.3c-0.6,0-1.1-0.2-1.4-0.5
		s-0.6-0.8-0.6-1.3c0-0.6,0.2-1,0.5-1.4s0.8-0.5,1.4-0.6L334.1,65.6z M331.9,68.5c0.2,0.2,0.5,0.3,0.8,0.3c0.4,0,0.7-0.1,1.1-0.3
		c0.6-0.3,0.9-0.8,0.9-1.4v-0.8c-0.1,0.1-0.3,0.2-0.5,0.2c-0.2,0.1-0.4,0.1-0.6,0.1l-0.6,0.1c-0.4,0.1-0.7,0.1-0.9,0.2
		c-0.3,0.2-0.5,0.5-0.5,0.9C331.6,68,331.7,68.3,331.9,68.5z"/>
	<path d="M337.5,60.8h1.1v8.6h-1.1V60.8z"/>
</g>
<g>
	<path d="M870.3,382.5c0.6,0.6,0.9,1.2,1,2h-1.1c-0.1-0.6-0.4-1-0.8-1.3s-0.9-0.5-1.6-0.5c-0.8,0-1.5,0.3-2,0.9
		c-0.5,0.6-0.8,1.5-0.8,2.7c0,1,0.2,1.8,0.7,2.5c0.5,0.6,1.2,0.9,2.1,0.9c0.8,0,1.5-0.3,1.9-1c0.2-0.3,0.4-0.8,0.5-1.4h1.1
		c-0.1,0.9-0.4,1.7-1,2.3c-0.7,0.7-1.6,1.1-2.7,1.1c-1,0-1.8-0.3-2.5-0.9c-0.9-0.8-1.3-2-1.3-3.7c0-1.3,0.3-2.3,1-3.1
		c0.7-0.9,1.7-1.3,3-1.3C868.9,381.6,869.7,381.9,870.3,382.5z"/>
	<path d="M872.8,384.2h1v1.1c0.1-0.2,0.3-0.5,0.6-0.8s0.7-0.5,1.1-0.5c0,0,0.1,0,0.1,0s0.1,0,0.2,0v1.1c-0.1,0-0.1,0-0.2,0
		s-0.1,0-0.2,0c-0.5,0-0.9,0.2-1.2,0.5s-0.4,0.7-0.4,1.2v3.6h-1.1V384.2z"/>
	<path d="M877.8,384.2v4.2c0,0.3,0,0.6,0.1,0.8c0.2,0.4,0.5,0.6,1,0.6c0.7,0,1.2-0.3,1.5-1c0.1-0.4,0.2-0.8,0.2-1.4v-3.1h1.1v6.3h-1
		l0-0.9c-0.1,0.2-0.3,0.4-0.5,0.6c-0.4,0.3-0.9,0.5-1.4,0.5c-0.9,0-1.5-0.3-1.8-0.9c-0.2-0.3-0.3-0.7-0.3-1.3v-4.3H877.8z"/>
	<path d="M882.9,389.6l3.7-4.5h-3.5v-0.9h4.9v0.9l-3.7,4.5h3.8v0.9h-5.3V389.6z"/>
	<path d="M896.2,384.4c0.2,0.1,0.4,0.3,0.6,0.6v-3.2h1v8.6h-0.9v-0.9c-0.2,0.4-0.5,0.7-0.9,0.8c-0.3,0.2-0.7,0.3-1.1,0.3
		c-0.7,0-1.3-0.3-1.8-0.9s-0.8-1.4-0.8-2.3c0-0.9,0.2-1.7,0.7-2.4c0.5-0.7,1.1-1,2-1C895.5,384.1,895.9,384.2,896.2,384.4z
		 M893.8,389.1c0.3,0.5,0.7,0.7,1.4,0.7c0.5,0,0.9-0.2,1.2-0.6c0.3-0.4,0.5-1,0.5-1.8c0-0.8-0.2-1.4-0.5-1.8
		c-0.3-0.4-0.7-0.6-1.2-0.6c-0.5,0-1,0.2-1.3,0.6c-0.3,0.4-0.5,1-0.5,1.8C893.4,388.1,893.5,388.6,893.8,389.1z"/>
	<path d="M903.3,384.4c0.4,0.2,0.7,0.5,0.9,0.8c0.2,0.3,0.3,0.7,0.4,1.1c0.1,0.3,0.1,0.8,0.1,1.4h-4.6c0,0.6,0.2,1.2,0.4,1.5
		c0.3,0.4,0.7,0.6,1.3,0.6c0.5,0,1-0.2,1.3-0.5c0.2-0.2,0.3-0.5,0.4-0.7h1c0,0.2-0.1,0.5-0.3,0.8s-0.3,0.5-0.5,0.7
		c-0.3,0.3-0.7,0.5-1.2,0.6c-0.3,0.1-0.5,0.1-0.9,0.1c-0.8,0-1.4-0.3-2-0.9c-0.5-0.6-0.8-1.4-0.8-2.4c0-1,0.3-1.8,0.8-2.5
		c0.5-0.6,1.3-0.9,2.1-0.9C902.4,384,902.9,384.1,903.3,384.4z M903.7,386.8c0-0.5-0.1-0.8-0.3-1.1c-0.3-0.5-0.8-0.8-1.4-0.8
		c-0.5,0-0.9,0.2-1.2,0.5c-0.3,0.3-0.5,0.8-0.5,1.3H903.7z"/>
	<path d="M915.6,382.5c0.6,0.6,0.9,1.2,1,2h-1.1c-0.1-0.6-0.4-1-0.8-1.3s-0.9-0.5-1.6-0.5c-0.8,0-1.5,0.3-2,0.9
		c-0.5,0.6-0.8,1.5-0.8,2.7c0,1,0.2,1.8,0.7,2.5c0.5,0.6,1.2,0.9,2.1,0.9c0.8,0,1.5-0.3,1.9-1c0.2-0.3,0.4-0.8,0.5-1.4h1.1
		c-0.1,0.9-0.4,1.7-1,2.3c-0.7,0.7-1.6,1.1-2.7,1.1c-1,0-1.8-0.3-2.5-0.9c-0.9-0.8-1.3-2-1.3-3.7c0-1.3,0.3-2.3,1-3.1
		c0.7-0.9,1.7-1.3,3-1.3C914.2,381.6,915,381.9,915.6,382.5z"/>
	<path d="M922,384.4c0.4,0.2,0.7,0.5,0.9,0.8c0.2,0.3,0.3,0.7,0.4,1.1c0.1,0.3,0.1,0.8,0.1,1.4h-4.6c0,0.6,0.2,1.2,0.4,1.5
		c0.3,0.4,0.7,0.6,1.3,0.6c0.5,0,1-0.2,1.3-0.5c0.2-0.2,0.3-0.5,0.4-0.7h1c0,0.2-0.1,0.5-0.3,0.8s-0.3,0.5-0.5,0.7
		c-0.3,0.3-0.7,0.5-1.2,0.6c-0.3,0.1-0.5,0.1-0.9,0.1c-0.8,0-1.4-0.3-2-0.9c-0.5-0.6-0.8-1.4-0.8-2.4c0-1,0.3-1.8,0.8-2.5
		c0.5-0.6,1.3-0.9,2.1-0.9C921.1,384,921.5,384.1,922,384.4z M922.3,386.8c0-0.5-0.1-0.8-0.3-1.1c-0.3-0.5-0.8-0.8-1.4-0.8
		c-0.5,0-0.9,0.2-1.2,0.5c-0.3,0.3-0.5,0.8-0.5,1.3H922.3z"/>
	<path d="M924.8,381.8h1.1v8.6h-1.1V381.8z"/>
	<path d="M930.8,386.7c0.2,0,0.4-0.1,0.5-0.3c0-0.1,0.1-0.2,0.1-0.4c0-0.4-0.1-0.6-0.4-0.8s-0.6-0.2-1.1-0.2c-0.5,0-0.9,0.1-1.2,0.4
		c-0.1,0.2-0.2,0.4-0.3,0.7h-1c0-0.8,0.3-1.3,0.8-1.6c0.5-0.3,1-0.5,1.7-0.5c0.7,0,1.3,0.1,1.8,0.4c0.5,0.3,0.7,0.7,0.7,1.3v3.6
		c0,0.1,0,0.2,0.1,0.3c0,0.1,0.1,0.1,0.3,0.1c0,0,0.1,0,0.2,0s0.1,0,0.2,0v0.8c-0.2,0-0.3,0.1-0.4,0.1s-0.2,0-0.4,0
		c-0.4,0-0.6-0.1-0.8-0.4c-0.1-0.1-0.1-0.3-0.2-0.6c-0.2,0.3-0.5,0.5-0.9,0.7s-0.8,0.3-1.3,0.3c-0.6,0-1.1-0.2-1.4-0.5
		s-0.6-0.8-0.6-1.3c0-0.6,0.2-1,0.5-1.4s0.8-0.5,1.4-0.6L930.8,386.7z M928.6,389.5c0.2,0.2,0.5,0.3,0.8,0.3c0.4,0,0.7-0.1,1.1-0.3
		c0.6-0.3,0.9-0.8,0.9-1.4v-0.8c-0.1,0.1-0.3,0.2-0.5,0.2c-0.2,0.1-0.4,0.1-0.6,0.1l-0.6,0.1c-0.4,0.1-0.7,0.1-0.9,0.2
		c-0.3,0.2-0.5,0.5-0.5,0.9C928.2,389.1,928.3,389.3,928.6,389.5z"/>
	<path d="M934.7,388.5c0,0.4,0.1,0.6,0.3,0.8c0.3,0.3,0.7,0.5,1.4,0.5c0.4,0,0.7-0.1,1.1-0.3c0.3-0.2,0.5-0.4,0.5-0.8
		c0-0.3-0.1-0.5-0.4-0.6c-0.2-0.1-0.5-0.2-0.9-0.3l-0.9-0.2c-0.5-0.1-0.9-0.3-1.2-0.4c-0.5-0.3-0.7-0.7-0.7-1.2
		c0-0.6,0.2-1.1,0.7-1.4c0.4-0.4,1-0.6,1.7-0.6c1,0,1.6,0.3,2.1,0.8c0.3,0.4,0.4,0.7,0.4,1.1h-1c0-0.2-0.1-0.5-0.3-0.6
		c-0.2-0.3-0.7-0.4-1.3-0.4c-0.4,0-0.7,0.1-0.9,0.2c-0.2,0.2-0.3,0.4-0.3,0.6c0,0.3,0.1,0.5,0.4,0.7c0.2,0.1,0.4,0.2,0.7,0.3
		l0.7,0.2c0.8,0.2,1.3,0.4,1.6,0.5c0.4,0.3,0.6,0.7,0.6,1.3c0,0.6-0.2,1-0.6,1.4c-0.4,0.4-1.1,0.6-2,0.6c-0.9,0-1.6-0.2-2-0.6
		s-0.6-0.9-0.6-1.6H934.7z"/>
</g>
<g>
	<path d="M771.9,706c0.6,0.6,0.9,1.2,1,2h-1.1c-0.1-0.6-0.4-1-0.8-1.3s-0.9-0.5-1.6-0.5c-0.8,0-1.5,0.3-2,0.9
		c-0.5,0.6-0.8,1.5-0.8,2.7c0,1,0.2,1.8,0.7,2.5c0.5,0.6,1.2,0.9,2.1,0.9c0.8,0,1.5-0.3,1.9-1c0.2-0.3,0.4-0.8,0.5-1.4h1.1
		c-0.1,0.9-0.4,1.7-1,2.3c-0.7,0.7-1.6,1.1-2.7,1.1c-1,0-1.8-0.3-2.5-0.9c-0.9-0.8-1.3-2-1.3-3.7c0-1.3,0.3-2.3,1-3.1
		c0.7-0.9,1.7-1.3,3-1.3C770.5,705.1,771.3,705.4,771.9,706z"/>
	<path d="M778.9,708.3c0.6,0.5,0.8,1.3,0.8,2.4c0,1-0.2,1.8-0.7,2.5c-0.5,0.7-1.2,1-2.3,1c-0.9,0-1.5-0.3-2-0.9
		c-0.5-0.6-0.8-1.4-0.8-2.4c0-1.1,0.3-1.9,0.8-2.5c0.5-0.6,1.2-0.9,2.1-0.9C777.7,707.5,778.4,707.8,778.9,708.3z M778.3,712.5
		c0.3-0.5,0.4-1.1,0.4-1.8c0-0.6-0.1-1.1-0.3-1.4c-0.3-0.6-0.8-0.9-1.5-0.9c-0.6,0-1.1,0.2-1.4,0.7c-0.3,0.5-0.4,1.1-0.4,1.8
		c0,0.7,0.1,1.2,0.4,1.7c0.3,0.4,0.7,0.7,1.4,0.7C777.5,713.3,778,713,778.3,712.5z"/>
	<path d="M781,707.7h1v0.9c0.3-0.4,0.6-0.6,0.9-0.8s0.7-0.2,1.1-0.2c0.9,0,1.5,0.3,1.8,0.9c0.2,0.3,0.3,0.8,0.3,1.5v4h-1.1v-4
		c0-0.4-0.1-0.7-0.2-0.9c-0.2-0.4-0.5-0.6-1-0.6c-0.2,0-0.5,0-0.6,0.1c-0.3,0.1-0.5,0.3-0.8,0.5c-0.2,0.2-0.3,0.4-0.3,0.6
		s-0.1,0.5-0.1,0.9v3.3H781V707.7z"/>
	<path d="M787.9,705.9h1.1v1.8h1v0.9h-1v4.1c0,0.2,0.1,0.4,0.2,0.4c0.1,0,0.2,0.1,0.4,0.1c0.1,0,0.1,0,0.2,0c0.1,0,0.1,0,0.2,0v0.8
		c-0.1,0-0.2,0.1-0.4,0.1s-0.3,0-0.4,0c-0.5,0-0.8-0.1-1-0.4s-0.3-0.6-0.3-1v-4.2h-0.8v-0.9h0.8V705.9z"/>
	<path d="M791.1,705.3h1.1v1.2h-1.1V705.3z M791.1,707.7h1.1v6.2h-1.1V707.7z"/>
	<path d="M793.7,707.7h1v0.9c0.3-0.4,0.6-0.6,0.9-0.8s0.7-0.2,1.1-0.2c0.9,0,1.5,0.3,1.8,0.9c0.2,0.3,0.3,0.8,0.3,1.5v4h-1.1v-4
		c0-0.4-0.1-0.7-0.2-0.9c-0.2-0.4-0.5-0.6-1-0.6c-0.2,0-0.5,0-0.6,0.1c-0.3,0.1-0.5,0.3-0.8,0.5c-0.2,0.2-0.3,0.4-0.3,0.6
		s-0.1,0.5-0.1,0.9v3.3h-1.1V707.7z"/>
	<path d="M804.3,707.8c0.4,0.2,0.7,0.5,0.9,0.8c0.2,0.3,0.3,0.7,0.4,1.1c0.1,0.3,0.1,0.8,0.1,1.4h-4.6c0,0.6,0.2,1.2,0.4,1.5
		s0.7,0.6,1.3,0.6c0.5,0,1-0.2,1.3-0.5c0.2-0.2,0.3-0.5,0.4-0.7h1c0,0.2-0.1,0.5-0.3,0.8s-0.3,0.5-0.5,0.7c-0.3,0.3-0.7,0.5-1.2,0.6
		c-0.3,0.1-0.5,0.1-0.9,0.1c-0.8,0-1.4-0.3-2-0.9s-0.8-1.4-0.8-2.4c0-1,0.3-1.8,0.8-2.5s1.3-0.9,2.1-0.9
		C803.4,707.5,803.9,707.6,804.3,707.8z M804.6,710.3c0-0.5-0.1-0.8-0.3-1.1c-0.3-0.5-0.8-0.8-1.4-0.8c-0.5,0-0.9,0.2-1.2,0.5
		c-0.3,0.3-0.5,0.8-0.5,1.3H804.6z"/>
	<path d="M807.1,707.7h1v0.9c0.3-0.4,0.6-0.6,0.9-0.8s0.7-0.2,1.1-0.2c0.9,0,1.5,0.3,1.8,0.9c0.2,0.3,0.3,0.8,0.3,1.5v4h-1.1v-4
		c0-0.4-0.1-0.7-0.2-0.9c-0.2-0.4-0.5-0.6-1-0.6c-0.2,0-0.5,0-0.6,0.1c-0.3,0.1-0.5,0.3-0.8,0.5c-0.2,0.2-0.3,0.4-0.3,0.6
		s-0.1,0.5-0.1,0.9v3.3h-1.1V707.7z"/>
	<path d="M814,705.9h1.1v1.8h1v0.9h-1v4.1c0,0.2,0.1,0.4,0.2,0.4c0.1,0,0.2,0.1,0.4,0.1c0.1,0,0.1,0,0.2,0c0.1,0,0.1,0,0.2,0v0.8
		c-0.1,0-0.2,0.1-0.4,0.1s-0.3,0-0.4,0c-0.5,0-0.8-0.1-1-0.4s-0.3-0.6-0.3-1v-4.2h-0.8v-0.9h0.8V705.9z"/>
	<path d="M821,707.8c0.4,0.2,0.7,0.5,0.9,0.8c0.2,0.3,0.3,0.7,0.4,1.1c0.1,0.3,0.1,0.8,0.1,1.4h-4.6c0,0.6,0.2,1.2,0.4,1.5
		s0.7,0.6,1.3,0.6c0.5,0,1-0.2,1.3-0.5c0.2-0.2,0.3-0.5,0.4-0.7h1c0,0.2-0.1,0.5-0.3,0.8s-0.3,0.5-0.5,0.7c-0.3,0.3-0.7,0.5-1.2,0.6
		c-0.3,0.1-0.5,0.1-0.9,0.1c-0.8,0-1.4-0.3-2-0.9s-0.8-1.4-0.8-2.4c0-1,0.3-1.8,0.8-2.5s1.3-0.9,2.1-0.9
		C820.1,707.5,820.5,707.6,821,707.8z M821.3,710.3c0-0.5-0.1-0.8-0.3-1.1c-0.3-0.5-0.8-0.8-1.4-0.8c-0.5,0-0.9,0.2-1.2,0.5
		c-0.3,0.3-0.5,0.8-0.5,1.3H821.3z"/>
</g>
<polygon class="st9" points="859.4,977 696.8,977 696.8,700.7 307.1,311 15.8,311 15.8,291 315.4,291 716.8,692.5 716.8,957 
	851.1,957 1111.1,696.8 1125.3,710.9 "/>
<path class="st10" d="M810,746h-86.2v-57.1L434.7,399.6L576.4,258l173.4,173.4V567h205v33.4L810,746z M733.8,736h72l139-139.8V577
	h-205V435.6L576.3,272.2L448.8,399.6l285,285.2V736z"/>
<g>
	<circle class="st8" cx="576.4" cy="265.1" r="7.5"/>
	<path class="st10" d="M576.4,275.1c-5.5,0-10-4.5-10-10s4.5-10,10-10s10,4.5,10,10S581.9,275.1,576.4,275.1z M576.4,260.1
		c-2.8,0-5,2.2-5,5s2.2,5,5,5s5-2.2,5-5S579.1,260.1,576.4,260.1z"/>
</g>
<g>
	<circle class="st8" cx="879.3" cy="668.1" r="7.5"/>
	<path class="st10" d="M879.3,678.1c-5.5,0-10-4.5-10-10s4.5-10,10-10s10,4.5,10,10S884.9,678.1,879.3,678.1z M879.3,663.1
		c-2.8,0-5,2.2-5,5s2.2,5,5,5s5-2.2,5-5S882.1,663.1,879.3,663.1z"/>
</g>
<g>
	<path class="st11" d="M745,679.8"/>
</g>
<path class="st12" d="M847.6,949H739.8V681.9L599,541l-39-39l-43.5,43.4L397.4,426l-33.6,33.9v93.1l58.3,58.9l-7.1,7L353.8,557
	V455.7l43.6-43.9l119.2,119.5l43.5-43.4l46,46.1l143.7,143.8V719h289v38.2l-1.5,1.5L847.6,949z M749.8,939h93.7l185.3-185.9V729
	h-279V939z"/>
<g>
	<circle class="st8" cx="418.3" cy="615.6" r="7.5"/>
	<path class="st12" d="M418.3,625.6c-5.5,0-10-4.5-10-10s4.5-10,10-10s10,4.5,10,10S423.8,625.6,418.3,625.6z M418.3,610.6
		c-2.8,0-5,2.2-5,5s2.2,5,5,5s5-2.2,5-5S421.1,610.6,418.3,610.6z"/>
</g>
<g>
	<circle class="st8" cx="797.3" cy="943.6" r="7.5"/>
	<path class="st12" d="M797.3,953.6c-5.5,0-10-4.5-10-10s4.5-10,10-10s10,4.5,10,10S802.8,953.6,797.3,953.6z M797.3,938.6
		c-2.8,0-5,2.2-5,5s2.2,5,5,5s5-2.2,5-5S800.1,938.6,797.3,938.6z"/>
</g>
<path class="st13" d="M340.2,275.5"/>
<path class="st14" d="M347.2,720H159.5l-1.5-1.5L51.8,612.9v-60l1.5-1.5l291.5-292.7V61h10v199.1l235.6,235.5l-73.7,73.8
	L396.8,449.5l-16,16l0,78.9l71.2,71.2L347.2,720z M163.6,710H343l94.8-94.4l-67-67l0-87.2l26-26l119.9,119.9l59.6-59.6l-227.1-227
	L61.8,557v51.7L163.6,710z"/>
<g>
	<circle class="st8" cx="583.3" cy="495.6" r="7.5"/>
	<path class="st14" d="M583.3,505.6c-5.5,0-10-4.5-10-10s4.5-10,10-10s10,4.5,10,10S588.8,505.6,583.3,505.6z M583.3,490.6
		c-2.8,0-5,2.2-5,5s2.2,5,5,5s5-2.2,5-5S586.1,490.6,583.3,490.6z"/>
</g>
<g>
	<circle class="st8" cx="107.3" cy="661.6" r="7.5"/>
	<path class="st14" d="M107.3,671.6c-5.5,0-10-4.5-10-10s4.5-10,10-10s10,4.5,10,10S112.8,671.6,107.3,671.6z M107.3,656.6
		c-2.8,0-5,2.2-5,5s2.2,5,5,5s5-2.2,5-5S110.1,656.6,107.3,656.6z"/>
</g>
<path class="st15" d="M765.8,928h-10V752h56.1l149.9-150.9V560h-205v-92h-75v-48.7l39.9-40.4l45.1,45.3V550h205v55.2L816.1,762
	h-50.3V928z M691.8,458h65v-29.7l-35.1-35.2l-29.9,30.3V458z"/>
<g>
	<circle class="st8" cx="760.8" cy="928" r="7.5"/>
	<path class="st15" d="M760.8,938c-5.5,0-10-4.5-10-10s4.5-10,10-10s10,4.5,10,10S766.3,938,760.8,938z M760.8,923c-2.8,0-5,2.2-5,5
		s2.2,5,5,5s5-2.2,5-5S763.5,923,760.8,923z"/>
</g>
<g>
	<circle class="st8" cx="686.8" cy="463" r="7.5"/>
	<path class="st15" d="M686.8,473c-5.5,0-10-4.5-10-10s4.5-10,10-10s10,4.5,10,10S692.3,473,686.8,473z M686.8,458c-2.8,0-5,2.2-5,5
		s2.2,5,5,5s5-2.2,5-5S689.5,458,686.8,458z"/>
</g>
<path class="st16" d="M833.7,634H739l-1.5-1.5L493.9,389.3l130.6-130.5L762.6,397h81.2V196H878l74.1,75h141.7v119.1L833.7,634z
	 M743.1,624h86.6l254.1-238.2V281H948l-74.1-75h-20.1v201h-95.3l-134-134.1L508,389.3L743.1,624z"/>
<g>
	<circle class="st8" cx="1088.8" cy="387.9" r="7.5"/>
	<path class="st16" d="M1088.8,397.9c-5.5,0-10-4.5-10-10s4.5-10,10-10s10,4.5,10,10S1094.3,397.9,1088.8,397.9z M1088.8,382.9
		c-2.8,0-5,2.2-5,5s2.2,5,5,5s5-2.2,5-5S1091.6,382.9,1088.8,382.9z"/>
</g>
<g>
	<circle class="st8" cx="562.8" cy="327.3" r="7.5"/>
	<path class="st16" d="M562.8,337.3c-5.5,0-10-4.5-10-10s4.5-10,10-10s10,4.5,10,10S568.3,337.3,562.8,337.3z M562.8,322.3
		c-2.8,0-5,2.2-5,5s2.2,5,5,5s5-2.2,5-5S565.6,322.3,562.8,322.3z"/>
</g>
<path class="st17" d="M366.3,274.9"/>
<polygon points="844.8,594 722.8,594 722.8,485 664.8,485 664.8,413.2 703.4,375 600.7,272.4 488.7,384.5 360.8,257 360.8,52 
	370.8,52 370.8,252.8 488.7,370.4 600.7,258.3 717.6,375 674.8,417.3 674.8,475 732.8,475 732.8,584 844.8,584 "/>
<g>
	<circle class="st8" cx="365.8" cy="52.3" r="7.5"/>
	<path d="M365.8,62.3c-5.5,0-10-4.5-10-10s4.5-10,10-10s10,4.5,10,10S371.3,62.3,365.8,62.3z M365.8,47.3c-2.8,0-5,2.2-5,5
		s2.2,5,5,5s5-2.2,5-5S368.6,47.3,365.8,47.3z"/>
</g>
<g>
	<circle class="st8" cx="844.8" cy="589.3" r="7.5"/>
	<path d="M844.8,599.3c-5.5,0-10-4.5-10-10s4.5-10,10-10s10,4.5,10,10S850.3,599.3,844.8,599.3z M844.8,584.3c-2.8,0-5,2.2-5,5
		s2.2,5,5,5s5-2.2,5-5S847.6,584.3,844.8,584.3z"/>
</g>
<circle class="st8" cx="848.8" cy="229.2" r="4.1"/>
<circle class="st8" cx="848.8" cy="386.2" r="4.1"/>
<circle class="st8" cx="844.8" cy="572.2" r="4.1"/>
<circle class="st8" cx="844.8" cy="555.2" r="4.1"/>
<circle class="st8" cx="941.8" cy="847.2" r="4.1"/>
<circle class="st8" cx="210.8" cy="400.2" r="4.1"/>
<circle class="st8" cx="733.8" cy="375.2" r="4.1"/>
<circle class="st8" cx="709.8" cy="375.2" r="4.1"/>
<circle class="st8" cx="721.8" cy="387.2" r="4.1"/>
<circle class="st8" cx="727.8" cy="509.2" r="4.1"/>
<circle class="st8" cx="586.3" cy="521.2" r="4.1"/>
<circle class="st8" cx="574.8" cy="532.8" r="4.1"/>
<circle class="st8" cx="349.8" cy="66.2" r="4.1"/>
<circle class="st8" cx="600.8" cy="267.2" r="4.1"/>
<circle class="st8" cx="624.8" cy="267.2" r="4.1"/>
<circle class="st8" cx="394.8" cy="307.2" r="4.1"/>
<circle class="st8" cx="406.8" cy="295.2" r="4.1"/>
<circle class="st8" cx="891.3" cy="679.2" r="4.1"/>
<circle class="st8" cx="834.8" cy="714" r="4.1"/>
<circle class="st8" cx="824.8" cy="724" r="4.1"/>
<circle class="st8" cx="846.8" cy="724" r="4.1"/>
</svg>
