<?xml version="1.0" encoding="utf-8"?>
<!-- Generator: Adobe Illustrator 19.2.1, SVG Export Plug-In . SVG Version: 6.00 Build 0)  -->
<svg version="1.1" id="Layer_1" xmlns="http://www.w3.org/2000/svg" xmlns:xlink="http://www.w3.org/1999/xlink" x="0px" y="0px"
	 viewBox="0 0 99 129" style="enable-background:new 0 0 99 129;" xml:space="preserve">
<style type="text/css">
	.st0{fill:#E6196E;}
	.st1{fill:#FFFFFF;}
	.st2{fill:#FF8200;}
	.st3{fill:#00A9A6;}
	.st4{fill:#FAB914;}
	.st5{fill:#5082C3;}
</style>
<rect y="117" class="st0" width="70" height="4"/>
<g>
	<rect x="70" y="111" class="st1" width="26" height="16"/>
	<path class="st0" d="M99,129H68v-20h31V129z M72,125h23v-11H72V125z"/>
</g>
<g>
	<rect x="41" y="111" class="st1" width="19" height="16"/>
	<path class="st0" d="M62,129H39v-20h23V129z M43,125h15v-11H43V125z"/>
</g>
<g>
	<path class="st0" d="M45,121.9c0.2-0.6,0.8-1.1,1.7-1.8c0.8-0.5,1.2-0.9,1.5-1.2c0.3-0.4,0.5-0.8,0.5-1.2c0-0.4-0.1-0.6-0.3-0.9
		c-0.2-0.2-0.5-0.4-0.8-0.4c-0.5,0-0.8,0.2-1,0.6c-0.1,0.2-0.2,0.6-0.2,1h-1.6c0-0.7,0.2-1.3,0.4-1.7c0.4-0.8,1.2-1.2,2.3-1.2
		c0.9,0,1.6,0.2,2.1,0.7c0.5,0.5,0.8,1.1,0.8,1.9c0,0.6-0.2,1.2-0.6,1.6c-0.2,0.3-0.6,0.7-1.2,1.1l-0.7,0.5
		c-0.4,0.3-0.7,0.5-0.8,0.6c-0.2,0.1-0.3,0.3-0.4,0.5h3.6v1.4h-5.7C44.6,123,44.7,122.4,45,121.9z"/>
	<path class="st0" d="M56.9,121.8H56v1.8h-1.6v-1.8h-3.3v-1.4l3.1-5.1H56v5.2h0.9V121.8z M54.4,120.5v-3.6l-2.1,3.6H54.4z"/>
</g>
<g>
	<path class="st0" d="M73.9,122c0.2-0.6,0.8-1.1,1.7-1.8c0.8-0.5,1.2-0.9,1.5-1.2c0.3-0.4,0.5-0.8,0.5-1.2c0-0.4-0.1-0.6-0.3-0.9
		c-0.2-0.2-0.5-0.4-0.8-0.4c-0.5,0-0.8,0.2-1,0.6c-0.1,0.2-0.2,0.6-0.2,1h-1.6c0-0.7,0.2-1.3,0.4-1.7c0.4-0.8,1.2-1.2,2.3-1.2
		c0.9,0,1.6,0.2,2.1,0.7c0.5,0.5,0.8,1.1,0.8,1.9c0,0.6-0.2,1.2-0.6,1.6c-0.2,0.3-0.6,0.7-1.2,1.1l-0.7,0.5
		c-0.4,0.3-0.7,0.5-0.8,0.6c-0.2,0.1-0.3,0.3-0.4,0.5h3.6v1.4h-5.7C73.6,123,73.7,122.5,73.9,122z"/>
	<path class="st0" d="M85.9,121.8H85v1.8h-1.6v-1.8h-3.3v-1.4l3.1-5.1H85v5.2h0.9V121.8z M83.4,120.5v-3.6l-2.1,3.6H83.4z"/>
	<path class="st0" d="M93.4,115.1v1.5h-2.5v7H89v-7h-2.5v-1.5H93.4z"/>
</g>
<rect y="95" class="st2" width="45" height="4"/>
<g>
	<rect x="41" y="90" class="st1" width="19" height="15"/>
	<path class="st2" d="M62,107H39V88h23V107z M43,103h15V92H43V103z"/>
</g>
<g>
	<path class="st2" d="M46.2,99c0,0.3,0.1,0.6,0.2,0.8c0.2,0.4,0.6,0.6,1.1,0.6c0.3,0,0.6-0.1,0.8-0.3c0.2-0.2,0.4-0.5,0.4-1
		c0-0.5-0.2-0.9-0.7-1.1c-0.3-0.1-0.7-0.2-1.2-0.2v-1.2c0.5,0,0.9-0.1,1.1-0.2c0.4-0.2,0.5-0.5,0.5-1c0-0.3-0.1-0.6-0.3-0.8
		c-0.2-0.2-0.4-0.3-0.8-0.3c-0.4,0-0.7,0.1-0.9,0.4c-0.2,0.2-0.3,0.6-0.3,1h-1.5c0-0.4,0.1-0.8,0.2-1.2c0.1-0.3,0.3-0.6,0.6-0.9
		c0.2-0.2,0.5-0.3,0.8-0.4c0.3-0.1,0.7-0.2,1.1-0.2c0.8,0,1.4,0.2,1.9,0.6c0.5,0.4,0.7,1,0.7,1.7c0,0.5-0.1,0.9-0.4,1.2
		c-0.2,0.2-0.4,0.4-0.6,0.4c0.1,0,0.4,0.1,0.6,0.4c0.4,0.4,0.6,0.9,0.6,1.6c0,0.7-0.2,1.3-0.7,1.9c-0.5,0.5-1.2,0.8-2.2,0.8
		c-1.2,0-2-0.4-2.5-1.2c-0.2-0.4-0.4-0.9-0.4-1.6H46.2z"/>
	<path class="st2" d="M51.5,98c0.2-0.4,0.5-0.7,0.9-0.9c-0.4-0.3-0.7-0.6-0.8-0.9c-0.1-0.3-0.2-0.6-0.2-0.9c0-0.6,0.2-1.1,0.7-1.6
		c0.5-0.4,1.1-0.6,1.9-0.6c0.8,0,1.5,0.2,1.9,0.6c0.5,0.4,0.7,0.9,0.7,1.6c0,0.3-0.1,0.6-0.2,0.9c-0.1,0.3-0.4,0.6-0.8,0.8
		c0.4,0.2,0.7,0.5,0.9,0.9c0.2,0.4,0.3,0.8,0.3,1.3c0,0.7-0.3,1.3-0.8,1.8c-0.5,0.5-1.2,0.7-2.2,0.7c-0.9,0-1.6-0.2-2.1-0.7
		c-0.5-0.5-0.7-1.1-0.7-1.8C51.1,98.8,51.2,98.3,51.5,98z M53.2,100.1c0.2,0.2,0.5,0.3,0.9,0.3c0.4,0,0.7-0.1,0.9-0.3
		c0.2-0.2,0.3-0.5,0.3-1c0-0.4-0.1-0.7-0.3-1c-0.2-0.2-0.5-0.3-0.9-0.3c-0.4,0-0.7,0.1-0.9,0.3c-0.2,0.2-0.3,0.5-0.3,1
		C52.8,99.5,52.9,99.8,53.2,100.1z M53.3,96.3c0.2,0.2,0.4,0.3,0.8,0.3c0.3,0,0.6-0.1,0.8-0.3c0.2-0.2,0.3-0.4,0.3-0.7
		c0-0.3-0.1-0.6-0.3-0.8c-0.2-0.2-0.4-0.3-0.8-0.3c-0.3,0-0.6,0.1-0.8,0.3c-0.2,0.2-0.3,0.4-0.3,0.8C53,95.8,53.1,96.1,53.3,96.3z"
		/>
</g>
<rect y="73" class="st3" width="70" height="5"/>
<g>
	<rect x="70" y="68" class="st1" width="26" height="15"/>
	<path class="st3" d="M99,85H68V66h31V85z M72,81h23V70H72V81z"/>
</g>
<g>
	<rect x="41" y="68" class="st1" width="19" height="15"/>
	<path class="st3" d="M62,85H39V66h23V85z M43,81h15V70H43V81z"/>
</g>
<g>
	<path class="st3" d="M44.8,74v-1.1c0.5,0,0.9-0.1,1.1-0.1c0.3-0.1,0.6-0.2,0.8-0.4c0.1-0.1,0.2-0.3,0.3-0.6c0-0.1,0.1-0.3,0.1-0.3
		h1.4v8.3h-1.7V74H44.8z"/>
	<path class="st3" d="M56.7,77.9h-0.9v1.8h-1.6v-1.8h-3.3v-1.4l3.1-5.1h1.8v5.2h0.9V77.9z M54.2,76.6V73l-2.1,3.6H54.2z"/>
</g>
<g>
	<path class="st3" d="M73.8,74v-1.1c0.5,0,0.9-0.1,1.1-0.1c0.3-0.1,0.6-0.2,0.8-0.4c0.1-0.1,0.2-0.3,0.3-0.6c0-0.1,0.1-0.3,0.1-0.3
		h1.4v8.3h-1.7V74H73.8z"/>
	<path class="st3" d="M85.7,78h-0.9v1.8h-1.6V78h-3.3v-1.4l3.1-5.1h1.8v5.2h0.9V78z M83.1,76.7v-3.6l-2.1,3.6H83.1z"/>
	<path class="st3" d="M93.1,71.3v1.5h-2.5v7h-1.8v-7h-2.5v-1.5H93.1z"/>
</g>
<rect y="52" class="st4" width="45" height="4"/>
<g>
	<rect x="41" y="46" class="st1" width="19" height="15"/>
	<path class="st4" d="M62,63H39V44h23V63z M43,59h15V48H43V59z"/>
</g>
<g>
	<path class="st4" d="M46.2,55.2c0,0.3,0.1,0.6,0.2,0.8c0.2,0.4,0.6,0.6,1.1,0.6c0.3,0,0.6-0.1,0.8-0.3c0.2-0.2,0.4-0.5,0.4-1
		c0-0.5-0.2-0.9-0.7-1.1c-0.3-0.1-0.7-0.2-1.2-0.2v-1.2c0.5,0,0.9-0.1,1.1-0.2c0.4-0.2,0.5-0.5,0.5-1c0-0.3-0.1-0.6-0.3-0.8
		c-0.2-0.2-0.4-0.3-0.8-0.3c-0.4,0-0.7,0.1-0.9,0.4c-0.2,0.2-0.3,0.6-0.3,1h-1.5c0-0.4,0.1-0.8,0.2-1.2c0.1-0.3,0.3-0.6,0.6-0.9
		c0.2-0.2,0.5-0.3,0.8-0.4c0.3-0.1,0.7-0.2,1.1-0.2c0.8,0,1.4,0.2,1.9,0.6c0.5,0.4,0.7,1,0.7,1.7c0,0.5-0.1,0.9-0.4,1.2
		c-0.2,0.2-0.4,0.4-0.6,0.4c0.1,0,0.4,0.1,0.6,0.4c0.4,0.4,0.6,0.9,0.6,1.6c0,0.7-0.2,1.3-0.7,1.9c-0.5,0.5-1.2,0.8-2.2,0.8
		c-1.2,0-2-0.4-2.5-1.2c-0.2-0.4-0.4-0.9-0.4-1.6H46.2z"/>
	<path class="st4" d="M57,55.9H56v1.8h-1.6v-1.8h-3.3v-1.4l3.1-5.1H56v5.2H57V55.9z M54.4,54.6V51l-2.1,3.6H54.4z"/>
</g>
<rect y="30" class="st5" width="70" height="4"/>
<g>
	<rect x="70" y="24" class="st1" width="26" height="15"/>
	<path class="st5" d="M99,41H68V22h31V41z M72,37h23V26H72V37z"/>
</g>
<g>
	<rect x="41" y="24" class="st1" width="19" height="15"/>
	<path class="st5" d="M62,41H39V22h23V41z M43,37h15V26H43V37z"/>
</g>
<g>
	<path class="st5" d="M53.8,28.8c-0.3,0.2-0.6,0.7-1.1,1.3c-0.5,0.6-0.8,1.3-1.1,2c-0.2,0.5-0.5,1.2-0.7,1.9
		c-0.2,0.8-0.3,1.4-0.3,1.9h-1.7c0.1-1.5,0.6-3.1,1.5-4.8c0.6-1,1.1-1.7,1.6-2.1h-4.3l0-1.5h6V28.8z"/>
</g>
<g>
	<path class="st5" d="M82.8,28.8c-0.3,0.2-0.6,0.7-1.1,1.3c-0.5,0.6-0.8,1.3-1.1,2c-0.2,0.5-0.5,1.2-0.7,1.9
		c-0.2,0.8-0.3,1.4-0.3,1.9H78c0.1-1.5,0.6-3.1,1.5-4.8c0.6-1,1.1-1.7,1.6-2.1h-4.3l0-1.5h6V28.8z"/>
	<path class="st5" d="M90.1,27.5V29h-2.5v7h-1.8v-7h-2.5v-1.5H90.1z"/>
</g>
<rect y="8" width="45" height="4"/>
<g>
	<rect x="41" y="2" class="st1" width="19" height="16"/>
	<path d="M62,19H39V0h23V19z M43,15h15V4H43V15z"/>
</g>
<g>
	<path d="M49.5,11.6c0.1,0.4,0.2,0.6,0.4,0.8c0.2,0.2,0.5,0.3,0.8,0.3c0.4,0,0.7-0.1,0.9-0.4c0.2-0.3,0.3-0.6,0.3-1.1
		c0-0.4-0.1-0.8-0.3-1.1c-0.2-0.3-0.5-0.4-0.9-0.4c-0.2,0-0.4,0-0.5,0.1c-0.3,0.1-0.4,0.3-0.6,0.5l-1.5-0.1l0.6-4.6h4.6V7h-3.4
		l-0.3,1.8c0.3-0.2,0.4-0.3,0.6-0.3c0.2-0.1,0.5-0.1,0.9-0.1c0.7,0,1.3,0.2,1.8,0.7c0.5,0.5,0.8,1.1,0.8,2c0,0.8-0.2,1.5-0.7,2.1
		c-0.5,0.6-1.2,0.9-2.2,0.9c-0.8,0-1.4-0.2-2-0.6c-0.5-0.4-0.8-1-0.9-1.8H49.5z"/>
</g>
</svg>
